M48
;Layer_Color=9474304
;FILE_FORMAT=4:4
METRIC,LZ
;TYPE=PLATED
T1F00S00C0.7000
T2F00S00C0.7112
T3F00S00C1.1000
T4F00S00C3.1750
%
T01
X0120681Y0072009
X0150114
X0152114
X0154114
X0156114
X0118681
X0116681
X0114681
X0084867
X0082867
X0080867
X0078867
X0049339
X0047339
X0045339
X0043339
T02
X014224Y0076835
X010668
X0070993Y0077724
X0035433
X0037338Y0083185
X0028956Y0084455
X0028067Y0087249
X0028956Y0090043
X0028194Y0093472
X0034163Y0096139
X00364915Y00986267
X0033401Y0100584
X0036703Y0104521
X0038227Y0108839
X0035052Y0091567
X0047371Y0092456
X0048895Y009017
X0048641Y0095377
X0055753Y0093472
X0059563Y0092075
X0059309Y0096266
Y0101854
X0069088Y0100584
X0072117Y0098552
X006985Y0096139
X0070612Y0091567
X0064516Y0090043
X0063627Y0087249
X0064516Y0084455
X0073025Y008382
X0077089Y0081915
X0063627Y0093472
X0053975Y0085852
X0047752Y0081534
X0045339
X0041529Y0081915
X0042418Y0106807
X0045212Y0108839
X0046736Y011049
X0048133Y0106807
X005207Y011049
X004064Y011176
X00762
X0073787Y0108839
X0078232Y0107442
X0072136Y0104521
X0081026Y0108839
X0082804Y011049
X008382Y0107442
X0087884Y0110744
X0095123Y0102489
Y0096901
X009525Y0092075
X009144Y0093345
X0099187Y0093472
X0100203Y0089916
X0099187Y0087122
X0100203Y0083439
X0108712Y0083185
X0112776Y0081915
X0116713Y0081661
X0118618Y0092456
X0106172Y0091694
X010541Y0096139
X0107696Y0098679
X0104648Y0100584
X0107696Y0104521
X0109347Y0108839
X01118941Y01118799
X0113792Y0107442
X0116586Y0108839
X0117729Y0110744
X0084201Y0095377
X0083058Y0092456
X0084455Y009017
X0083693Y0081661
X0080899Y0081534
X0089662Y0085852
X011938Y0081788
X0120142Y009017
X0119761Y0095631
X0127127Y0093472
X0131064Y0092075
X0134747Y0093472
X0135763Y0089916
X0134747Y0087249
X0135763Y0083566
X0144145Y0083058
X0148209Y0081788
X0152146
X0154813Y0081915
X0155575Y009017
X0154051Y0092456
X0155194Y0095631
X0154813Y0107442
X0152019Y0108839
X0153162Y0110744
X014732Y0111887
X014478Y0108839
X0143256Y0104775
X0143129Y0098806
X0140081Y0100584
X0140716Y0096266
X0141605Y0091694
X0130683Y0096901
X01306509Y01025013
X0123698Y0110744
X0119507Y0107442
X0125349Y0086106
X0149225Y0107442
X0159131Y0110744
X0166116Y0102489
X01661007Y00968872
X0166497Y0092075
X016256Y0093472
X0160782Y0086106
T03
X0038053Y0118999
X0040553
X0043053
X0045553
X0048053
X0050553
X007366
X007616
X007866
X008116
X008366
X008616
X0109347
X0111847
X0114347
X0116847
X0119347
X0121847
X014478
X014728
X014978
X015228
X015478
X015728
T04
X0168402Y0070358
X002667
X0168402Y0121285
X002667
M30
