G04*
G04 #@! TF.GenerationSoftware,Altium Limited,Altium Designer,22.10.1 (41)*
G04*
G04 Layer_Color=65535*
%FSLAX44Y44*%
%MOMM*%
G71*
G04*
G04 #@! TF.SameCoordinates,E6263BE7-1458-4C56-9D4E-A9492F5360D3*
G04*
G04*
G04 #@! TF.FilePolarity,Positive*
G04*
G01*
G75*
%ADD10C,0.2000*%
%ADD11C,0.2500*%
%ADD12C,0.0508*%
%ADD13C,0.0254*%
D10*
X856090Y857250D02*
G03*
X856090Y857250I-500J0D01*
G01*
X1565540D02*
G03*
X1565540Y857250I-500J0D01*
G01*
X1363540Y899160D02*
G03*
X1363540Y899160I-500J0D01*
G01*
X1422900Y823850D02*
G03*
X1422900Y823850I-500J0D01*
G01*
X1363590Y835660D02*
G03*
X1363590Y835660I-500J0D01*
G01*
X1363640Y871220D02*
G03*
X1363640Y871220I-500J0D01*
G01*
X1410210Y1005840D02*
G03*
X1410210Y1005840I-500J0D01*
G01*
X1492750Y1065200D02*
G03*
X1492750Y1065200I-500J0D01*
G01*
X1520690D02*
G03*
X1520690Y1065200I-500J0D01*
G01*
X1548630D02*
G03*
X1548630Y1065200I-500J0D01*
G01*
X1576570D02*
G03*
X1576570Y1065200I-500J0D01*
G01*
X1652390Y1052830D02*
G03*
X1652390Y1052830I-500J0D01*
G01*
Y1024890D02*
G03*
X1652390Y1024890I-500J0D01*
G01*
Y996950D02*
G03*
X1652390Y996950I-500J0D01*
G01*
Y969010D02*
G03*
X1652390Y969010I-500J0D01*
G01*
X1608320Y914390D02*
G03*
X1608320Y914390I-500J0D01*
G01*
X1588000D02*
G03*
X1588000Y914390I-500J0D01*
G01*
X1298060Y969010D02*
G03*
X1298060Y969010I-500J0D01*
G01*
Y996950D02*
G03*
X1298060Y996950I-500J0D01*
G01*
Y1024890D02*
G03*
X1298060Y1024890I-500J0D01*
G01*
Y1052830D02*
G03*
X1298060Y1052830I-500J0D01*
G01*
X1222240Y1065150D02*
G03*
X1222240Y1065150I-500J0D01*
G01*
X1194300D02*
G03*
X1194300Y1065150I-500J0D01*
G01*
X1166360D02*
G03*
X1166360Y1065150I-500J0D01*
G01*
X1138420D02*
G03*
X1138420Y1065150I-500J0D01*
G01*
X1055880Y1005840D02*
G03*
X1055880Y1005840I-500J0D01*
G01*
X1007940Y899160D02*
G03*
X1007940Y899160I-500J0D01*
G01*
X1007990Y871220D02*
G03*
X1007990Y871220I-500J0D01*
G01*
Y835660D02*
G03*
X1007990Y835660I-500J0D01*
G01*
X1067300Y823850D02*
G03*
X1067300Y823850I-500J0D01*
G01*
X1211450Y857250D02*
G03*
X1211450Y857250I-500J0D01*
G01*
X1253990Y914390D02*
G03*
X1253990Y914390I-500J0D01*
G01*
X1233670D02*
G03*
X1233670Y914390I-500J0D01*
G01*
X700280Y1005840D02*
G03*
X700280Y1005840I-500J0D01*
G01*
X651120Y844550D02*
G03*
X651120Y844550I-500J0D01*
G01*
X710430Y832690D02*
G03*
X710430Y832690I-500J0D01*
G01*
X876800Y913120D02*
G03*
X876800Y913120I-500J0D01*
G01*
X897120D02*
G03*
X897120Y913120I-500J0D01*
G01*
X942460Y969010D02*
G03*
X942460Y969010I-500J0D01*
G01*
Y996950D02*
G03*
X942460Y996950I-500J0D01*
G01*
Y1052830D02*
G03*
X942460Y1052830I-500J0D01*
G01*
Y1024890D02*
G03*
X942460Y1024890I-500J0D01*
G01*
X866640Y1065150D02*
G03*
X866640Y1065150I-500J0D01*
G01*
X810760D02*
G03*
X810760Y1065150I-500J0D01*
G01*
X838700D02*
G03*
X838700Y1065150I-500J0D01*
G01*
X782820D02*
G03*
X782820Y1065150I-500J0D01*
G01*
X424680Y1058800D02*
G03*
X424680Y1058800I-500J0D01*
G01*
X452620D02*
G03*
X452620Y1058800I-500J0D01*
G01*
X480560D02*
G03*
X480560Y1058800I-500J0D01*
G01*
X508500D02*
G03*
X508500Y1058800I-500J0D01*
G01*
X584320Y1046480D02*
G03*
X584320Y1046480I-500J0D01*
G01*
Y1018540D02*
G03*
X584320Y1018540I-500J0D01*
G01*
Y990600D02*
G03*
X584320Y990600I-500J0D01*
G01*
Y962660D02*
G03*
X584320Y962660I-500J0D01*
G01*
X651120Y900430D02*
G03*
X651120Y900430I-500J0D01*
G01*
Y872490D02*
G03*
X651120Y872490I-500J0D01*
G01*
X343410Y1005840D02*
G03*
X343410Y1005840I-500J0D01*
G01*
X295520Y872490D02*
G03*
X295520Y872490I-500J0D01*
G01*
Y900430D02*
G03*
X295520Y900430I-500J0D01*
G01*
X519930Y914010D02*
G03*
X519930Y914010I-500J0D01*
G01*
X540250D02*
G03*
X540250Y914010I-500J0D01*
G01*
X500250Y857250D02*
G03*
X500250Y857250I-500J0D01*
G01*
X354830Y832690D02*
G03*
X354830Y832690I-500J0D01*
G01*
X295520Y844550D02*
G03*
X295520Y844550I-500J0D01*
G01*
X1597300Y1155990D02*
Y1189990D01*
X1423300Y1155990D02*
X1597300D01*
X1423300D02*
Y1213490D01*
X1572800D01*
X1580640Y720090D02*
Y748090D01*
X1481640D02*
X1580640D01*
X1481640Y703090D02*
Y748090D01*
Y703090D02*
X1561140D01*
X1467090Y789290D02*
Y803290D01*
X1382500Y922720D02*
Y946720D01*
X1589300Y922720D02*
Y946720D01*
X1631880Y891540D02*
X1654880D01*
X1242970Y1155990D02*
Y1189990D01*
X1068970Y1155990D02*
X1242970D01*
X1068970D02*
Y1213490D01*
X1218470D01*
X1226310Y720090D02*
Y748090D01*
X1127310D02*
X1226310D01*
X1127310Y703090D02*
Y748090D01*
Y703090D02*
X1206810D01*
X1112520Y790560D02*
Y804560D01*
X1234970Y922720D02*
Y946720D01*
X1277550Y891540D02*
X1300550D01*
X1027430Y922720D02*
Y946720D01*
X868170Y720090D02*
Y748090D01*
X769170D02*
X868170D01*
X769170Y703090D02*
Y748090D01*
Y703090D02*
X848670D01*
X886100Y1155990D02*
Y1189990D01*
X712100Y1155990D02*
X886100D01*
X712100D02*
Y1213490D01*
X861600D01*
X920680Y889670D02*
X943680D01*
X878840Y921450D02*
Y945450D01*
X755410Y790560D02*
Y804560D01*
X530030Y1155990D02*
Y1189990D01*
X356030Y1155990D02*
X530030D01*
X356030D02*
Y1213490D01*
X505530D01*
X512890Y720090D02*
Y748090D01*
X413890D02*
X512890D01*
X413890Y703090D02*
Y748090D01*
Y703090D02*
X493390D01*
X671830Y922720D02*
Y946720D01*
X316230Y922720D02*
Y946720D01*
X521970Y922720D02*
Y946720D01*
X563810Y889670D02*
X586810D01*
X400050Y790560D02*
Y804560D01*
D11*
X1162740Y974350D02*
G03*
X1162740Y974350I-1250J0D01*
G01*
X806940Y973880D02*
G03*
X806940Y973880I-1250J0D01*
G01*
X450270Y974350D02*
G03*
X450270Y974350I-1250J0D01*
G01*
X1517070D02*
G03*
X1517070Y974350I-1250J0D01*
G01*
D12*
X768144Y756073D02*
Y755650D01*
X768990Y754803D01*
X769837Y755650D01*
Y756073D01*
X768990Y754803D02*
Y753534D01*
X770683Y754803D02*
X772376D01*
X774915Y755650D02*
X774492Y756073D01*
X773646D01*
X773223Y755650D01*
Y755226D01*
X773646Y754803D01*
X774492D01*
X774915Y754380D01*
Y753957D01*
X774492Y753534D01*
X773646D01*
X773223Y753957D01*
X776185Y755650D02*
Y755226D01*
X775762D01*
X776608D01*
X776185D01*
Y753957D01*
X776608Y753534D01*
X779147D02*
X778301D01*
X777878Y753957D01*
Y754803D01*
X778301Y755226D01*
X779147D01*
X779570Y754803D01*
Y754380D01*
X777878D01*
X780417Y752687D02*
Y755226D01*
X781686D01*
X782110Y754803D01*
Y753957D01*
X781686Y753534D01*
X780417D01*
X782956Y752687D02*
Y755226D01*
X784226D01*
X784649Y754803D01*
Y753957D01*
X784226Y753534D01*
X782956D01*
X786765D02*
X785918D01*
X785495Y753957D01*
Y754803D01*
X785918Y755226D01*
X786765D01*
X787188Y754803D01*
Y754380D01*
X785495D01*
X788034Y755226D02*
Y753534D01*
Y754380D01*
X788458Y754803D01*
X788881Y755226D01*
X789304D01*
X793113Y753534D02*
Y756073D01*
X793959Y755226D01*
X794806Y756073D01*
Y753534D01*
X796075D02*
X796921D01*
X797345Y753957D01*
Y754803D01*
X796921Y755226D01*
X796075D01*
X795652Y754803D01*
Y753957D01*
X796075Y753534D01*
X798614Y755650D02*
Y755226D01*
X798191D01*
X799037D01*
X798614D01*
Y753957D01*
X799037Y753534D01*
X800730D02*
X801577D01*
X802000Y753957D01*
Y754803D01*
X801577Y755226D01*
X800730D01*
X800307Y754803D01*
Y753957D01*
X800730Y753534D01*
X802846Y755226D02*
Y753534D01*
Y754380D01*
X803270Y754803D01*
X803693Y755226D01*
X804116D01*
X713320Y1224280D02*
Y1223856D01*
X714166Y1223010D01*
X715012Y1223856D01*
Y1224280D01*
X714166Y1223010D02*
Y1221740D01*
X715859Y1223010D02*
X717552D01*
X718398Y1224280D02*
Y1221740D01*
X719668D01*
X720091Y1222164D01*
Y1223856D01*
X719668Y1224280D01*
X718398D01*
X720937Y1223433D02*
Y1221740D01*
Y1222587D01*
X721360Y1223010D01*
X721784Y1223433D01*
X722207D01*
X723476Y1221740D02*
X724323D01*
X723900D01*
Y1223433D01*
X723476D01*
X725592D02*
X726439Y1221740D01*
X727285Y1223433D01*
X729401Y1221740D02*
X728555D01*
X728132Y1222164D01*
Y1223010D01*
X728555Y1223433D01*
X729401D01*
X729824Y1223010D01*
Y1222587D01*
X728132D01*
X730671Y1223433D02*
Y1221740D01*
Y1222587D01*
X731094Y1223010D01*
X731517Y1223433D01*
X731940D01*
X811111Y977900D02*
Y977476D01*
X811957Y976630D01*
X812804Y977476D01*
Y977900D01*
X811957Y976630D02*
Y975360D01*
X813650Y976630D02*
X815343D01*
X816189Y975360D02*
Y977053D01*
X817036Y977900D01*
X817882Y977053D01*
Y975360D01*
Y976630D01*
X816189D01*
X818728Y977053D02*
X820421Y975360D01*
X819575Y976207D01*
X820421Y977053D01*
X818728Y975360D01*
X821268D02*
X822114D01*
X821691D01*
Y977053D01*
X821268D01*
X823384Y975360D02*
X824653D01*
X825076Y975784D01*
X824653Y976207D01*
X823807D01*
X823384Y976630D01*
X823807Y977053D01*
X825076D01*
X830155Y977476D02*
X829732Y977900D01*
X828885D01*
X828462Y977476D01*
Y977053D01*
X828885Y976630D01*
X829732D01*
X830155Y976207D01*
Y975784D01*
X829732Y975360D01*
X828885D01*
X828462Y975784D01*
X831001Y975360D02*
Y977900D01*
X831848Y977053D01*
X832694Y977900D01*
Y975360D01*
X833540Y977900D02*
X834387D01*
X833964D01*
Y975360D01*
X833540D01*
X834387D01*
X837349Y977476D02*
X836926Y977900D01*
X836079D01*
X835656Y977476D01*
Y975784D01*
X836079Y975360D01*
X836926D01*
X837349Y975784D01*
X660193Y859578D02*
X659770Y860001D01*
X658923D01*
X658500Y859578D01*
Y857885D01*
X658923Y857462D01*
X659770D01*
X660193Y857885D01*
X662732Y860001D02*
X661039D01*
Y858732D01*
X661886D01*
X661039D01*
Y857462D01*
X665271Y859578D02*
X664848Y860001D01*
X664002D01*
X663578Y859578D01*
Y857885D01*
X664002Y857462D01*
X664848D01*
X665271Y857885D01*
Y858732D01*
X664425D01*
X667810Y860001D02*
X666118D01*
Y858732D01*
X666964Y859155D01*
X667387D01*
X667810Y858732D01*
Y857885D01*
X667387Y857462D01*
X666541D01*
X666118Y857885D01*
X668657Y857039D02*
X670350D01*
X671196Y860001D02*
Y858308D01*
X672042Y857462D01*
X672889Y858308D01*
Y860001D01*
X675428Y859578D02*
X675005Y860001D01*
X674158D01*
X673735Y859578D01*
Y857885D01*
X674158Y857462D01*
X675005D01*
X675428Y857885D01*
X677967Y859578D02*
X677544Y860001D01*
X676698D01*
X676274Y859578D01*
Y857885D01*
X676698Y857462D01*
X677544D01*
X677967Y857885D01*
X678814Y857039D02*
X680506D01*
X681353Y860001D02*
X682199D01*
X681776D01*
Y857462D01*
X681353D01*
X682199D01*
X684738Y860001D02*
X683892D01*
X683469Y859578D01*
Y857885D01*
X683892Y857462D01*
X684738D01*
X685162Y857885D01*
Y859578D01*
X684738Y860001D01*
X686008Y857039D02*
X687701D01*
X688547Y860001D02*
Y859578D01*
X689393Y858732D01*
X690240Y859578D01*
Y860001D01*
X689393Y858732D02*
Y857462D01*
X697018Y819570D02*
X697441Y819993D01*
Y820839D01*
X697018Y821263D01*
X695325D01*
X694902Y820839D01*
Y819993D01*
X695325Y819570D01*
X697441Y817031D02*
Y818724D01*
X696172D01*
Y817877D01*
Y818724D01*
X694902D01*
X697018Y814492D02*
X697441Y814915D01*
Y815761D01*
X697018Y816184D01*
X695325D01*
X694902Y815761D01*
Y814915D01*
X695325Y814492D01*
X696172D01*
Y815338D01*
X697441Y811952D02*
Y813645D01*
X696172D01*
X696595Y812799D01*
Y812376D01*
X696172Y811952D01*
X695325D01*
X694902Y812376D01*
Y813222D01*
X695325Y813645D01*
X694479Y811106D02*
Y809413D01*
X697018Y806874D02*
X697441Y807297D01*
Y808144D01*
X697018Y808567D01*
X695325D01*
X694902Y808144D01*
Y807297D01*
X695325Y806874D01*
X696172D01*
Y807720D01*
X694902Y806028D02*
X697441D01*
X694902Y804335D01*
X697441D01*
Y803488D02*
X694902D01*
Y802219D01*
X695325Y801796D01*
X697018D01*
X697441Y802219D01*
Y803488D01*
X694479Y800949D02*
Y799256D01*
X697441Y798410D02*
X697018D01*
X696172Y797564D01*
X697018Y796717D01*
X697441D01*
X696172Y797564D02*
X694902D01*
X660193Y915458D02*
X659770Y915881D01*
X658923D01*
X658500Y915458D01*
Y913765D01*
X658923Y913342D01*
X659770D01*
X660193Y913765D01*
X662732Y915881D02*
X661039D01*
Y914612D01*
X661886D01*
X661039D01*
Y913342D01*
X665271Y915458D02*
X664848Y915881D01*
X664002D01*
X663578Y915458D01*
Y913765D01*
X664002Y913342D01*
X664848D01*
X665271Y913765D01*
Y914612D01*
X664425D01*
X667387Y913342D02*
Y915881D01*
X666118Y914612D01*
X667810D01*
X668657Y912919D02*
X670350D01*
X671196Y915881D02*
Y914188D01*
X672042Y913342D01*
X672889Y914188D01*
Y915881D01*
X675428Y915458D02*
X675005Y915881D01*
X674158D01*
X673735Y915458D01*
Y913765D01*
X674158Y913342D01*
X675005D01*
X675428Y913765D01*
X677967Y915458D02*
X677544Y915881D01*
X676698D01*
X676274Y915458D01*
Y913765D01*
X676698Y913342D01*
X677544D01*
X677967Y913765D01*
X678814Y912919D02*
X680506D01*
X681353Y915881D02*
X682199D01*
X681776D01*
Y913342D01*
X681353D01*
X682199D01*
X684738Y915881D02*
X683892D01*
X683469Y915458D01*
Y913765D01*
X683892Y913342D01*
X684738D01*
X685162Y913765D01*
Y915458D01*
X684738Y915881D01*
X686008Y912919D02*
X687701D01*
X688547Y915881D02*
Y915458D01*
X689393Y914612D01*
X690240Y915458D01*
Y915881D01*
X689393Y914612D02*
Y913342D01*
X663790Y887518D02*
X663367Y887941D01*
X662521D01*
X662097Y887518D01*
Y885825D01*
X662521Y885402D01*
X663367D01*
X663790Y885825D01*
X666329Y887941D02*
X664637D01*
Y886672D01*
X665483D01*
X664637D01*
Y885402D01*
X668868Y887518D02*
X668445Y887941D01*
X667599D01*
X667176Y887518D01*
Y885825D01*
X667599Y885402D01*
X668445D01*
X668868Y885825D01*
Y886672D01*
X668022D01*
X670984Y885402D02*
Y887941D01*
X669715Y886672D01*
X671408D01*
X672254Y884979D02*
X673947D01*
X676486Y887518D02*
X676063Y887941D01*
X675216D01*
X674793Y887518D01*
Y885825D01*
X675216Y885402D01*
X676063D01*
X676486Y885825D01*
Y886672D01*
X675640D01*
X677332Y885402D02*
Y887941D01*
X679025Y885402D01*
Y887941D01*
X679872D02*
Y885402D01*
X681141D01*
X681564Y885825D01*
Y887518D01*
X681141Y887941D01*
X679872D01*
X682411Y884979D02*
X684104D01*
X684950Y887941D02*
Y887518D01*
X685796Y886672D01*
X686643Y887518D01*
Y887941D01*
X685796Y886672D02*
Y885402D01*
X904033Y1011978D02*
X903610Y1012401D01*
X902763D01*
X902340Y1011978D01*
Y1010285D01*
X902763Y1009862D01*
X903610D01*
X904033Y1010285D01*
X906572Y1012401D02*
X904879D01*
Y1011132D01*
X905726D01*
X904879D01*
Y1009862D01*
X909111Y1011978D02*
X908688Y1012401D01*
X907842D01*
X907419Y1011978D01*
Y1010285D01*
X907842Y1009862D01*
X908688D01*
X909111Y1010285D01*
Y1011132D01*
X908265D01*
X909958Y1011978D02*
X910381Y1012401D01*
X911227D01*
X911650Y1011978D01*
Y1011555D01*
X911227Y1011132D01*
X910804D01*
X911227D01*
X911650Y1010708D01*
Y1010285D01*
X911227Y1009862D01*
X910381D01*
X909958Y1010285D01*
X912497Y1009439D02*
X914190D01*
X915036Y1012401D02*
Y1010708D01*
X915882Y1009862D01*
X916729Y1010708D01*
Y1012401D01*
X919268Y1011978D02*
X918845Y1012401D01*
X917998D01*
X917575Y1011978D01*
Y1010285D01*
X917998Y1009862D01*
X918845D01*
X919268Y1010285D01*
X921807Y1011978D02*
X921384Y1012401D01*
X920538D01*
X920114Y1011978D01*
Y1010285D01*
X920538Y1009862D01*
X921384D01*
X921807Y1010285D01*
X922654Y1009439D02*
X924346D01*
X925193Y1012401D02*
X926039D01*
X925616D01*
Y1009862D01*
X925193D01*
X926039D01*
X928578Y1012401D02*
X927732D01*
X927309Y1011978D01*
Y1010285D01*
X927732Y1009862D01*
X928578D01*
X929001Y1010285D01*
Y1011978D01*
X928578Y1012401D01*
X929848Y1009439D02*
X931541D01*
X932387Y1012401D02*
Y1011978D01*
X933233Y1011132D01*
X934080Y1011978D01*
Y1012401D01*
X933233Y1011132D02*
Y1009862D01*
X907630Y984038D02*
X907207Y984461D01*
X906360D01*
X905937Y984038D01*
Y982345D01*
X906360Y981922D01*
X907207D01*
X907630Y982345D01*
X910169Y984461D02*
X908476D01*
Y983192D01*
X909323D01*
X908476D01*
Y981922D01*
X912708Y984038D02*
X912285Y984461D01*
X911439D01*
X911016Y984038D01*
Y982345D01*
X911439Y981922D01*
X912285D01*
X912708Y982345D01*
Y983192D01*
X911862D01*
X913555Y984038D02*
X913978Y984461D01*
X914824D01*
X915248Y984038D01*
Y983615D01*
X914824Y983192D01*
X914401D01*
X914824D01*
X915248Y982768D01*
Y982345D01*
X914824Y981922D01*
X913978D01*
X913555Y982345D01*
X916094Y981499D02*
X917787D01*
X920326Y984038D02*
X919903Y984461D01*
X919056D01*
X918633Y984038D01*
Y982345D01*
X919056Y981922D01*
X919903D01*
X920326Y982345D01*
Y983192D01*
X919480D01*
X921172Y981922D02*
Y984461D01*
X922865Y981922D01*
Y984461D01*
X923712D02*
Y981922D01*
X924981D01*
X925404Y982345D01*
Y984038D01*
X924981Y984461D01*
X923712D01*
X926251Y981499D02*
X927944D01*
X928790Y984461D02*
Y984038D01*
X929636Y983192D01*
X930483Y984038D01*
Y984461D01*
X929636Y983192D02*
Y981922D01*
X904033Y1067858D02*
X903610Y1068281D01*
X902763D01*
X902340Y1067858D01*
Y1066165D01*
X902763Y1065742D01*
X903610D01*
X904033Y1066165D01*
X906572Y1068281D02*
X904879D01*
Y1067012D01*
X905726D01*
X904879D01*
Y1065742D01*
X909111Y1067858D02*
X908688Y1068281D01*
X907842D01*
X907419Y1067858D01*
Y1066165D01*
X907842Y1065742D01*
X908688D01*
X909111Y1066165D01*
Y1067012D01*
X908265D01*
X911650Y1065742D02*
X909958D01*
X911650Y1067435D01*
Y1067858D01*
X911227Y1068281D01*
X910381D01*
X909958Y1067858D01*
X912497Y1065319D02*
X914190D01*
X915036Y1068281D02*
Y1066588D01*
X915882Y1065742D01*
X916729Y1066588D01*
Y1068281D01*
X919268Y1067858D02*
X918845Y1068281D01*
X917998D01*
X917575Y1067858D01*
Y1066165D01*
X917998Y1065742D01*
X918845D01*
X919268Y1066165D01*
X921807Y1067858D02*
X921384Y1068281D01*
X920538D01*
X920114Y1067858D01*
Y1066165D01*
X920538Y1065742D01*
X921384D01*
X921807Y1066165D01*
X922654Y1065319D02*
X924346D01*
X925193Y1068281D02*
X926039D01*
X925616D01*
Y1065742D01*
X925193D01*
X926039D01*
X928578Y1068281D02*
X927732D01*
X927309Y1067858D01*
Y1066165D01*
X927732Y1065742D01*
X928578D01*
X929001Y1066165D01*
Y1067858D01*
X928578Y1068281D01*
X929848Y1065319D02*
X931541D01*
X932387Y1068281D02*
Y1067858D01*
X933233Y1067012D01*
X934080Y1067858D01*
Y1068281D01*
X933233Y1067012D02*
Y1065742D01*
X907630Y1039918D02*
X907207Y1040341D01*
X906360D01*
X905937Y1039918D01*
Y1038225D01*
X906360Y1037802D01*
X907207D01*
X907630Y1038225D01*
X910169Y1040341D02*
X908476D01*
Y1039072D01*
X909323D01*
X908476D01*
Y1037802D01*
X912708Y1039918D02*
X912285Y1040341D01*
X911439D01*
X911016Y1039918D01*
Y1038225D01*
X911439Y1037802D01*
X912285D01*
X912708Y1038225D01*
Y1039072D01*
X911862D01*
X915248Y1037802D02*
X913555D01*
X915248Y1039495D01*
Y1039918D01*
X914824Y1040341D01*
X913978D01*
X913555Y1039918D01*
X916094Y1037379D02*
X917787D01*
X920326Y1039918D02*
X919903Y1040341D01*
X919056D01*
X918633Y1039918D01*
Y1038225D01*
X919056Y1037802D01*
X919903D01*
X920326Y1038225D01*
Y1039072D01*
X919480D01*
X921172Y1037802D02*
Y1040341D01*
X922865Y1037802D01*
Y1040341D01*
X923712D02*
Y1037802D01*
X924981D01*
X925404Y1038225D01*
Y1039918D01*
X924981Y1040341D01*
X923712D01*
X926251Y1037379D02*
X927944D01*
X928790Y1040341D02*
Y1039918D01*
X929636Y1039072D01*
X930483Y1039918D01*
Y1040341D01*
X929636Y1039072D02*
Y1037802D01*
X881168Y1055366D02*
X881591Y1055789D01*
Y1056635D01*
X881168Y1057058D01*
X879475D01*
X879052Y1056635D01*
Y1055789D01*
X879475Y1055366D01*
X881591Y1052826D02*
Y1054519D01*
X880322D01*
Y1053673D01*
Y1054519D01*
X879052D01*
X881168Y1050287D02*
X881591Y1050710D01*
Y1051557D01*
X881168Y1051980D01*
X879475D01*
X879052Y1051557D01*
Y1050710D01*
X879475Y1050287D01*
X880322D01*
Y1051133D01*
X879052Y1049441D02*
Y1048594D01*
Y1049017D01*
X881591D01*
X881168Y1049441D01*
X878629Y1047325D02*
Y1045632D01*
X881591Y1044786D02*
X879898D01*
X879052Y1043939D01*
X879898Y1043093D01*
X881591D01*
X881168Y1040554D02*
X881591Y1040977D01*
Y1041823D01*
X881168Y1042246D01*
X879475D01*
X879052Y1041823D01*
Y1040977D01*
X879475Y1040554D01*
X881168Y1038014D02*
X881591Y1038438D01*
Y1039284D01*
X881168Y1039707D01*
X879475D01*
X879052Y1039284D01*
Y1038438D01*
X879475Y1038014D01*
X878629Y1037168D02*
Y1035475D01*
X881591Y1034629D02*
Y1033782D01*
Y1034206D01*
X879052D01*
Y1034629D01*
Y1033782D01*
X881591Y1031243D02*
Y1032090D01*
X881168Y1032513D01*
X879475D01*
X879052Y1032090D01*
Y1031243D01*
X879475Y1030820D01*
X881168D01*
X881591Y1031243D01*
X878629Y1029974D02*
Y1028281D01*
X881591Y1027434D02*
X881168D01*
X880322Y1026588D01*
X881168Y1025742D01*
X881591D01*
X880322Y1026588D02*
X879052D01*
X853228Y1053038D02*
X853651Y1053462D01*
Y1054308D01*
X853228Y1054731D01*
X851535D01*
X851112Y1054308D01*
Y1053462D01*
X851535Y1053038D01*
X853651Y1050499D02*
Y1052192D01*
X852382D01*
Y1051346D01*
Y1052192D01*
X851112D01*
X853228Y1047960D02*
X853651Y1048383D01*
Y1049230D01*
X853228Y1049653D01*
X851535D01*
X851112Y1049230D01*
Y1048383D01*
X851535Y1047960D01*
X852382D01*
Y1048806D01*
X851112Y1047114D02*
Y1046267D01*
Y1046690D01*
X853651D01*
X853228Y1047114D01*
X850689Y1044998D02*
Y1043305D01*
X853228Y1040766D02*
X853651Y1041189D01*
Y1042035D01*
X853228Y1042458D01*
X851535D01*
X851112Y1042035D01*
Y1041189D01*
X851535Y1040766D01*
X852382D01*
Y1041612D01*
X851112Y1039919D02*
X853651D01*
X851112Y1038226D01*
X853651D01*
Y1037380D02*
X851112D01*
Y1036110D01*
X851535Y1035687D01*
X853228D01*
X853651Y1036110D01*
Y1037380D01*
X850689Y1034841D02*
Y1033148D01*
X853651Y1032302D02*
X853228D01*
X852382Y1031455D01*
X853228Y1030609D01*
X853651D01*
X852382Y1031455D02*
X851112D01*
X825288Y1056847D02*
X825711Y1057270D01*
Y1058117D01*
X825288Y1058540D01*
X823595D01*
X823172Y1058117D01*
Y1057270D01*
X823595Y1056847D01*
X825711Y1054308D02*
Y1056001D01*
X824442D01*
Y1055154D01*
Y1056001D01*
X823172D01*
X825288Y1051769D02*
X825711Y1052192D01*
Y1053038D01*
X825288Y1053462D01*
X823595D01*
X823172Y1053038D01*
Y1052192D01*
X823595Y1051769D01*
X824442D01*
Y1052615D01*
X825288Y1050922D02*
X825711Y1050499D01*
Y1049653D01*
X825288Y1049230D01*
X823595D01*
X823172Y1049653D01*
Y1050499D01*
X823595Y1050922D01*
X825288D01*
X822749Y1048383D02*
Y1046690D01*
X825711Y1045844D02*
X824018D01*
X823172Y1044998D01*
X824018Y1044151D01*
X825711D01*
X825288Y1041612D02*
X825711Y1042035D01*
Y1042882D01*
X825288Y1043305D01*
X823595D01*
X823172Y1042882D01*
Y1042035D01*
X823595Y1041612D01*
X825288Y1039073D02*
X825711Y1039496D01*
Y1040342D01*
X825288Y1040766D01*
X823595D01*
X823172Y1040342D01*
Y1039496D01*
X823595Y1039073D01*
X822749Y1038226D02*
Y1036534D01*
X825711Y1035687D02*
Y1034841D01*
Y1035264D01*
X823172D01*
Y1035687D01*
Y1034841D01*
X825711Y1032302D02*
Y1033148D01*
X825288Y1033571D01*
X823595D01*
X823172Y1033148D01*
Y1032302D01*
X823595Y1031879D01*
X825288D01*
X825711Y1032302D01*
X822749Y1031032D02*
Y1029339D01*
X825711Y1028493D02*
X825288D01*
X824442Y1027646D01*
X825288Y1026800D01*
X825711D01*
X824442Y1027646D02*
X823172D01*
X797348Y1053250D02*
X797771Y1053673D01*
Y1054520D01*
X797348Y1054943D01*
X795655D01*
X795232Y1054520D01*
Y1053673D01*
X795655Y1053250D01*
X797771Y1050711D02*
Y1052403D01*
X796502D01*
Y1051557D01*
Y1052403D01*
X795232D01*
X797348Y1048172D02*
X797771Y1048595D01*
Y1049441D01*
X797348Y1049864D01*
X795655D01*
X795232Y1049441D01*
Y1048595D01*
X795655Y1048172D01*
X796502D01*
Y1049018D01*
X797348Y1047325D02*
X797771Y1046902D01*
Y1046056D01*
X797348Y1045632D01*
X795655D01*
X795232Y1046056D01*
Y1046902D01*
X795655Y1047325D01*
X797348D01*
X794809Y1044786D02*
Y1043093D01*
X797348Y1040554D02*
X797771Y1040977D01*
Y1041824D01*
X797348Y1042247D01*
X795655D01*
X795232Y1041824D01*
Y1040977D01*
X795655Y1040554D01*
X796502D01*
Y1041400D01*
X795232Y1039708D02*
X797771D01*
X795232Y1038015D01*
X797771D01*
Y1037168D02*
X795232D01*
Y1035899D01*
X795655Y1035476D01*
X797348D01*
X797771Y1035899D01*
Y1037168D01*
X794809Y1034629D02*
Y1032936D01*
X797771Y1032090D02*
X797348D01*
X796502Y1031244D01*
X797348Y1030397D01*
X797771D01*
X796502Y1031244D02*
X795232D01*
X659769Y956521D02*
Y953982D01*
X661039D01*
X661462Y954405D01*
Y954828D01*
X661039Y955252D01*
X659769D01*
X661039D01*
X661462Y955675D01*
Y956098D01*
X661039Y956521D01*
X659769D01*
X662308Y953982D02*
Y956521D01*
X663578D01*
X664001Y956098D01*
Y955252D01*
X663578Y954828D01*
X662308D01*
X663155D02*
X664001Y953982D01*
X664847Y956521D02*
Y953982D01*
X666117D01*
X666540Y954405D01*
Y954828D01*
X666117Y955252D01*
X664847D01*
X666117D01*
X666540Y955675D01*
Y956098D01*
X666117Y956521D01*
X664847D01*
X667386Y953559D02*
X669079D01*
X669926Y956098D02*
X670349Y956521D01*
X671195D01*
X671618Y956098D01*
Y954405D01*
X671195Y953982D01*
X670349D01*
X669926Y954405D01*
Y956098D01*
X672465Y953982D02*
Y954405D01*
X672888D01*
Y953982D01*
X672465D01*
X676274D02*
X674581D01*
X676274Y955675D01*
Y956098D01*
X675850Y956521D01*
X675004D01*
X674581Y956098D01*
X678813Y956521D02*
X677120D01*
Y955252D01*
X677966Y955675D01*
X678390D01*
X678813Y955252D01*
Y954405D01*
X678390Y953982D01*
X677543D01*
X677120Y954405D01*
X679659Y953559D02*
X681352D01*
X682198Y956521D02*
Y956098D01*
X683045Y955252D01*
X683891Y956098D01*
Y956521D01*
X683045Y955252D02*
Y953982D01*
X866779Y955251D02*
Y952712D01*
X868048D01*
X868472Y953135D01*
Y953558D01*
X868048Y953982D01*
X866779D01*
X868048D01*
X868472Y954405D01*
Y954828D01*
X868048Y955251D01*
X866779D01*
X869318Y952712D02*
Y955251D01*
X870588D01*
X871011Y954828D01*
Y953982D01*
X870588Y953558D01*
X869318D01*
X870164D02*
X871011Y952712D01*
X871857D02*
Y954405D01*
X872704Y955251D01*
X873550Y954405D01*
Y952712D01*
Y953982D01*
X871857D01*
X874396Y952289D02*
X876089D01*
X876936Y954828D02*
X877359Y955251D01*
X878205D01*
X878628Y954828D01*
Y953135D01*
X878205Y952712D01*
X877359D01*
X876936Y953135D01*
Y954828D01*
X879475Y952712D02*
Y953135D01*
X879898D01*
Y952712D01*
X879475D01*
X883284D02*
X881591D01*
X883284Y954405D01*
Y954828D01*
X882860Y955251D01*
X882014D01*
X881591Y954828D01*
X885823Y955251D02*
X884130D01*
Y953982D01*
X884976Y954405D01*
X885400D01*
X885823Y953982D01*
Y953135D01*
X885400Y952712D01*
X884553D01*
X884130Y953135D01*
X886669Y952289D02*
X888362D01*
X889208Y955251D02*
Y954828D01*
X890055Y953982D01*
X890901Y954828D01*
Y955251D01*
X890055Y953982D02*
Y952712D01*
X913342Y897252D02*
Y896406D01*
Y896829D01*
X915881D01*
X915458Y897252D01*
Y895136D02*
X915881Y894713D01*
Y893867D01*
X915458Y893444D01*
X913765D01*
X913342Y893867D01*
Y894713D01*
X913765Y895136D01*
X915458D01*
Y892597D02*
X915881Y892174D01*
Y891328D01*
X915458Y890904D01*
X913765D01*
X913342Y891328D01*
Y892174D01*
X913765Y892597D01*
X915458D01*
X915035Y890058D02*
X913765D01*
X913342Y889635D01*
Y888365D01*
X915035D01*
X915881Y885826D02*
Y887519D01*
X914612D01*
Y886672D01*
Y887519D01*
X913342D01*
X912919Y884980D02*
Y883287D01*
X915881Y882440D02*
X915458D01*
X914612Y881594D01*
X915458Y880748D01*
X915881D01*
X914612Y881594D02*
X913342D01*
X865082Y911009D02*
Y910163D01*
Y910586D01*
X867621D01*
X867198Y911009D01*
Y908893D02*
X867621Y908470D01*
Y907624D01*
X867198Y907200D01*
X865505D01*
X865082Y907624D01*
Y908470D01*
X865505Y908893D01*
X867198D01*
Y906354D02*
X867621Y905931D01*
Y905084D01*
X867198Y904661D01*
X865505D01*
X865082Y905084D01*
Y905931D01*
X865505Y906354D01*
X867198D01*
X865082Y903815D02*
X866775D01*
Y902545D01*
X866352Y902122D01*
X865082D01*
X867621Y899583D02*
Y901276D01*
X866352D01*
Y900429D01*
Y901276D01*
X865082D01*
X864659Y898736D02*
Y897044D01*
X865082Y896197D02*
Y895351D01*
Y895774D01*
X867621D01*
X867198Y896197D01*
X867621Y892388D02*
X867198Y893235D01*
X866352Y894081D01*
X865505D01*
X865082Y893658D01*
Y892812D01*
X865505Y892388D01*
X865928D01*
X866352Y892812D01*
Y894081D01*
X867621Y891542D02*
X865928D01*
X865082Y890696D01*
X865928Y889849D01*
X867621D01*
X864659Y889003D02*
Y887310D01*
X867621Y886464D02*
X867198D01*
X866352Y885617D01*
X867198Y884771D01*
X867621D01*
X866352Y885617D02*
X865082D01*
X905722Y907411D02*
Y906565D01*
Y906988D01*
X908261D01*
X907838Y907411D01*
Y905295D02*
X908261Y904872D01*
Y904026D01*
X907838Y903603D01*
X906145D01*
X905722Y904026D01*
Y904872D01*
X906145Y905295D01*
X907838D01*
Y902756D02*
X908261Y902333D01*
Y901487D01*
X907838Y901064D01*
X906145D01*
X905722Y901487D01*
Y902333D01*
X906145Y902756D01*
X907838D01*
X905722Y900217D02*
X907415D01*
Y898948D01*
X906992Y898524D01*
X905722D01*
X908261Y895985D02*
Y897678D01*
X906992D01*
Y896832D01*
Y897678D01*
X905722D01*
X905299Y895139D02*
Y893446D01*
X907838Y892600D02*
X908261Y892176D01*
Y891330D01*
X907838Y890907D01*
X907415D01*
X906992Y891330D01*
Y891753D01*
Y891330D01*
X906568Y890907D01*
X906145D01*
X905722Y891330D01*
Y892176D01*
X906145Y892600D01*
X905299Y890060D02*
Y888368D01*
X908261Y887521D02*
X907838D01*
X906992Y886675D01*
X907838Y885828D01*
X908261D01*
X906992Y886675D02*
X905722D01*
X885402Y907411D02*
Y906565D01*
Y906988D01*
X887941D01*
X887518Y907411D01*
Y905295D02*
X887941Y904872D01*
Y904026D01*
X887518Y903603D01*
X885825D01*
X885402Y904026D01*
Y904872D01*
X885825Y905295D01*
X887518D01*
Y902756D02*
X887941Y902333D01*
Y901487D01*
X887518Y901064D01*
X885825D01*
X885402Y901487D01*
Y902333D01*
X885825Y902756D01*
X887518D01*
X885402Y900217D02*
X887095D01*
Y898948D01*
X886672Y898524D01*
X885402D01*
X887941Y895985D02*
Y897678D01*
X886672D01*
Y896832D01*
Y897678D01*
X885402D01*
X884979Y895139D02*
Y893446D01*
X885402Y890907D02*
Y892600D01*
X887095Y890907D01*
X887518D01*
X887941Y891330D01*
Y892176D01*
X887518Y892600D01*
X884979Y890060D02*
Y888368D01*
X887941Y887521D02*
X887518D01*
X886672Y886675D01*
X887518Y885828D01*
X887941D01*
X886672Y886675D02*
X885402D01*
X705700Y1013672D02*
X706546D01*
X706123D01*
Y1016211D01*
X705700Y1015788D01*
X707816D02*
X708239Y1016211D01*
X709086D01*
X709509Y1015788D01*
Y1014095D01*
X709086Y1013672D01*
X708239D01*
X707816Y1014095D01*
Y1015788D01*
X710355D02*
X710778Y1016211D01*
X711625D01*
X712048Y1015788D01*
Y1014095D01*
X711625Y1013672D01*
X710778D01*
X710355Y1014095D01*
Y1015788D01*
X712894Y1013672D02*
Y1015365D01*
X714164D01*
X714587Y1014942D01*
Y1013672D01*
X717126Y1016211D02*
X715434D01*
Y1014942D01*
X716280D01*
X715434D01*
Y1013672D01*
X717973Y1013249D02*
X719666D01*
X720512Y1013672D02*
X721358D01*
X720935D01*
Y1016211D01*
X720512Y1015788D01*
X722628Y1013249D02*
X724321D01*
X725167Y1016211D02*
Y1015788D01*
X726014Y1014942D01*
X726860Y1015788D01*
Y1016211D01*
X726014Y1014942D02*
Y1013672D01*
X826348Y870162D02*
X824656D01*
X826348Y871855D01*
Y872278D01*
X825925Y872701D01*
X825079D01*
X824656Y872278D01*
X828888Y870162D02*
X827195D01*
X828888Y871855D01*
Y872278D01*
X828464Y872701D01*
X827618D01*
X827195Y872278D01*
X829734Y870162D02*
Y871855D01*
X831004D01*
X831427Y871432D01*
Y870162D01*
X833966Y872701D02*
X832273D01*
Y871432D01*
X833120D01*
X832273D01*
Y870162D01*
X834812Y869739D02*
X836505D01*
X837352Y872701D02*
Y872278D01*
X838198Y871432D01*
X839044Y872278D01*
Y872701D01*
X838198Y871432D02*
Y870162D01*
X734700Y810472D02*
X735546D01*
X735123D01*
Y813011D01*
X734700Y812588D01*
X736816D02*
X737239Y813011D01*
X738085D01*
X738509Y812588D01*
Y810895D01*
X738085Y810472D01*
X737239D01*
X736816Y810895D01*
Y812588D01*
X739355Y810472D02*
Y813011D01*
Y811318D02*
X740624Y812165D01*
X739355Y811318D02*
X740624Y810472D01*
X741894Y810049D02*
X743587D01*
X744433Y813011D02*
Y810472D01*
X745703D01*
X746126Y810895D01*
Y812588D01*
X745703Y813011D01*
X744433D01*
X746972Y812165D02*
Y810472D01*
Y811318D01*
X747396Y811742D01*
X747819Y812165D01*
X748242D01*
X749512Y810049D02*
X751204D01*
X753744Y813011D02*
X752051D01*
Y810472D01*
X753744D01*
X752051Y811742D02*
X752897D01*
X754590Y810472D02*
Y812165D01*
X755860D01*
X756283Y811742D01*
Y810472D01*
X757129Y813011D02*
Y810472D01*
X758399D01*
X758822Y810895D01*
Y811318D01*
Y811742D01*
X758399Y812165D01*
X757129D01*
X759668Y810049D02*
X761361D01*
X762207Y813011D02*
Y812588D01*
X763054Y811742D01*
X763900Y812588D01*
Y813011D01*
X763054Y811742D02*
Y810472D01*
X778722Y850263D02*
X781261D01*
X779992Y851532D01*
Y849839D01*
X778722Y848993D02*
X779145D01*
Y848570D01*
X778722D01*
Y848993D01*
X781261Y846877D02*
Y845184D01*
X780838D01*
X779145Y846877D01*
X778722D01*
X780415Y844338D02*
X779145D01*
X778722Y843915D01*
Y842645D01*
X780415D01*
X781261Y840106D02*
Y841799D01*
X779992D01*
Y840952D01*
Y841799D01*
X778722D01*
X778299Y839260D02*
Y837567D01*
X781261Y836720D02*
X780838D01*
X779992Y835874D01*
X780838Y835028D01*
X781261D01*
X779992Y835874D02*
X778722D01*
X795866Y846453D02*
X796290Y846030D01*
Y845183D01*
X795866Y844760D01*
X794174D01*
X793750Y845183D01*
Y846030D01*
X794174Y846453D01*
X795866D01*
X793750Y843914D02*
X794174D01*
Y843490D01*
X793750D01*
Y843914D01*
Y840528D02*
X796290D01*
X795020Y841798D01*
Y840105D01*
X796290Y839258D02*
Y837566D01*
X795866D01*
X794174Y839258D01*
X793750D01*
Y836719D02*
X795443D01*
Y835450D01*
X795020Y835026D01*
X793750D01*
X796290Y832487D02*
Y834180D01*
X795020D01*
Y833334D01*
Y834180D01*
X793750D01*
X1070190Y1224280D02*
X1071882D01*
Y1223856D01*
X1070190Y1222164D01*
Y1221740D01*
X1071882D01*
X1072729Y1223010D02*
X1074422D01*
X1075268Y1224280D02*
Y1221740D01*
X1076538D01*
X1076961Y1222164D01*
Y1223856D01*
X1076538Y1224280D01*
X1075268D01*
X1077807Y1223433D02*
Y1221740D01*
Y1222587D01*
X1078230Y1223010D01*
X1078654Y1223433D01*
X1079077D01*
X1080346Y1221740D02*
X1081193D01*
X1080770D01*
Y1223433D01*
X1080346D01*
X1082462D02*
X1083309Y1221740D01*
X1084155Y1223433D01*
X1086271Y1221740D02*
X1085425D01*
X1085002Y1222164D01*
Y1223010D01*
X1085425Y1223433D01*
X1086271D01*
X1086694Y1223010D01*
Y1222587D01*
X1085002D01*
X1087541Y1223433D02*
Y1221740D01*
Y1222587D01*
X1087964Y1223010D01*
X1088387Y1223433D01*
X1088810D01*
X413814Y756073D02*
X415507Y753534D01*
Y756073D02*
X413814Y753534D01*
X416353Y754803D02*
X418046D01*
X420585Y755650D02*
X420162Y756073D01*
X419316D01*
X418893Y755650D01*
Y755226D01*
X419316Y754803D01*
X420162D01*
X420585Y754380D01*
Y753957D01*
X420162Y753534D01*
X419316D01*
X418893Y753957D01*
X421855Y755650D02*
Y755226D01*
X421432D01*
X422278D01*
X421855D01*
Y753957D01*
X422278Y753534D01*
X424817D02*
X423971D01*
X423548Y753957D01*
Y754803D01*
X423971Y755226D01*
X424817D01*
X425240Y754803D01*
Y754380D01*
X423548D01*
X426087Y752687D02*
Y755226D01*
X427356D01*
X427780Y754803D01*
Y753957D01*
X427356Y753534D01*
X426087D01*
X428626Y752687D02*
Y755226D01*
X429896D01*
X430319Y754803D01*
Y753957D01*
X429896Y753534D01*
X428626D01*
X432435D02*
X431588D01*
X431165Y753957D01*
Y754803D01*
X431588Y755226D01*
X432435D01*
X432858Y754803D01*
Y754380D01*
X431165D01*
X433704Y755226D02*
Y753534D01*
Y754380D01*
X434128Y754803D01*
X434551Y755226D01*
X434974D01*
X438783Y753534D02*
Y756073D01*
X439629Y755226D01*
X440476Y756073D01*
Y753534D01*
X441745D02*
X442592D01*
X443015Y753957D01*
Y754803D01*
X442592Y755226D01*
X441745D01*
X441322Y754803D01*
Y753957D01*
X441745Y753534D01*
X444284Y755650D02*
Y755226D01*
X443861D01*
X444707D01*
X444284D01*
Y753957D01*
X444707Y753534D01*
X446400D02*
X447247D01*
X447670Y753957D01*
Y754803D01*
X447247Y755226D01*
X446400D01*
X445977Y754803D01*
Y753957D01*
X446400Y753534D01*
X448516Y755226D02*
Y753534D01*
Y754380D01*
X448940Y754803D01*
X449363Y755226D01*
X449786D01*
X356450Y1224280D02*
X358142Y1221740D01*
Y1224280D02*
X356450Y1221740D01*
X358989Y1223010D02*
X360682D01*
X361528Y1224280D02*
Y1221740D01*
X362798D01*
X363221Y1222164D01*
Y1223856D01*
X362798Y1224280D01*
X361528D01*
X364067Y1223433D02*
Y1221740D01*
Y1222587D01*
X364490Y1223010D01*
X364914Y1223433D01*
X365337D01*
X366606Y1221740D02*
X367453D01*
X367030D01*
Y1223433D01*
X366606D01*
X368722D02*
X369569Y1221740D01*
X370415Y1223433D01*
X372531Y1221740D02*
X371685D01*
X371262Y1222164D01*
Y1223010D01*
X371685Y1223433D01*
X372531D01*
X372954Y1223010D01*
Y1222587D01*
X371262D01*
X373801Y1223433D02*
Y1221740D01*
Y1222587D01*
X374224Y1223010D01*
X374647Y1223433D01*
X375070D01*
X1483577Y754803D02*
X1481884D01*
Y752264D01*
X1483577D01*
X1481884Y753533D02*
X1482731D01*
X1484423D02*
X1486116D01*
X1488655Y754380D02*
X1488232Y754803D01*
X1487386D01*
X1486962Y754380D01*
Y753956D01*
X1487386Y753533D01*
X1488232D01*
X1488655Y753110D01*
Y752687D01*
X1488232Y752264D01*
X1487386D01*
X1486962Y752687D01*
X1489925Y754380D02*
Y753956D01*
X1489502D01*
X1490348D01*
X1489925D01*
Y752687D01*
X1490348Y752264D01*
X1492887D02*
X1492041D01*
X1491618Y752687D01*
Y753533D01*
X1492041Y753956D01*
X1492887D01*
X1493310Y753533D01*
Y753110D01*
X1491618D01*
X1494157Y751417D02*
Y753956D01*
X1495426D01*
X1495850Y753533D01*
Y752687D01*
X1495426Y752264D01*
X1494157D01*
X1496696Y751417D02*
Y753956D01*
X1497966D01*
X1498389Y753533D01*
Y752687D01*
X1497966Y752264D01*
X1496696D01*
X1500505D02*
X1499658D01*
X1499235Y752687D01*
Y753533D01*
X1499658Y753956D01*
X1500505D01*
X1500928Y753533D01*
Y753110D01*
X1499235D01*
X1501774Y753956D02*
Y752264D01*
Y753110D01*
X1502198Y753533D01*
X1502621Y753956D01*
X1503044D01*
X1506853Y752264D02*
Y754803D01*
X1507699Y753956D01*
X1508546Y754803D01*
Y752264D01*
X1509815D02*
X1510661D01*
X1511085Y752687D01*
Y753533D01*
X1510661Y753956D01*
X1509815D01*
X1509392Y753533D01*
Y752687D01*
X1509815Y752264D01*
X1512354Y754380D02*
Y753956D01*
X1511931D01*
X1512778D01*
X1512354D01*
Y752687D01*
X1512778Y752264D01*
X1514470D02*
X1515317D01*
X1515740Y752687D01*
Y753533D01*
X1515317Y753956D01*
X1514470D01*
X1514047Y753533D01*
Y752687D01*
X1514470Y752264D01*
X1516586Y753956D02*
Y752264D01*
Y753110D01*
X1517009Y753533D01*
X1517433Y753956D01*
X1517856D01*
X1126284Y756073D02*
X1127977D01*
Y755650D01*
X1126284Y753957D01*
Y753534D01*
X1127977D01*
X1128823Y754803D02*
X1130516D01*
X1133055Y755650D02*
X1132632Y756073D01*
X1131786D01*
X1131363Y755650D01*
Y755226D01*
X1131786Y754803D01*
X1132632D01*
X1133055Y754380D01*
Y753957D01*
X1132632Y753534D01*
X1131786D01*
X1131363Y753957D01*
X1134325Y755650D02*
Y755226D01*
X1133902D01*
X1134748D01*
X1134325D01*
Y753957D01*
X1134748Y753534D01*
X1137287D02*
X1136441D01*
X1136018Y753957D01*
Y754803D01*
X1136441Y755226D01*
X1137287D01*
X1137710Y754803D01*
Y754380D01*
X1136018D01*
X1138557Y752687D02*
Y755226D01*
X1139826D01*
X1140250Y754803D01*
Y753957D01*
X1139826Y753534D01*
X1138557D01*
X1141096Y752687D02*
Y755226D01*
X1142366D01*
X1142789Y754803D01*
Y753957D01*
X1142366Y753534D01*
X1141096D01*
X1144905D02*
X1144058D01*
X1143635Y753957D01*
Y754803D01*
X1144058Y755226D01*
X1144905D01*
X1145328Y754803D01*
Y754380D01*
X1143635D01*
X1146174Y755226D02*
Y753534D01*
Y754380D01*
X1146598Y754803D01*
X1147021Y755226D01*
X1147444D01*
X1151253Y753534D02*
Y756073D01*
X1152099Y755226D01*
X1152945Y756073D01*
Y753534D01*
X1154215D02*
X1155061D01*
X1155485Y753957D01*
Y754803D01*
X1155061Y755226D01*
X1154215D01*
X1153792Y754803D01*
Y753957D01*
X1154215Y753534D01*
X1156754Y755650D02*
Y755226D01*
X1156331D01*
X1157178D01*
X1156754D01*
Y753957D01*
X1157178Y753534D01*
X1158870D02*
X1159717D01*
X1160140Y753957D01*
Y754803D01*
X1159717Y755226D01*
X1158870D01*
X1158447Y754803D01*
Y753957D01*
X1158870Y753534D01*
X1160986Y755226D02*
Y753534D01*
Y754380D01*
X1161410Y754803D01*
X1161833Y755226D01*
X1162256D01*
X1426212Y1224280D02*
X1424520D01*
Y1221740D01*
X1426212D01*
X1424520Y1223010D02*
X1425366D01*
X1427059D02*
X1428752D01*
X1429598Y1224280D02*
Y1221740D01*
X1430868D01*
X1431291Y1222164D01*
Y1223856D01*
X1430868Y1224280D01*
X1429598D01*
X1432137Y1223433D02*
Y1221740D01*
Y1222587D01*
X1432560Y1223010D01*
X1432984Y1223433D01*
X1433407D01*
X1434676Y1221740D02*
X1435523D01*
X1435100D01*
Y1223433D01*
X1434676D01*
X1436792D02*
X1437639Y1221740D01*
X1438485Y1223433D01*
X1440601Y1221740D02*
X1439755D01*
X1439332Y1222164D01*
Y1223010D01*
X1439755Y1223433D01*
X1440601D01*
X1441024Y1223010D01*
Y1222587D01*
X1439332D01*
X1441871Y1223433D02*
Y1221740D01*
Y1222587D01*
X1442294Y1223010D01*
X1442717Y1223433D01*
X1443140D01*
X454241Y977900D02*
X455934Y975360D01*
Y977900D02*
X454241Y975360D01*
X456780Y976630D02*
X458473D01*
X459319Y975360D02*
Y977053D01*
X460166Y977900D01*
X461012Y977053D01*
Y975360D01*
Y976630D01*
X459319D01*
X461858Y977053D02*
X463551Y975360D01*
X462705Y976207D01*
X463551Y977053D01*
X461858Y975360D01*
X464398D02*
X465244D01*
X464821D01*
Y977053D01*
X464398D01*
X466514Y975360D02*
X467783D01*
X468206Y975784D01*
X467783Y976207D01*
X466937D01*
X466514Y976630D01*
X466937Y977053D01*
X468206D01*
X473285Y977476D02*
X472862Y977900D01*
X472015D01*
X471592Y977476D01*
Y977053D01*
X472015Y976630D01*
X472862D01*
X473285Y976207D01*
Y975784D01*
X472862Y975360D01*
X472015D01*
X471592Y975784D01*
X474131Y975360D02*
Y977900D01*
X474978Y977053D01*
X475824Y977900D01*
Y975360D01*
X476670Y977900D02*
X477517D01*
X477094D01*
Y975360D01*
X476670D01*
X477517D01*
X480479Y977476D02*
X480056Y977900D01*
X479210D01*
X478786Y977476D01*
Y975784D01*
X479210Y975360D01*
X480056D01*
X480479Y975784D01*
X1506008Y1051980D02*
X1506431Y1052403D01*
Y1053250D01*
X1506008Y1053673D01*
X1504315D01*
X1503892Y1053250D01*
Y1052403D01*
X1504315Y1051980D01*
X1506431Y1049441D02*
Y1051133D01*
X1505162D01*
Y1050287D01*
Y1051133D01*
X1503892D01*
X1506008Y1046902D02*
X1506431Y1047325D01*
Y1048171D01*
X1506008Y1048594D01*
X1504315D01*
X1503892Y1048171D01*
Y1047325D01*
X1504315Y1046902D01*
X1505162D01*
Y1047748D01*
X1506008Y1046055D02*
X1506431Y1045632D01*
Y1044786D01*
X1506008Y1044362D01*
X1504315D01*
X1503892Y1044786D01*
Y1045632D01*
X1504315Y1046055D01*
X1506008D01*
X1503469Y1043516D02*
Y1041823D01*
X1506008Y1039284D02*
X1506431Y1039707D01*
Y1040554D01*
X1506008Y1040977D01*
X1504315D01*
X1503892Y1040554D01*
Y1039707D01*
X1504315Y1039284D01*
X1505162D01*
Y1040130D01*
X1503892Y1038438D02*
X1506431D01*
X1503892Y1036745D01*
X1506431D01*
Y1035898D02*
X1503892D01*
Y1034629D01*
X1504315Y1034206D01*
X1506008D01*
X1506431Y1034629D01*
Y1035898D01*
X1503469Y1033359D02*
Y1031666D01*
X1506431Y1029127D02*
Y1030820D01*
X1503892D01*
Y1029127D01*
X1505162Y1030820D02*
Y1029974D01*
X545893Y1005628D02*
X545470Y1006051D01*
X544623D01*
X544200Y1005628D01*
Y1003935D01*
X544623Y1003512D01*
X545470D01*
X545893Y1003935D01*
X548432Y1006051D02*
X546739D01*
Y1004782D01*
X547586D01*
X546739D01*
Y1003512D01*
X550971Y1005628D02*
X550548Y1006051D01*
X549702D01*
X549278Y1005628D01*
Y1003935D01*
X549702Y1003512D01*
X550548D01*
X550971Y1003935D01*
Y1004782D01*
X550125D01*
X551818Y1005628D02*
X552241Y1006051D01*
X553087D01*
X553510Y1005628D01*
Y1005205D01*
X553087Y1004782D01*
X552664D01*
X553087D01*
X553510Y1004358D01*
Y1003935D01*
X553087Y1003512D01*
X552241D01*
X551818Y1003935D01*
X554357Y1003089D02*
X556050D01*
X556896Y1006051D02*
Y1004358D01*
X557742Y1003512D01*
X558589Y1004358D01*
Y1006051D01*
X561128Y1005628D02*
X560705Y1006051D01*
X559858D01*
X559435Y1005628D01*
Y1003935D01*
X559858Y1003512D01*
X560705D01*
X561128Y1003935D01*
X563667Y1005628D02*
X563244Y1006051D01*
X562398D01*
X561974Y1005628D01*
Y1003935D01*
X562398Y1003512D01*
X563244D01*
X563667Y1003935D01*
X564514Y1003089D02*
X566206D01*
X567053Y1006051D02*
X567899D01*
X567476D01*
Y1003512D01*
X567053D01*
X567899D01*
X570438Y1006051D02*
X569592D01*
X569169Y1005628D01*
Y1003935D01*
X569592Y1003512D01*
X570438D01*
X570862Y1003935D01*
Y1005628D01*
X570438Y1006051D01*
X571708Y1003089D02*
X573401D01*
X574247Y1006051D02*
X575940Y1003512D01*
Y1006051D02*
X574247Y1003512D01*
X1373933Y849418D02*
X1373510Y849841D01*
X1372663D01*
X1372240Y849418D01*
Y847725D01*
X1372663Y847302D01*
X1373510D01*
X1373933Y847725D01*
X1376472Y849841D02*
X1374779D01*
Y848572D01*
X1375626D01*
X1374779D01*
Y847302D01*
X1379011Y849418D02*
X1378588Y849841D01*
X1377742D01*
X1377319Y849418D01*
Y847725D01*
X1377742Y847302D01*
X1378588D01*
X1379011Y847725D01*
Y848572D01*
X1378165D01*
X1381550Y849841D02*
X1379858D01*
Y848572D01*
X1380704Y848995D01*
X1381127D01*
X1381550Y848572D01*
Y847725D01*
X1381127Y847302D01*
X1380281D01*
X1379858Y847725D01*
X1382397Y846879D02*
X1384090D01*
X1384936Y849841D02*
Y848148D01*
X1385782Y847302D01*
X1386629Y848148D01*
Y849841D01*
X1389168Y849418D02*
X1388745Y849841D01*
X1387898D01*
X1387475Y849418D01*
Y847725D01*
X1387898Y847302D01*
X1388745D01*
X1389168Y847725D01*
X1391707Y849418D02*
X1391284Y849841D01*
X1390438D01*
X1390014Y849418D01*
Y847725D01*
X1390438Y847302D01*
X1391284D01*
X1391707Y847725D01*
X1392554Y846879D02*
X1394246D01*
X1395093Y849841D02*
X1395939D01*
X1395516D01*
Y847302D01*
X1395093D01*
X1395939D01*
X1398478Y849841D02*
X1397632D01*
X1397209Y849418D01*
Y847725D01*
X1397632Y847302D01*
X1398478D01*
X1398902Y847725D01*
Y849418D01*
X1398478Y849841D01*
X1399748Y846879D02*
X1401441D01*
X1403980Y849841D02*
X1402287D01*
Y847302D01*
X1403980D01*
X1402287Y848572D02*
X1403134D01*
X1561888Y1051768D02*
X1562311Y1052191D01*
Y1053038D01*
X1561888Y1053461D01*
X1560195D01*
X1559772Y1053038D01*
Y1052191D01*
X1560195Y1051768D01*
X1562311Y1049229D02*
Y1050922D01*
X1561042D01*
Y1050076D01*
Y1050922D01*
X1559772D01*
X1561888Y1046690D02*
X1562311Y1047113D01*
Y1047960D01*
X1561888Y1048383D01*
X1560195D01*
X1559772Y1047960D01*
Y1047113D01*
X1560195Y1046690D01*
X1561042D01*
Y1047536D01*
X1559772Y1045844D02*
Y1044997D01*
Y1045420D01*
X1562311D01*
X1561888Y1045844D01*
X1559349Y1043728D02*
Y1042035D01*
X1561888Y1039496D02*
X1562311Y1039919D01*
Y1040765D01*
X1561888Y1041188D01*
X1560195D01*
X1559772Y1040765D01*
Y1039919D01*
X1560195Y1039496D01*
X1561042D01*
Y1040342D01*
X1559772Y1038649D02*
X1562311D01*
X1559772Y1036956D01*
X1562311D01*
Y1036110D02*
X1559772D01*
Y1034840D01*
X1560195Y1034417D01*
X1561888D01*
X1562311Y1034840D01*
Y1036110D01*
X1559349Y1033571D02*
Y1031878D01*
X1562311Y1029339D02*
Y1031032D01*
X1559772D01*
Y1029339D01*
X1561042Y1031032D02*
Y1030185D01*
X467148Y1049227D02*
X467571Y1049650D01*
Y1050497D01*
X467148Y1050920D01*
X465455D01*
X465032Y1050497D01*
Y1049650D01*
X465455Y1049227D01*
X467571Y1046688D02*
Y1048381D01*
X466302D01*
Y1047534D01*
Y1048381D01*
X465032D01*
X467148Y1044149D02*
X467571Y1044572D01*
Y1045418D01*
X467148Y1045842D01*
X465455D01*
X465032Y1045418D01*
Y1044572D01*
X465455Y1044149D01*
X466302D01*
Y1044995D01*
X467148Y1043302D02*
X467571Y1042879D01*
Y1042033D01*
X467148Y1041609D01*
X465455D01*
X465032Y1042033D01*
Y1042879D01*
X465455Y1043302D01*
X467148D01*
X464609Y1040763D02*
Y1039070D01*
X467571Y1038224D02*
X465878D01*
X465032Y1037378D01*
X465878Y1036531D01*
X467571D01*
X467148Y1033992D02*
X467571Y1034415D01*
Y1035262D01*
X467148Y1035685D01*
X465455D01*
X465032Y1035262D01*
Y1034415D01*
X465455Y1033992D01*
X467148Y1031453D02*
X467571Y1031876D01*
Y1032722D01*
X467148Y1033146D01*
X465455D01*
X465032Y1032722D01*
Y1031876D01*
X465455Y1031453D01*
X464609Y1030606D02*
Y1028914D01*
X467571Y1028067D02*
Y1027221D01*
Y1027644D01*
X465032D01*
Y1028067D01*
Y1027221D01*
X467571Y1024682D02*
Y1025528D01*
X467148Y1025951D01*
X465455D01*
X465032Y1025528D01*
Y1024682D01*
X465455Y1024258D01*
X467148D01*
X467571Y1024682D01*
X464609Y1023412D02*
Y1021719D01*
X467571Y1020873D02*
X465032Y1019180D01*
X467571D02*
X465032Y1020873D01*
X304593Y859578D02*
X304170Y860001D01*
X303323D01*
X302900Y859578D01*
Y857885D01*
X303323Y857462D01*
X304170D01*
X304593Y857885D01*
X307132Y860001D02*
X305439D01*
Y858732D01*
X306286D01*
X305439D01*
Y857462D01*
X309671Y859578D02*
X309248Y860001D01*
X308402D01*
X307978Y859578D01*
Y857885D01*
X308402Y857462D01*
X309248D01*
X309671Y857885D01*
Y858732D01*
X308825D01*
X312211Y860001D02*
X310518D01*
Y858732D01*
X311364Y859155D01*
X311787D01*
X312211Y858732D01*
Y857885D01*
X311787Y857462D01*
X310941D01*
X310518Y857885D01*
X313057Y857039D02*
X314750D01*
X315596Y860001D02*
Y858308D01*
X316442Y857462D01*
X317289Y858308D01*
Y860001D01*
X319828Y859578D02*
X319405Y860001D01*
X318558D01*
X318135Y859578D01*
Y857885D01*
X318558Y857462D01*
X319405D01*
X319828Y857885D01*
X322367Y859578D02*
X321944Y860001D01*
X321098D01*
X320674Y859578D01*
Y857885D01*
X321098Y857462D01*
X321944D01*
X322367Y857885D01*
X323214Y857039D02*
X324906D01*
X325753Y860001D02*
X326599D01*
X326176D01*
Y857462D01*
X325753D01*
X326599D01*
X329138Y860001D02*
X328292D01*
X327869Y859578D01*
Y857885D01*
X328292Y857462D01*
X329138D01*
X329562Y857885D01*
Y859578D01*
X329138Y860001D01*
X330408Y857039D02*
X332101D01*
X332947Y860001D02*
X334640Y857462D01*
Y860001D02*
X332947Y857462D01*
X545893Y1061508D02*
X545470Y1061931D01*
X544623D01*
X544200Y1061508D01*
Y1059815D01*
X544623Y1059392D01*
X545470D01*
X545893Y1059815D01*
X548432Y1061931D02*
X546739D01*
Y1060662D01*
X547586D01*
X546739D01*
Y1059392D01*
X550971Y1061508D02*
X550548Y1061931D01*
X549702D01*
X549278Y1061508D01*
Y1059815D01*
X549702Y1059392D01*
X550548D01*
X550971Y1059815D01*
Y1060662D01*
X550125D01*
X553510Y1059392D02*
X551818D01*
X553510Y1061085D01*
Y1061508D01*
X553087Y1061931D01*
X552241D01*
X551818Y1061508D01*
X554357Y1058969D02*
X556050D01*
X556896Y1061931D02*
Y1060238D01*
X557742Y1059392D01*
X558589Y1060238D01*
Y1061931D01*
X561128Y1061508D02*
X560705Y1061931D01*
X559858D01*
X559435Y1061508D01*
Y1059815D01*
X559858Y1059392D01*
X560705D01*
X561128Y1059815D01*
X563667Y1061508D02*
X563244Y1061931D01*
X562398D01*
X561974Y1061508D01*
Y1059815D01*
X562398Y1059392D01*
X563244D01*
X563667Y1059815D01*
X564514Y1058969D02*
X566206D01*
X567053Y1061931D02*
X567899D01*
X567476D01*
Y1059392D01*
X567053D01*
X567899D01*
X570438Y1061931D02*
X569592D01*
X569169Y1061508D01*
Y1059815D01*
X569592Y1059392D01*
X570438D01*
X570862Y1059815D01*
Y1061508D01*
X570438Y1061931D01*
X571708Y1058969D02*
X573401D01*
X574247Y1061931D02*
X575940Y1059392D01*
Y1061931D02*
X574247Y1059392D01*
X495088Y1045418D02*
X495511Y1045842D01*
Y1046688D01*
X495088Y1047111D01*
X493395D01*
X492972Y1046688D01*
Y1045842D01*
X493395Y1045418D01*
X495511Y1042879D02*
Y1044572D01*
X494242D01*
Y1043726D01*
Y1044572D01*
X492972D01*
X495088Y1040340D02*
X495511Y1040763D01*
Y1041609D01*
X495088Y1042033D01*
X493395D01*
X492972Y1041609D01*
Y1040763D01*
X493395Y1040340D01*
X494242D01*
Y1041186D01*
X492972Y1039494D02*
Y1038647D01*
Y1039070D01*
X495511D01*
X495088Y1039494D01*
X492549Y1037378D02*
Y1035685D01*
X495088Y1033146D02*
X495511Y1033569D01*
Y1034415D01*
X495088Y1034838D01*
X493395D01*
X492972Y1034415D01*
Y1033569D01*
X493395Y1033146D01*
X494242D01*
Y1033992D01*
X492972Y1032299D02*
X495511D01*
X492972Y1030606D01*
X495511D01*
Y1029760D02*
X492972D01*
Y1028490D01*
X493395Y1028067D01*
X495088D01*
X495511Y1028490D01*
Y1029760D01*
X492549Y1027221D02*
Y1025528D01*
X495511Y1024682D02*
X492972Y1022989D01*
X495511D02*
X492972Y1024682D01*
X523028Y1049016D02*
X523451Y1049439D01*
Y1050285D01*
X523028Y1050708D01*
X521335D01*
X520912Y1050285D01*
Y1049439D01*
X521335Y1049016D01*
X523451Y1046476D02*
Y1048169D01*
X522182D01*
Y1047323D01*
Y1048169D01*
X520912D01*
X523028Y1043937D02*
X523451Y1044360D01*
Y1045207D01*
X523028Y1045630D01*
X521335D01*
X520912Y1045207D01*
Y1044360D01*
X521335Y1043937D01*
X522182D01*
Y1044783D01*
X520912Y1043091D02*
Y1042244D01*
Y1042667D01*
X523451D01*
X523028Y1043091D01*
X520489Y1040975D02*
Y1039282D01*
X523451Y1038436D02*
X521758D01*
X520912Y1037589D01*
X521758Y1036743D01*
X523451D01*
X523028Y1034204D02*
X523451Y1034627D01*
Y1035473D01*
X523028Y1035896D01*
X521335D01*
X520912Y1035473D01*
Y1034627D01*
X521335Y1034204D01*
X523028Y1031664D02*
X523451Y1032088D01*
Y1032934D01*
X523028Y1033357D01*
X521335D01*
X520912Y1032934D01*
Y1032088D01*
X521335Y1031664D01*
X520489Y1030818D02*
Y1029125D01*
X523451Y1028279D02*
Y1027432D01*
Y1027856D01*
X520912D01*
Y1028279D01*
Y1027432D01*
X523451Y1024893D02*
Y1025740D01*
X523028Y1026163D01*
X521335D01*
X520912Y1025740D01*
Y1024893D01*
X521335Y1024470D01*
X523028D01*
X523451Y1024893D01*
X520489Y1023624D02*
Y1021931D01*
X523451Y1021085D02*
X520912Y1019392D01*
X523451D02*
X520912Y1021085D01*
X1617560Y982768D02*
X1617137Y983191D01*
X1616290D01*
X1615867Y982768D01*
Y981075D01*
X1616290Y980652D01*
X1617137D01*
X1617560Y981075D01*
X1620099Y983191D02*
X1618407D01*
Y981922D01*
X1619253D01*
X1618407D01*
Y980652D01*
X1622638Y982768D02*
X1622215Y983191D01*
X1621369D01*
X1620946Y982768D01*
Y981075D01*
X1621369Y980652D01*
X1622215D01*
X1622638Y981075D01*
Y981922D01*
X1621792D01*
X1623485Y982768D02*
X1623908Y983191D01*
X1624754D01*
X1625178Y982768D01*
Y982345D01*
X1624754Y981922D01*
X1624331D01*
X1624754D01*
X1625178Y981498D01*
Y981075D01*
X1624754Y980652D01*
X1623908D01*
X1623485Y981075D01*
X1626024Y980229D02*
X1627717D01*
X1630256Y982768D02*
X1629833Y983191D01*
X1628986D01*
X1628563Y982768D01*
Y981075D01*
X1628986Y980652D01*
X1629833D01*
X1630256Y981075D01*
Y981922D01*
X1629410D01*
X1631102Y980652D02*
Y983191D01*
X1632795Y980652D01*
Y983191D01*
X1633642D02*
Y980652D01*
X1634911D01*
X1635334Y981075D01*
Y982768D01*
X1634911Y983191D01*
X1633642D01*
X1636181Y980229D02*
X1637874D01*
X1640413Y983191D02*
X1638720D01*
Y980652D01*
X1640413D01*
X1638720Y981922D02*
X1639566D01*
X1613963Y1066588D02*
X1613540Y1067011D01*
X1612693D01*
X1612270Y1066588D01*
Y1064895D01*
X1612693Y1064472D01*
X1613540D01*
X1613963Y1064895D01*
X1616502Y1067011D02*
X1614809D01*
Y1065742D01*
X1615656D01*
X1614809D01*
Y1064472D01*
X1619041Y1066588D02*
X1618618Y1067011D01*
X1617772D01*
X1617348Y1066588D01*
Y1064895D01*
X1617772Y1064472D01*
X1618618D01*
X1619041Y1064895D01*
Y1065742D01*
X1618195D01*
X1621580Y1064472D02*
X1619888D01*
X1621580Y1066165D01*
Y1066588D01*
X1621157Y1067011D01*
X1620311D01*
X1619888Y1066588D01*
X1622427Y1064049D02*
X1624120D01*
X1624966Y1067011D02*
Y1065318D01*
X1625812Y1064472D01*
X1626659Y1065318D01*
Y1067011D01*
X1629198Y1066588D02*
X1628775Y1067011D01*
X1627928D01*
X1627505Y1066588D01*
Y1064895D01*
X1627928Y1064472D01*
X1628775D01*
X1629198Y1064895D01*
X1631737Y1066588D02*
X1631314Y1067011D01*
X1630468D01*
X1630044Y1066588D01*
Y1064895D01*
X1630468Y1064472D01*
X1631314D01*
X1631737Y1064895D01*
X1632584Y1064049D02*
X1634276D01*
X1635123Y1067011D02*
X1635969D01*
X1635546D01*
Y1064472D01*
X1635123D01*
X1635969D01*
X1638508Y1067011D02*
X1637662D01*
X1637239Y1066588D01*
Y1064895D01*
X1637662Y1064472D01*
X1638508D01*
X1638931Y1064895D01*
Y1066588D01*
X1638508Y1067011D01*
X1639778Y1064049D02*
X1641471D01*
X1644010Y1067011D02*
X1642317D01*
Y1064472D01*
X1644010D01*
X1642317Y1065742D02*
X1643163D01*
X1376260Y884978D02*
X1375837Y885401D01*
X1374991D01*
X1374567Y884978D01*
Y883285D01*
X1374991Y882862D01*
X1375837D01*
X1376260Y883285D01*
X1378799Y885401D02*
X1377106D01*
Y884132D01*
X1377953D01*
X1377106D01*
Y882862D01*
X1381338Y884978D02*
X1380915Y885401D01*
X1380069D01*
X1379646Y884978D01*
Y883285D01*
X1380069Y882862D01*
X1380915D01*
X1381338Y883285D01*
Y884132D01*
X1380492D01*
X1383454Y882862D02*
Y885401D01*
X1382185Y884132D01*
X1383878D01*
X1384724Y882439D02*
X1386417D01*
X1388956Y884978D02*
X1388533Y885401D01*
X1387686D01*
X1387263Y884978D01*
Y883285D01*
X1387686Y882862D01*
X1388533D01*
X1388956Y883285D01*
Y884132D01*
X1388110D01*
X1389802Y882862D02*
Y885401D01*
X1391495Y882862D01*
Y885401D01*
X1392342D02*
Y882862D01*
X1393611D01*
X1394034Y883285D01*
Y884978D01*
X1393611Y885401D01*
X1392342D01*
X1394881Y882439D02*
X1396574D01*
X1399113Y885401D02*
X1397420D01*
Y882862D01*
X1399113D01*
X1397420Y884132D02*
X1398266D01*
X1589828Y1055366D02*
X1590251Y1055789D01*
Y1056635D01*
X1589828Y1057058D01*
X1588135D01*
X1587712Y1056635D01*
Y1055789D01*
X1588135Y1055366D01*
X1590251Y1052826D02*
Y1054519D01*
X1588982D01*
Y1053673D01*
Y1054519D01*
X1587712D01*
X1589828Y1050287D02*
X1590251Y1050710D01*
Y1051557D01*
X1589828Y1051980D01*
X1588135D01*
X1587712Y1051557D01*
Y1050710D01*
X1588135Y1050287D01*
X1588982D01*
Y1051133D01*
X1587712Y1049441D02*
Y1048594D01*
Y1049017D01*
X1590251D01*
X1589828Y1049441D01*
X1587289Y1047325D02*
Y1045632D01*
X1590251Y1044786D02*
X1588558D01*
X1587712Y1043939D01*
X1588558Y1043093D01*
X1590251D01*
X1589828Y1040554D02*
X1590251Y1040977D01*
Y1041823D01*
X1589828Y1042246D01*
X1588135D01*
X1587712Y1041823D01*
Y1040977D01*
X1588135Y1040554D01*
X1589828Y1038014D02*
X1590251Y1038438D01*
Y1039284D01*
X1589828Y1039707D01*
X1588135D01*
X1587712Y1039284D01*
Y1038438D01*
X1588135Y1038014D01*
X1587289Y1037168D02*
Y1035475D01*
X1590251Y1034629D02*
Y1033782D01*
Y1034206D01*
X1587712D01*
Y1034629D01*
Y1033782D01*
X1590251Y1031243D02*
Y1032090D01*
X1589828Y1032513D01*
X1588135D01*
X1587712Y1032090D01*
Y1031243D01*
X1588135Y1030820D01*
X1589828D01*
X1590251Y1031243D01*
X1587289Y1029974D02*
Y1028281D01*
X1590251Y1025742D02*
Y1027434D01*
X1587712D01*
Y1025742D01*
X1588982Y1027434D02*
Y1026588D01*
X1535218Y1055577D02*
X1535641Y1056000D01*
Y1056847D01*
X1535218Y1057270D01*
X1533525D01*
X1533102Y1056847D01*
Y1056000D01*
X1533525Y1055577D01*
X1535641Y1053038D02*
Y1054731D01*
X1534372D01*
Y1053884D01*
Y1054731D01*
X1533102D01*
X1535218Y1050499D02*
X1535641Y1050922D01*
Y1051768D01*
X1535218Y1052191D01*
X1533525D01*
X1533102Y1051768D01*
Y1050922D01*
X1533525Y1050499D01*
X1534372D01*
Y1051345D01*
X1535218Y1049652D02*
X1535641Y1049229D01*
Y1048383D01*
X1535218Y1047960D01*
X1533525D01*
X1533102Y1048383D01*
Y1049229D01*
X1533525Y1049652D01*
X1535218D01*
X1532679Y1047113D02*
Y1045420D01*
X1535641Y1044574D02*
X1533948D01*
X1533102Y1043728D01*
X1533948Y1042881D01*
X1535641D01*
X1535218Y1040342D02*
X1535641Y1040765D01*
Y1041612D01*
X1535218Y1042035D01*
X1533525D01*
X1533102Y1041612D01*
Y1040765D01*
X1533525Y1040342D01*
X1535218Y1037803D02*
X1535641Y1038226D01*
Y1039072D01*
X1535218Y1039496D01*
X1533525D01*
X1533102Y1039072D01*
Y1038226D01*
X1533525Y1037803D01*
X1532679Y1036956D02*
Y1035264D01*
X1535641Y1034417D02*
Y1033571D01*
Y1033994D01*
X1533102D01*
Y1034417D01*
Y1033571D01*
X1535641Y1031032D02*
Y1031878D01*
X1535218Y1032301D01*
X1533525D01*
X1533102Y1031878D01*
Y1031032D01*
X1533525Y1030609D01*
X1535218D01*
X1535641Y1031032D01*
X1532679Y1029762D02*
Y1028069D01*
X1535641Y1025530D02*
Y1027223D01*
X1533102D01*
Y1025530D01*
X1534372Y1027223D02*
Y1026376D01*
X1617560Y1038648D02*
X1617137Y1039071D01*
X1616290D01*
X1615867Y1038648D01*
Y1036955D01*
X1616290Y1036532D01*
X1617137D01*
X1617560Y1036955D01*
X1620099Y1039071D02*
X1618407D01*
Y1037802D01*
X1619253D01*
X1618407D01*
Y1036532D01*
X1622638Y1038648D02*
X1622215Y1039071D01*
X1621369D01*
X1620946Y1038648D01*
Y1036955D01*
X1621369Y1036532D01*
X1622215D01*
X1622638Y1036955D01*
Y1037802D01*
X1621792D01*
X1625178Y1036532D02*
X1623485D01*
X1625178Y1038225D01*
Y1038648D01*
X1624754Y1039071D01*
X1623908D01*
X1623485Y1038648D01*
X1626024Y1036109D02*
X1627717D01*
X1630256Y1038648D02*
X1629833Y1039071D01*
X1628986D01*
X1628563Y1038648D01*
Y1036955D01*
X1628986Y1036532D01*
X1629833D01*
X1630256Y1036955D01*
Y1037802D01*
X1629410D01*
X1631102Y1036532D02*
Y1039071D01*
X1632795Y1036532D01*
Y1039071D01*
X1633642D02*
Y1036532D01*
X1634911D01*
X1635334Y1036955D01*
Y1038648D01*
X1634911Y1039071D01*
X1633642D01*
X1636181Y1036109D02*
X1637874D01*
X1640413Y1039071D02*
X1638720D01*
Y1036532D01*
X1640413D01*
X1638720Y1037802D02*
X1639566D01*
X1612693Y1010708D02*
X1612270Y1011131D01*
X1611423D01*
X1611000Y1010708D01*
Y1009015D01*
X1611423Y1008592D01*
X1612270D01*
X1612693Y1009015D01*
X1615232Y1011131D02*
X1613539D01*
Y1009862D01*
X1614386D01*
X1613539D01*
Y1008592D01*
X1617771Y1010708D02*
X1617348Y1011131D01*
X1616502D01*
X1616078Y1010708D01*
Y1009015D01*
X1616502Y1008592D01*
X1617348D01*
X1617771Y1009015D01*
Y1009862D01*
X1616925D01*
X1618618Y1010708D02*
X1619041Y1011131D01*
X1619887D01*
X1620311Y1010708D01*
Y1010285D01*
X1619887Y1009862D01*
X1619464D01*
X1619887D01*
X1620311Y1009438D01*
Y1009015D01*
X1619887Y1008592D01*
X1619041D01*
X1618618Y1009015D01*
X1621157Y1008169D02*
X1622850D01*
X1623696Y1011131D02*
Y1009438D01*
X1624542Y1008592D01*
X1625389Y1009438D01*
Y1011131D01*
X1627928Y1010708D02*
X1627505Y1011131D01*
X1626658D01*
X1626235Y1010708D01*
Y1009015D01*
X1626658Y1008592D01*
X1627505D01*
X1627928Y1009015D01*
X1630467Y1010708D02*
X1630044Y1011131D01*
X1629198D01*
X1628774Y1010708D01*
Y1009015D01*
X1629198Y1008592D01*
X1630044D01*
X1630467Y1009015D01*
X1631314Y1008169D02*
X1633006D01*
X1633853Y1011131D02*
X1634699D01*
X1634276D01*
Y1008592D01*
X1633853D01*
X1634699D01*
X1637238Y1011131D02*
X1636392D01*
X1635969Y1010708D01*
Y1009015D01*
X1636392Y1008592D01*
X1637238D01*
X1637661Y1009015D01*
Y1010708D01*
X1637238Y1011131D01*
X1638508Y1008169D02*
X1640201D01*
X1642740Y1011131D02*
X1641047D01*
Y1008592D01*
X1642740D01*
X1641047Y1009862D02*
X1641893D01*
X1372663Y912918D02*
X1372240Y913341D01*
X1371393D01*
X1370970Y912918D01*
Y911225D01*
X1371393Y910802D01*
X1372240D01*
X1372663Y911225D01*
X1375202Y913341D02*
X1373509D01*
Y912072D01*
X1374356D01*
X1373509D01*
Y910802D01*
X1377741Y912918D02*
X1377318Y913341D01*
X1376472D01*
X1376048Y912918D01*
Y911225D01*
X1376472Y910802D01*
X1377318D01*
X1377741Y911225D01*
Y912072D01*
X1376895D01*
X1379857Y910802D02*
Y913341D01*
X1378588Y912072D01*
X1380280D01*
X1381127Y910379D02*
X1382820D01*
X1383666Y913341D02*
Y911648D01*
X1384512Y910802D01*
X1385359Y911648D01*
Y913341D01*
X1387898Y912918D02*
X1387475Y913341D01*
X1386628D01*
X1386205Y912918D01*
Y911225D01*
X1386628Y910802D01*
X1387475D01*
X1387898Y911225D01*
X1390437Y912918D02*
X1390014Y913341D01*
X1389168D01*
X1388744Y912918D01*
Y911225D01*
X1389168Y910802D01*
X1390014D01*
X1390437Y911225D01*
X1391284Y910379D02*
X1392976D01*
X1393823Y913341D02*
X1394669D01*
X1394246D01*
Y910802D01*
X1393823D01*
X1394669D01*
X1397208Y913341D02*
X1396362D01*
X1395939Y912918D01*
Y911225D01*
X1396362Y910802D01*
X1397208D01*
X1397632Y911225D01*
Y912918D01*
X1397208Y913341D01*
X1398478Y910379D02*
X1400171D01*
X1402710Y913341D02*
X1401017D01*
Y910802D01*
X1402710D01*
X1401017Y912072D02*
X1401864D01*
X1437428Y809410D02*
X1437851Y809833D01*
Y810679D01*
X1437428Y811103D01*
X1435735D01*
X1435312Y810679D01*
Y809833D01*
X1435735Y809410D01*
X1437851Y806871D02*
Y808564D01*
X1436582D01*
Y807717D01*
Y808564D01*
X1435312D01*
X1437428Y804332D02*
X1437851Y804755D01*
Y805601D01*
X1437428Y806024D01*
X1435735D01*
X1435312Y805601D01*
Y804755D01*
X1435735Y804332D01*
X1436582D01*
Y805178D01*
X1437851Y801792D02*
Y803485D01*
X1436582D01*
X1437005Y802639D01*
Y802216D01*
X1436582Y801792D01*
X1435735D01*
X1435312Y802216D01*
Y803062D01*
X1435735Y803485D01*
X1434889Y800946D02*
Y799253D01*
X1437428Y796714D02*
X1437851Y797137D01*
Y797984D01*
X1437428Y798407D01*
X1435735D01*
X1435312Y797984D01*
Y797137D01*
X1435735Y796714D01*
X1436582D01*
Y797560D01*
X1435312Y795868D02*
X1437851D01*
X1435312Y794175D01*
X1437851D01*
Y793328D02*
X1435312D01*
Y792059D01*
X1435735Y791636D01*
X1437428D01*
X1437851Y792059D01*
Y793328D01*
X1434889Y790789D02*
Y789096D01*
X1437851Y786557D02*
Y788250D01*
X1435312D01*
Y786557D01*
X1436582Y788250D02*
Y787404D01*
X1017063Y850688D02*
X1016640Y851111D01*
X1015793D01*
X1015370Y850688D01*
Y848995D01*
X1015793Y848572D01*
X1016640D01*
X1017063Y848995D01*
X1019602Y851111D02*
X1017909D01*
Y849842D01*
X1018756D01*
X1017909D01*
Y848572D01*
X1022141Y850688D02*
X1021718Y851111D01*
X1020872D01*
X1020449Y850688D01*
Y848995D01*
X1020872Y848572D01*
X1021718D01*
X1022141Y848995D01*
Y849842D01*
X1021295D01*
X1024680Y851111D02*
X1022988D01*
Y849842D01*
X1023834Y850265D01*
X1024257D01*
X1024680Y849842D01*
Y848995D01*
X1024257Y848572D01*
X1023411D01*
X1022988Y848995D01*
X1025527Y848149D02*
X1027220D01*
X1028066Y851111D02*
Y849418D01*
X1028912Y848572D01*
X1029759Y849418D01*
Y851111D01*
X1032298Y850688D02*
X1031875Y851111D01*
X1031028D01*
X1030605Y850688D01*
Y848995D01*
X1031028Y848572D01*
X1031875D01*
X1032298Y848995D01*
X1034837Y850688D02*
X1034414Y851111D01*
X1033568D01*
X1033144Y850688D01*
Y848995D01*
X1033568Y848572D01*
X1034414D01*
X1034837Y848995D01*
X1035684Y848149D02*
X1037376D01*
X1038223Y851111D02*
X1039069D01*
X1038646D01*
Y848572D01*
X1038223D01*
X1039069D01*
X1041608Y851111D02*
X1040762D01*
X1040339Y850688D01*
Y848995D01*
X1040762Y848572D01*
X1041608D01*
X1042031Y848995D01*
Y850688D01*
X1041608Y851111D01*
X1042878Y848149D02*
X1044571D01*
X1045417Y851111D02*
X1047110D01*
Y850688D01*
X1045417Y848995D01*
Y848572D01*
X1047110D01*
X1152948Y1051980D02*
X1153371Y1052403D01*
Y1053250D01*
X1152948Y1053673D01*
X1151255D01*
X1150832Y1053250D01*
Y1052403D01*
X1151255Y1051980D01*
X1153371Y1049441D02*
Y1051133D01*
X1152102D01*
Y1050287D01*
Y1051133D01*
X1150832D01*
X1152948Y1046902D02*
X1153371Y1047325D01*
Y1048171D01*
X1152948Y1048594D01*
X1151255D01*
X1150832Y1048171D01*
Y1047325D01*
X1151255Y1046902D01*
X1152102D01*
Y1047748D01*
X1152948Y1046055D02*
X1153371Y1045632D01*
Y1044786D01*
X1152948Y1044362D01*
X1151255D01*
X1150832Y1044786D01*
Y1045632D01*
X1151255Y1046055D01*
X1152948D01*
X1150409Y1043516D02*
Y1041823D01*
X1152948Y1039284D02*
X1153371Y1039707D01*
Y1040554D01*
X1152948Y1040977D01*
X1151255D01*
X1150832Y1040554D01*
Y1039707D01*
X1151255Y1039284D01*
X1152102D01*
Y1040130D01*
X1150832Y1038438D02*
X1153371D01*
X1150832Y1036745D01*
X1153371D01*
Y1035898D02*
X1150832D01*
Y1034629D01*
X1151255Y1034206D01*
X1152948D01*
X1153371Y1034629D01*
Y1035898D01*
X1150409Y1033359D02*
Y1031666D01*
X1153371Y1030820D02*
Y1029127D01*
X1152948D01*
X1151255Y1030820D01*
X1150832D01*
Y1029127D01*
X1208828Y1051768D02*
X1209251Y1052191D01*
Y1053038D01*
X1208828Y1053461D01*
X1207135D01*
X1206712Y1053038D01*
Y1052191D01*
X1207135Y1051768D01*
X1209251Y1049229D02*
Y1050922D01*
X1207982D01*
Y1050076D01*
Y1050922D01*
X1206712D01*
X1208828Y1046690D02*
X1209251Y1047113D01*
Y1047960D01*
X1208828Y1048383D01*
X1207135D01*
X1206712Y1047960D01*
Y1047113D01*
X1207135Y1046690D01*
X1207982D01*
Y1047536D01*
X1206712Y1045844D02*
Y1044997D01*
Y1045420D01*
X1209251D01*
X1208828Y1045844D01*
X1206289Y1043728D02*
Y1042035D01*
X1208828Y1039496D02*
X1209251Y1039919D01*
Y1040765D01*
X1208828Y1041188D01*
X1207135D01*
X1206712Y1040765D01*
Y1039919D01*
X1207135Y1039496D01*
X1207982D01*
Y1040342D01*
X1206712Y1038649D02*
X1209251D01*
X1206712Y1036956D01*
X1209251D01*
Y1036110D02*
X1206712D01*
Y1034840D01*
X1207135Y1034417D01*
X1208828D01*
X1209251Y1034840D01*
Y1036110D01*
X1206289Y1033571D02*
Y1031878D01*
X1209251Y1031032D02*
Y1029339D01*
X1208828D01*
X1207135Y1031032D01*
X1206712D01*
Y1029339D01*
X1263230Y1039918D02*
X1262807Y1040341D01*
X1261961D01*
X1261537Y1039918D01*
Y1038225D01*
X1261961Y1037802D01*
X1262807D01*
X1263230Y1038225D01*
X1265769Y1040341D02*
X1264077D01*
Y1039072D01*
X1264923D01*
X1264077D01*
Y1037802D01*
X1268308Y1039918D02*
X1267885Y1040341D01*
X1267039D01*
X1266616Y1039918D01*
Y1038225D01*
X1267039Y1037802D01*
X1267885D01*
X1268308Y1038225D01*
Y1039072D01*
X1267462D01*
X1270848Y1037802D02*
X1269155D01*
X1270848Y1039495D01*
Y1039918D01*
X1270424Y1040341D01*
X1269578D01*
X1269155Y1039918D01*
X1271694Y1037379D02*
X1273387D01*
X1275926Y1039918D02*
X1275503Y1040341D01*
X1274656D01*
X1274233Y1039918D01*
Y1038225D01*
X1274656Y1037802D01*
X1275503D01*
X1275926Y1038225D01*
Y1039072D01*
X1275080D01*
X1276772Y1037802D02*
Y1040341D01*
X1278465Y1037802D01*
Y1040341D01*
X1279312D02*
Y1037802D01*
X1280581D01*
X1281004Y1038225D01*
Y1039918D01*
X1280581Y1040341D01*
X1279312D01*
X1281851Y1037379D02*
X1283544D01*
X1284390Y1040341D02*
X1286083D01*
Y1039918D01*
X1284390Y1038225D01*
Y1037802D01*
X1286083D01*
X1259633Y1011978D02*
X1259210Y1012401D01*
X1258363D01*
X1257940Y1011978D01*
Y1010285D01*
X1258363Y1009862D01*
X1259210D01*
X1259633Y1010285D01*
X1262172Y1012401D02*
X1260479D01*
Y1011132D01*
X1261326D01*
X1260479D01*
Y1009862D01*
X1264711Y1011978D02*
X1264288Y1012401D01*
X1263442D01*
X1263018Y1011978D01*
Y1010285D01*
X1263442Y1009862D01*
X1264288D01*
X1264711Y1010285D01*
Y1011132D01*
X1263865D01*
X1265558Y1011978D02*
X1265981Y1012401D01*
X1266827D01*
X1267250Y1011978D01*
Y1011555D01*
X1266827Y1011132D01*
X1266404D01*
X1266827D01*
X1267250Y1010708D01*
Y1010285D01*
X1266827Y1009862D01*
X1265981D01*
X1265558Y1010285D01*
X1268097Y1009439D02*
X1269790D01*
X1270636Y1012401D02*
Y1010708D01*
X1271482Y1009862D01*
X1272329Y1010708D01*
Y1012401D01*
X1274868Y1011978D02*
X1274445Y1012401D01*
X1273598D01*
X1273175Y1011978D01*
Y1010285D01*
X1273598Y1009862D01*
X1274445D01*
X1274868Y1010285D01*
X1277407Y1011978D02*
X1276984Y1012401D01*
X1276138D01*
X1275714Y1011978D01*
Y1010285D01*
X1276138Y1009862D01*
X1276984D01*
X1277407Y1010285D01*
X1278254Y1009439D02*
X1279946D01*
X1280793Y1012401D02*
X1281639D01*
X1281216D01*
Y1009862D01*
X1280793D01*
X1281639D01*
X1284178Y1012401D02*
X1283332D01*
X1282909Y1011978D01*
Y1010285D01*
X1283332Y1009862D01*
X1284178D01*
X1284601Y1010285D01*
Y1011978D01*
X1284178Y1012401D01*
X1285448Y1009439D02*
X1287141D01*
X1287987Y1012401D02*
X1289680D01*
Y1011978D01*
X1287987Y1010285D01*
Y1009862D01*
X1289680D01*
X1023199Y886248D02*
X1022776Y886671D01*
X1021930D01*
X1021507Y886248D01*
Y884555D01*
X1021930Y884132D01*
X1022776D01*
X1023199Y884555D01*
X1025738Y886671D02*
X1024046D01*
Y885402D01*
X1024892D01*
X1024046D01*
Y884132D01*
X1028278Y886248D02*
X1027854Y886671D01*
X1027008D01*
X1026585Y886248D01*
Y884555D01*
X1027008Y884132D01*
X1027854D01*
X1028278Y884555D01*
Y885402D01*
X1027431D01*
X1030394Y884132D02*
Y886671D01*
X1029124Y885402D01*
X1030817D01*
X1031663Y883709D02*
X1033356D01*
X1035895Y886248D02*
X1035472Y886671D01*
X1034626D01*
X1034202Y886248D01*
Y884555D01*
X1034626Y884132D01*
X1035472D01*
X1035895Y884555D01*
Y885402D01*
X1035049D01*
X1036742Y884132D02*
Y886671D01*
X1038434Y884132D01*
Y886671D01*
X1039281D02*
Y884132D01*
X1040550D01*
X1040974Y884555D01*
Y886248D01*
X1040550Y886671D01*
X1039281D01*
X1236768Y1055366D02*
X1237191Y1055789D01*
Y1056635D01*
X1236768Y1057058D01*
X1235075D01*
X1234652Y1056635D01*
Y1055789D01*
X1235075Y1055366D01*
X1237191Y1052826D02*
Y1054519D01*
X1235922D01*
Y1053673D01*
Y1054519D01*
X1234652D01*
X1236768Y1050287D02*
X1237191Y1050710D01*
Y1051557D01*
X1236768Y1051980D01*
X1235075D01*
X1234652Y1051557D01*
Y1050710D01*
X1235075Y1050287D01*
X1235922D01*
Y1051133D01*
X1234652Y1049441D02*
Y1048594D01*
Y1049017D01*
X1237191D01*
X1236768Y1049441D01*
X1234229Y1047325D02*
Y1045632D01*
X1237191Y1044786D02*
X1235498D01*
X1234652Y1043939D01*
X1235498Y1043093D01*
X1237191D01*
X1236768Y1040554D02*
X1237191Y1040977D01*
Y1041823D01*
X1236768Y1042246D01*
X1235075D01*
X1234652Y1041823D01*
Y1040977D01*
X1235075Y1040554D01*
X1236768Y1038014D02*
X1237191Y1038438D01*
Y1039284D01*
X1236768Y1039707D01*
X1235075D01*
X1234652Y1039284D01*
Y1038438D01*
X1235075Y1038014D01*
X1234229Y1037168D02*
Y1035475D01*
X1237191Y1034629D02*
Y1033782D01*
Y1034206D01*
X1234652D01*
Y1034629D01*
Y1033782D01*
X1237191Y1031243D02*
Y1032090D01*
X1236768Y1032513D01*
X1235075D01*
X1234652Y1032090D01*
Y1031243D01*
X1235075Y1030820D01*
X1236768D01*
X1237191Y1031243D01*
X1234229Y1029974D02*
Y1028281D01*
X1237191Y1027434D02*
Y1025742D01*
X1236768D01*
X1235075Y1027434D01*
X1234652D01*
Y1025742D01*
X1053888Y811950D02*
X1054311Y812373D01*
Y813220D01*
X1053888Y813643D01*
X1052195D01*
X1051772Y813220D01*
Y812373D01*
X1052195Y811950D01*
X1054311Y809411D02*
Y811104D01*
X1053042D01*
Y810257D01*
Y811104D01*
X1051772D01*
X1053888Y806872D02*
X1054311Y807295D01*
Y808141D01*
X1053888Y808564D01*
X1052195D01*
X1051772Y808141D01*
Y807295D01*
X1052195Y806872D01*
X1053042D01*
Y807718D01*
X1054311Y804332D02*
Y806025D01*
X1053042D01*
X1053465Y805179D01*
Y804756D01*
X1053042Y804332D01*
X1052195D01*
X1051772Y804756D01*
Y805602D01*
X1052195Y806025D01*
X1051349Y803486D02*
Y801793D01*
X1053888Y799254D02*
X1054311Y799677D01*
Y800524D01*
X1053888Y800947D01*
X1052195D01*
X1051772Y800524D01*
Y799677D01*
X1052195Y799254D01*
X1053042D01*
Y800100D01*
X1051772Y798408D02*
X1054311D01*
X1051772Y796715D01*
X1054311D01*
Y795868D02*
X1051772D01*
Y794599D01*
X1052195Y794176D01*
X1053888D01*
X1054311Y794599D01*
Y795868D01*
X1051349Y793329D02*
Y791636D01*
X1054311Y790790D02*
Y789097D01*
X1053888D01*
X1052195Y790790D01*
X1051772D01*
Y789097D01*
X1259633Y1066588D02*
X1259210Y1067011D01*
X1258363D01*
X1257940Y1066588D01*
Y1064895D01*
X1258363Y1064472D01*
X1259210D01*
X1259633Y1064895D01*
X1262172Y1067011D02*
X1260479D01*
Y1065742D01*
X1261326D01*
X1260479D01*
Y1064472D01*
X1264711Y1066588D02*
X1264288Y1067011D01*
X1263442D01*
X1263018Y1066588D01*
Y1064895D01*
X1263442Y1064472D01*
X1264288D01*
X1264711Y1064895D01*
Y1065742D01*
X1263865D01*
X1267250Y1064472D02*
X1265558D01*
X1267250Y1066165D01*
Y1066588D01*
X1266827Y1067011D01*
X1265981D01*
X1265558Y1066588D01*
X1268097Y1064049D02*
X1269790D01*
X1270636Y1067011D02*
Y1065318D01*
X1271482Y1064472D01*
X1272329Y1065318D01*
Y1067011D01*
X1274868Y1066588D02*
X1274445Y1067011D01*
X1273598D01*
X1273175Y1066588D01*
Y1064895D01*
X1273598Y1064472D01*
X1274445D01*
X1274868Y1064895D01*
X1277407Y1066588D02*
X1276984Y1067011D01*
X1276138D01*
X1275714Y1066588D01*
Y1064895D01*
X1276138Y1064472D01*
X1276984D01*
X1277407Y1064895D01*
X1278254Y1064049D02*
X1279946D01*
X1280793Y1067011D02*
X1281639D01*
X1281216D01*
Y1064472D01*
X1280793D01*
X1281639D01*
X1284178Y1067011D02*
X1283332D01*
X1282909Y1066588D01*
Y1064895D01*
X1283332Y1064472D01*
X1284178D01*
X1284601Y1064895D01*
Y1066588D01*
X1284178Y1067011D01*
X1285448Y1064049D02*
X1287141D01*
X1287987Y1067011D02*
X1289680D01*
Y1066588D01*
X1287987Y1064895D01*
Y1064472D01*
X1289680D01*
X549490Y977688D02*
X549067Y978111D01*
X548220D01*
X547797Y977688D01*
Y975995D01*
X548220Y975572D01*
X549067D01*
X549490Y975995D01*
X552029Y978111D02*
X550336D01*
Y976842D01*
X551183D01*
X550336D01*
Y975572D01*
X554568Y977688D02*
X554145Y978111D01*
X553299D01*
X552876Y977688D01*
Y975995D01*
X553299Y975572D01*
X554145D01*
X554568Y975995D01*
Y976842D01*
X553722D01*
X555415Y977688D02*
X555838Y978111D01*
X556684D01*
X557108Y977688D01*
Y977265D01*
X556684Y976842D01*
X556261D01*
X556684D01*
X557108Y976418D01*
Y975995D01*
X556684Y975572D01*
X555838D01*
X555415Y975995D01*
X557954Y975149D02*
X559647D01*
X562186Y977688D02*
X561763Y978111D01*
X560916D01*
X560493Y977688D01*
Y975995D01*
X560916Y975572D01*
X561763D01*
X562186Y975995D01*
Y976842D01*
X561340D01*
X563032Y975572D02*
Y978111D01*
X564725Y975572D01*
Y978111D01*
X565572D02*
Y975572D01*
X566841D01*
X567264Y975995D01*
Y977688D01*
X566841Y978111D01*
X565572D01*
X568111Y975149D02*
X569804D01*
X570650Y978111D02*
X572343Y975572D01*
Y978111D02*
X570650Y975572D01*
X304593Y915458D02*
X304170Y915881D01*
X303323D01*
X302900Y915458D01*
Y913765D01*
X303323Y913342D01*
X304170D01*
X304593Y913765D01*
X307132Y915881D02*
X305439D01*
Y914612D01*
X306286D01*
X305439D01*
Y913342D01*
X309671Y915458D02*
X309248Y915881D01*
X308402D01*
X307978Y915458D01*
Y913765D01*
X308402Y913342D01*
X309248D01*
X309671Y913765D01*
Y914612D01*
X308825D01*
X311787Y913342D02*
Y915881D01*
X310518Y914612D01*
X312211D01*
X313057Y912919D02*
X314750D01*
X315596Y915881D02*
Y914188D01*
X316442Y913342D01*
X317289Y914188D01*
Y915881D01*
X319828Y915458D02*
X319405Y915881D01*
X318558D01*
X318135Y915458D01*
Y913765D01*
X318558Y913342D01*
X319405D01*
X319828Y913765D01*
X322367Y915458D02*
X321944Y915881D01*
X321098D01*
X320674Y915458D01*
Y913765D01*
X321098Y913342D01*
X321944D01*
X322367Y913765D01*
X323214Y912919D02*
X324906D01*
X325753Y915881D02*
X326599D01*
X326176D01*
Y913342D01*
X325753D01*
X326599D01*
X329138Y915881D02*
X328292D01*
X327869Y915458D01*
Y913765D01*
X328292Y913342D01*
X329138D01*
X329562Y913765D01*
Y915458D01*
X329138Y915881D01*
X330408Y912919D02*
X332101D01*
X332947Y915881D02*
X334640Y913342D01*
Y915881D02*
X332947Y913342D01*
X369358Y820840D02*
X369781Y821263D01*
Y822110D01*
X369358Y822533D01*
X367665D01*
X367242Y822110D01*
Y821263D01*
X367665Y820840D01*
X369781Y818301D02*
Y819994D01*
X368512D01*
Y819147D01*
Y819994D01*
X367242D01*
X369358Y815762D02*
X369781Y816185D01*
Y817031D01*
X369358Y817454D01*
X367665D01*
X367242Y817031D01*
Y816185D01*
X367665Y815762D01*
X368512D01*
Y816608D01*
X369781Y813222D02*
Y814915D01*
X368512D01*
X368935Y814069D01*
Y813646D01*
X368512Y813222D01*
X367665D01*
X367242Y813646D01*
Y814492D01*
X367665Y814915D01*
X366819Y812376D02*
Y810683D01*
X369358Y808144D02*
X369781Y808567D01*
Y809414D01*
X369358Y809837D01*
X367665D01*
X367242Y809414D01*
Y808567D01*
X367665Y808144D01*
X368512D01*
Y808990D01*
X367242Y807298D02*
X369781D01*
X367242Y805605D01*
X369781D01*
Y804758D02*
X367242D01*
Y803489D01*
X367665Y803066D01*
X369358D01*
X369781Y803489D01*
Y804758D01*
X366819Y802219D02*
Y800526D01*
X369781Y799680D02*
X367242Y797987D01*
X369781D02*
X367242Y799680D01*
X308190Y887518D02*
X307767Y887941D01*
X306921D01*
X306497Y887518D01*
Y885825D01*
X306921Y885402D01*
X307767D01*
X308190Y885825D01*
X310729Y887941D02*
X309037D01*
Y886672D01*
X309883D01*
X309037D01*
Y885402D01*
X313268Y887518D02*
X312845Y887941D01*
X311999D01*
X311576Y887518D01*
Y885825D01*
X311999Y885402D01*
X312845D01*
X313268Y885825D01*
Y886672D01*
X312422D01*
X315384Y885402D02*
Y887941D01*
X314115Y886672D01*
X315808D01*
X316654Y884979D02*
X318347D01*
X320886Y887518D02*
X320463Y887941D01*
X319616D01*
X319193Y887518D01*
Y885825D01*
X319616Y885402D01*
X320463D01*
X320886Y885825D01*
Y886672D01*
X320040D01*
X321732Y885402D02*
Y887941D01*
X323425Y885402D01*
Y887941D01*
X324272D02*
Y885402D01*
X325541D01*
X325964Y885825D01*
Y887518D01*
X325541Y887941D01*
X324272D01*
X326811Y884979D02*
X328504D01*
X329350Y887941D02*
X331043Y885402D01*
Y887941D02*
X329350Y885402D01*
X549490Y1033568D02*
X549067Y1033991D01*
X548220D01*
X547797Y1033568D01*
Y1031875D01*
X548220Y1031452D01*
X549067D01*
X549490Y1031875D01*
X552029Y1033991D02*
X550336D01*
Y1032722D01*
X551183D01*
X550336D01*
Y1031452D01*
X554568Y1033568D02*
X554145Y1033991D01*
X553299D01*
X552876Y1033568D01*
Y1031875D01*
X553299Y1031452D01*
X554145D01*
X554568Y1031875D01*
Y1032722D01*
X553722D01*
X557108Y1031452D02*
X555415D01*
X557108Y1033145D01*
Y1033568D01*
X556684Y1033991D01*
X555838D01*
X555415Y1033568D01*
X557954Y1031029D02*
X559647D01*
X562186Y1033568D02*
X561763Y1033991D01*
X560916D01*
X560493Y1033568D01*
Y1031875D01*
X560916Y1031452D01*
X561763D01*
X562186Y1031875D01*
Y1032722D01*
X561340D01*
X563032Y1031452D02*
Y1033991D01*
X564725Y1031452D01*
Y1033991D01*
X565572D02*
Y1031452D01*
X566841D01*
X567264Y1031875D01*
Y1033568D01*
X566841Y1033991D01*
X565572D01*
X568111Y1031029D02*
X569804D01*
X570650Y1033991D02*
X572343Y1031452D01*
Y1033991D02*
X570650Y1031452D01*
X1263230Y984038D02*
X1262807Y984461D01*
X1261961D01*
X1261537Y984038D01*
Y982345D01*
X1261961Y981922D01*
X1262807D01*
X1263230Y982345D01*
X1265769Y984461D02*
X1264077D01*
Y983192D01*
X1264923D01*
X1264077D01*
Y981922D01*
X1268308Y984038D02*
X1267885Y984461D01*
X1267039D01*
X1266616Y984038D01*
Y982345D01*
X1267039Y981922D01*
X1267885D01*
X1268308Y982345D01*
Y983192D01*
X1267462D01*
X1269155Y984038D02*
X1269578Y984461D01*
X1270424D01*
X1270848Y984038D01*
Y983615D01*
X1270424Y983192D01*
X1270001D01*
X1270424D01*
X1270848Y982768D01*
Y982345D01*
X1270424Y981922D01*
X1269578D01*
X1269155Y982345D01*
X1271694Y981499D02*
X1273387D01*
X1275926Y984038D02*
X1275503Y984461D01*
X1274656D01*
X1274233Y984038D01*
Y982345D01*
X1274656Y981922D01*
X1275503D01*
X1275926Y982345D01*
Y983192D01*
X1275080D01*
X1276772Y981922D02*
Y984461D01*
X1278465Y981922D01*
Y984461D01*
X1279312D02*
Y981922D01*
X1280581D01*
X1281004Y982345D01*
Y984038D01*
X1280581Y984461D01*
X1279312D01*
X1281851Y981499D02*
X1283544D01*
X1284390Y984461D02*
X1286083D01*
Y984038D01*
X1284390Y982345D01*
Y981922D01*
X1286083D01*
X1017063Y914188D02*
X1016640Y914611D01*
X1015793D01*
X1015370Y914188D01*
Y912495D01*
X1015793Y912072D01*
X1016640D01*
X1017063Y912495D01*
X1019602Y914611D02*
X1017909D01*
Y913342D01*
X1018756D01*
X1017909D01*
Y912072D01*
X1022141Y914188D02*
X1021718Y914611D01*
X1020872D01*
X1020449Y914188D01*
Y912495D01*
X1020872Y912072D01*
X1021718D01*
X1022141Y912495D01*
Y913342D01*
X1021295D01*
X1024257Y912072D02*
Y914611D01*
X1022988Y913342D01*
X1024680D01*
X1025527Y911649D02*
X1027220D01*
X1028066Y914611D02*
Y912918D01*
X1028912Y912072D01*
X1029759Y912918D01*
Y914611D01*
X1032298Y914188D02*
X1031875Y914611D01*
X1031028D01*
X1030605Y914188D01*
Y912495D01*
X1031028Y912072D01*
X1031875D01*
X1032298Y912495D01*
X1034837Y914188D02*
X1034414Y914611D01*
X1033568D01*
X1033144Y914188D01*
Y912495D01*
X1033568Y912072D01*
X1034414D01*
X1034837Y912495D01*
X1035684Y911649D02*
X1037376D01*
X1038223Y914611D02*
X1039069D01*
X1038646D01*
Y912072D01*
X1038223D01*
X1039069D01*
X1041608Y914611D02*
X1040762D01*
X1040339Y914188D01*
Y912495D01*
X1040762Y912072D01*
X1041608D01*
X1042031Y912495D01*
Y914188D01*
X1041608Y914611D01*
X1042878Y911649D02*
X1044571D01*
X1045417Y914611D02*
X1047110D01*
Y914188D01*
X1045417Y912495D01*
Y912072D01*
X1047110D01*
X439208Y1045630D02*
X439631Y1046053D01*
Y1046899D01*
X439208Y1047323D01*
X437515D01*
X437092Y1046899D01*
Y1046053D01*
X437515Y1045630D01*
X439631Y1043091D02*
Y1044783D01*
X438362D01*
Y1043937D01*
Y1044783D01*
X437092D01*
X439208Y1040552D02*
X439631Y1040975D01*
Y1041821D01*
X439208Y1042244D01*
X437515D01*
X437092Y1041821D01*
Y1040975D01*
X437515Y1040552D01*
X438362D01*
Y1041398D01*
X439208Y1039705D02*
X439631Y1039282D01*
Y1038436D01*
X439208Y1038012D01*
X437515D01*
X437092Y1038436D01*
Y1039282D01*
X437515Y1039705D01*
X439208D01*
X436669Y1037166D02*
Y1035473D01*
X439208Y1032934D02*
X439631Y1033357D01*
Y1034204D01*
X439208Y1034627D01*
X437515D01*
X437092Y1034204D01*
Y1033357D01*
X437515Y1032934D01*
X438362D01*
Y1033780D01*
X437092Y1032088D02*
X439631D01*
X437092Y1030395D01*
X439631D01*
Y1029548D02*
X437092D01*
Y1028279D01*
X437515Y1027856D01*
X439208D01*
X439631Y1028279D01*
Y1029548D01*
X436669Y1027009D02*
Y1025316D01*
X439631Y1024470D02*
X437092Y1022777D01*
X439631D02*
X437092Y1024470D01*
X1180888Y1055577D02*
X1181311Y1056000D01*
Y1056847D01*
X1180888Y1057270D01*
X1179195D01*
X1178772Y1056847D01*
Y1056000D01*
X1179195Y1055577D01*
X1181311Y1053038D02*
Y1054731D01*
X1180042D01*
Y1053884D01*
Y1054731D01*
X1178772D01*
X1180888Y1050499D02*
X1181311Y1050922D01*
Y1051768D01*
X1180888Y1052191D01*
X1179195D01*
X1178772Y1051768D01*
Y1050922D01*
X1179195Y1050499D01*
X1180042D01*
Y1051345D01*
X1180888Y1049652D02*
X1181311Y1049229D01*
Y1048383D01*
X1180888Y1047960D01*
X1179195D01*
X1178772Y1048383D01*
Y1049229D01*
X1179195Y1049652D01*
X1180888D01*
X1178349Y1047113D02*
Y1045420D01*
X1181311Y1044574D02*
X1179618D01*
X1178772Y1043728D01*
X1179618Y1042881D01*
X1181311D01*
X1180888Y1040342D02*
X1181311Y1040765D01*
Y1041612D01*
X1180888Y1042035D01*
X1179195D01*
X1178772Y1041612D01*
Y1040765D01*
X1179195Y1040342D01*
X1180888Y1037803D02*
X1181311Y1038226D01*
Y1039072D01*
X1180888Y1039496D01*
X1179195D01*
X1178772Y1039072D01*
Y1038226D01*
X1179195Y1037803D01*
X1178349Y1036956D02*
Y1035264D01*
X1181311Y1034417D02*
Y1033571D01*
Y1033994D01*
X1178772D01*
Y1034417D01*
Y1033571D01*
X1181311Y1031032D02*
Y1031878D01*
X1180888Y1032301D01*
X1179195D01*
X1178772Y1031878D01*
Y1031032D01*
X1179195Y1030609D01*
X1180888D01*
X1181311Y1031032D01*
X1178349Y1029762D02*
Y1028069D01*
X1181311Y1027223D02*
Y1025530D01*
X1180888D01*
X1179195Y1027223D01*
X1178772D01*
Y1025530D01*
X1372238Y953981D02*
Y951442D01*
X1373508D01*
X1373931Y951865D01*
Y952288D01*
X1373508Y952712D01*
X1372238D01*
X1373508D01*
X1373931Y953135D01*
Y953558D01*
X1373508Y953981D01*
X1372238D01*
X1374778Y951442D02*
Y953981D01*
X1376047D01*
X1376470Y953558D01*
Y952712D01*
X1376047Y952288D01*
X1374778D01*
X1375624D02*
X1376470Y951442D01*
X1377317Y953981D02*
Y951442D01*
X1378586D01*
X1379010Y951865D01*
Y952288D01*
X1378586Y952712D01*
X1377317D01*
X1378586D01*
X1379010Y953135D01*
Y953558D01*
X1378586Y953981D01*
X1377317D01*
X1379856Y951019D02*
X1381549D01*
X1382395Y953558D02*
X1382818Y953981D01*
X1383665D01*
X1384088Y953558D01*
Y951865D01*
X1383665Y951442D01*
X1382818D01*
X1382395Y951865D01*
Y953558D01*
X1384934Y951442D02*
Y951865D01*
X1385358D01*
Y951442D01*
X1384934D01*
X1388743D02*
X1387050D01*
X1388743Y953135D01*
Y953558D01*
X1388320Y953981D01*
X1387474D01*
X1387050Y953558D01*
X1389590Y951019D02*
X1391282D01*
X1393822Y953981D02*
X1392129D01*
Y951442D01*
X1393822D01*
X1392129Y952712D02*
X1392975D01*
X304169Y955251D02*
Y952712D01*
X305438D01*
X305862Y953135D01*
Y953558D01*
X305438Y953982D01*
X304169D01*
X305438D01*
X305862Y954405D01*
Y954828D01*
X305438Y955251D01*
X304169D01*
X306708Y952712D02*
Y955251D01*
X307978D01*
X308401Y954828D01*
Y953982D01*
X307978Y953558D01*
X306708D01*
X307554D02*
X308401Y952712D01*
X309247Y955251D02*
Y952712D01*
X310517D01*
X310940Y953135D01*
Y953558D01*
X310517Y953982D01*
X309247D01*
X310517D01*
X310940Y954405D01*
Y954828D01*
X310517Y955251D01*
X309247D01*
X311786Y952289D02*
X313479D01*
X314326Y954828D02*
X314749Y955251D01*
X315595D01*
X316018Y954828D01*
Y953135D01*
X315595Y952712D01*
X314749D01*
X314326Y953135D01*
Y954828D01*
X316865Y952712D02*
Y953135D01*
X317288D01*
Y952712D01*
X316865D01*
X320674D02*
X318981D01*
X320674Y954405D01*
Y954828D01*
X320250Y955251D01*
X319404D01*
X318981Y954828D01*
X323213Y955251D02*
X321520D01*
Y953982D01*
X322366Y954405D01*
X322790D01*
X323213Y953982D01*
Y953135D01*
X322790Y952712D01*
X321943D01*
X321520Y953135D01*
X324059Y952289D02*
X325752D01*
X326598Y955251D02*
X328291Y952712D01*
Y955251D02*
X326598Y952712D01*
X1015369Y955251D02*
Y952712D01*
X1016638D01*
X1017062Y953135D01*
Y953558D01*
X1016638Y953982D01*
X1015369D01*
X1016638D01*
X1017062Y954405D01*
Y954828D01*
X1016638Y955251D01*
X1015369D01*
X1017908Y952712D02*
Y955251D01*
X1019178D01*
X1019601Y954828D01*
Y953982D01*
X1019178Y953558D01*
X1017908D01*
X1018755D02*
X1019601Y952712D01*
X1020447Y955251D02*
Y952712D01*
X1021717D01*
X1022140Y953135D01*
Y953558D01*
X1021717Y953982D01*
X1020447D01*
X1021717D01*
X1022140Y954405D01*
Y954828D01*
X1021717Y955251D01*
X1020447D01*
X1022986Y952289D02*
X1024679D01*
X1025526Y954828D02*
X1025949Y955251D01*
X1026795D01*
X1027218Y954828D01*
Y953135D01*
X1026795Y952712D01*
X1025949D01*
X1025526Y953135D01*
Y954828D01*
X1028065Y952712D02*
Y953135D01*
X1028488D01*
Y952712D01*
X1028065D01*
X1031874D02*
X1030181D01*
X1031874Y954405D01*
Y954828D01*
X1031450Y955251D01*
X1030604D01*
X1030181Y954828D01*
X1034413Y955251D02*
X1032720D01*
Y953982D01*
X1033566Y954405D01*
X1033990D01*
X1034413Y953982D01*
Y953135D01*
X1033990Y952712D01*
X1033143D01*
X1032720Y953135D01*
X1035259Y952289D02*
X1036952D01*
X1037798Y955251D02*
X1039491D01*
Y954828D01*
X1037798Y953135D01*
Y952712D01*
X1039491D01*
X1577979Y953981D02*
Y951442D01*
X1579248D01*
X1579671Y951865D01*
Y952288D01*
X1579248Y952712D01*
X1577979D01*
X1579248D01*
X1579671Y953135D01*
Y953558D01*
X1579248Y953981D01*
X1577979D01*
X1580518Y951442D02*
Y953981D01*
X1581787D01*
X1582211Y953558D01*
Y952712D01*
X1581787Y952288D01*
X1580518D01*
X1581364D02*
X1582211Y951442D01*
X1583057D02*
Y953135D01*
X1583903Y953981D01*
X1584750Y953135D01*
Y951442D01*
Y952712D01*
X1583057D01*
X1585596Y951019D02*
X1587289D01*
X1588135Y953558D02*
X1588558Y953981D01*
X1589405D01*
X1589828Y953558D01*
Y951865D01*
X1589405Y951442D01*
X1588558D01*
X1588135Y951865D01*
Y953558D01*
X1590674Y951442D02*
Y951865D01*
X1591098D01*
Y951442D01*
X1590674D01*
X1594483D02*
X1592790D01*
X1594483Y953135D01*
Y953558D01*
X1594060Y953981D01*
X1593214D01*
X1592790Y953558D01*
X1595330Y951019D02*
X1597022D01*
X1599561Y953981D02*
X1597869D01*
Y951442D01*
X1599561D01*
X1597869Y952712D02*
X1598715D01*
X509909Y955251D02*
Y952712D01*
X511179D01*
X511602Y953135D01*
Y953558D01*
X511179Y953982D01*
X509909D01*
X511179D01*
X511602Y954405D01*
Y954828D01*
X511179Y955251D01*
X509909D01*
X512448Y952712D02*
Y955251D01*
X513718D01*
X514141Y954828D01*
Y953982D01*
X513718Y953558D01*
X512448D01*
X513294D02*
X514141Y952712D01*
X514987D02*
Y954405D01*
X515834Y955251D01*
X516680Y954405D01*
Y952712D01*
Y953982D01*
X514987D01*
X517526Y952289D02*
X519219D01*
X520066Y954828D02*
X520489Y955251D01*
X521335D01*
X521758Y954828D01*
Y953135D01*
X521335Y952712D01*
X520489D01*
X520066Y953135D01*
Y954828D01*
X522605Y952712D02*
Y953135D01*
X523028D01*
Y952712D01*
X522605D01*
X526414D02*
X524721D01*
X526414Y954405D01*
Y954828D01*
X525990Y955251D01*
X525144D01*
X524721Y954828D01*
X528953Y955251D02*
X527260D01*
Y953982D01*
X528106Y954405D01*
X528530D01*
X528953Y953982D01*
Y953135D01*
X528530Y952712D01*
X527683D01*
X527260Y953135D01*
X529799Y952289D02*
X531492D01*
X532338Y955251D02*
X534031Y952712D01*
Y955251D02*
X532338Y952712D01*
X1222379Y955251D02*
Y952712D01*
X1223649D01*
X1224072Y953135D01*
Y953558D01*
X1223649Y953982D01*
X1222379D01*
X1223649D01*
X1224072Y954405D01*
Y954828D01*
X1223649Y955251D01*
X1222379D01*
X1224918Y952712D02*
Y955251D01*
X1226188D01*
X1226611Y954828D01*
Y953982D01*
X1226188Y953558D01*
X1224918D01*
X1225764D02*
X1226611Y952712D01*
X1227457D02*
Y954405D01*
X1228304Y955251D01*
X1229150Y954405D01*
Y952712D01*
Y953982D01*
X1227457D01*
X1229996Y952289D02*
X1231689D01*
X1232536Y954828D02*
X1232959Y955251D01*
X1233805D01*
X1234228Y954828D01*
Y953135D01*
X1233805Y952712D01*
X1232959D01*
X1232536Y953135D01*
Y954828D01*
X1235075Y952712D02*
Y953135D01*
X1235498D01*
Y952712D01*
X1235075D01*
X1238884D02*
X1237191D01*
X1238884Y954405D01*
Y954828D01*
X1238460Y955251D01*
X1237614D01*
X1237191Y954828D01*
X1241423Y955251D02*
X1239730D01*
Y953982D01*
X1240576Y954405D01*
X1241000D01*
X1241423Y953982D01*
Y953135D01*
X1241000Y952712D01*
X1240153D01*
X1239730Y953135D01*
X1242269Y952289D02*
X1243962D01*
X1244808Y955251D02*
X1246501D01*
Y954828D01*
X1244808Y953135D01*
Y952712D01*
X1246501D01*
X348830Y1014942D02*
X349677D01*
X349253D01*
Y1017481D01*
X348830Y1017058D01*
X350946D02*
X351369Y1017481D01*
X352216D01*
X352639Y1017058D01*
Y1015365D01*
X352216Y1014942D01*
X351369D01*
X350946Y1015365D01*
Y1017058D01*
X353485D02*
X353908Y1017481D01*
X354755D01*
X355178Y1017058D01*
Y1015365D01*
X354755Y1014942D01*
X353908D01*
X353485Y1015365D01*
Y1017058D01*
X356024Y1014942D02*
Y1016635D01*
X357294D01*
X357717Y1016212D01*
Y1014942D01*
X360256Y1017481D02*
X358564D01*
Y1016212D01*
X359410D01*
X358564D01*
Y1014942D01*
X361103Y1014519D02*
X362796D01*
X363642Y1014942D02*
X364488D01*
X364065D01*
Y1017481D01*
X363642Y1017058D01*
X365758Y1014519D02*
X367451D01*
X368297Y1017481D02*
X369990Y1014942D01*
Y1017481D02*
X368297Y1014942D01*
X1447170Y807932D02*
X1448016D01*
X1447593D01*
Y810471D01*
X1447170Y810048D01*
X1449286D02*
X1449709Y810471D01*
X1450555D01*
X1450979Y810048D01*
Y808355D01*
X1450555Y807932D01*
X1449709D01*
X1449286Y808355D01*
Y810048D01*
X1451825Y807932D02*
Y810471D01*
Y808778D02*
X1453094Y809625D01*
X1451825Y808778D02*
X1453094Y807932D01*
X1454364Y807509D02*
X1456057D01*
X1456903Y810471D02*
Y807932D01*
X1458173D01*
X1458596Y808355D01*
Y810048D01*
X1458173Y810471D01*
X1456903D01*
X1459442Y809625D02*
Y807932D01*
Y808778D01*
X1459866Y809202D01*
X1460289Y809625D01*
X1460712D01*
X1461982Y807509D02*
X1463674D01*
X1466214Y810471D02*
X1464521D01*
Y807932D01*
X1466214D01*
X1464521Y809202D02*
X1465367D01*
X1467060Y807932D02*
Y809625D01*
X1468330D01*
X1468753Y809202D01*
Y807932D01*
X1469599Y810471D02*
Y807932D01*
X1470869D01*
X1471292Y808355D01*
Y808778D01*
Y809202D01*
X1470869Y809625D01*
X1469599D01*
X1472138Y807509D02*
X1473831D01*
X1476370Y810471D02*
X1474677D01*
Y807932D01*
X1476370D01*
X1474677Y809202D02*
X1475524D01*
X1615652Y908681D02*
Y907835D01*
Y908258D01*
X1618191D01*
X1617768Y908681D01*
Y906565D02*
X1618191Y906142D01*
Y905296D01*
X1617768Y904873D01*
X1616075D01*
X1615652Y905296D01*
Y906142D01*
X1616075Y906565D01*
X1617768D01*
Y904026D02*
X1618191Y903603D01*
Y902757D01*
X1617768Y902334D01*
X1616075D01*
X1615652Y902757D01*
Y903603D01*
X1616075Y904026D01*
X1617768D01*
X1615652Y901487D02*
X1617345D01*
Y900218D01*
X1616922Y899794D01*
X1615652D01*
X1618191Y897255D02*
Y898948D01*
X1616922D01*
Y898102D01*
Y898948D01*
X1615652D01*
X1615229Y896409D02*
Y894716D01*
X1617768Y893870D02*
X1618191Y893446D01*
Y892600D01*
X1617768Y892177D01*
X1617345D01*
X1616922Y892600D01*
Y893023D01*
Y892600D01*
X1616498Y892177D01*
X1616075D01*
X1615652Y892600D01*
Y893446D01*
X1616075Y893870D01*
X1615229Y891330D02*
Y889638D01*
X1618191Y887098D02*
Y888791D01*
X1615652D01*
Y887098D01*
X1616922Y888791D02*
Y887945D01*
X528532Y908681D02*
Y907835D01*
Y908258D01*
X531071D01*
X530648Y908681D01*
Y906565D02*
X531071Y906142D01*
Y905296D01*
X530648Y904873D01*
X528955D01*
X528532Y905296D01*
Y906142D01*
X528955Y906565D01*
X530648D01*
Y904026D02*
X531071Y903603D01*
Y902757D01*
X530648Y902334D01*
X528955D01*
X528532Y902757D01*
Y903603D01*
X528955Y904026D01*
X530648D01*
X528532Y901487D02*
X530225D01*
Y900218D01*
X529802Y899794D01*
X528532D01*
X531071Y897255D02*
Y898948D01*
X529802D01*
Y898102D01*
Y898948D01*
X528532D01*
X528109Y896409D02*
Y894716D01*
X528532Y892177D02*
Y893870D01*
X530225Y892177D01*
X530648D01*
X531071Y892600D01*
Y893446D01*
X530648Y893870D01*
X528109Y891330D02*
Y889638D01*
X531071Y888791D02*
X528532Y887098D01*
X531071D02*
X528532Y888791D01*
X556472Y897252D02*
Y896406D01*
Y896829D01*
X559011D01*
X558588Y897252D01*
Y895136D02*
X559011Y894713D01*
Y893867D01*
X558588Y893444D01*
X556895D01*
X556472Y893867D01*
Y894713D01*
X556895Y895136D01*
X558588D01*
Y892597D02*
X559011Y892174D01*
Y891328D01*
X558588Y890904D01*
X556895D01*
X556472Y891328D01*
Y892174D01*
X556895Y892597D01*
X558588D01*
X558165Y890058D02*
X556895D01*
X556472Y889635D01*
Y888365D01*
X558165D01*
X559011Y885826D02*
Y887519D01*
X557742D01*
Y886672D01*
Y887519D01*
X556472D01*
X556049Y884980D02*
Y883287D01*
X559011Y882440D02*
X556472Y880748D01*
X559011D02*
X556472Y882440D01*
X508212Y908469D02*
Y907623D01*
Y908046D01*
X510751D01*
X510328Y908469D01*
Y906353D02*
X510751Y905930D01*
Y905083D01*
X510328Y904660D01*
X508635D01*
X508212Y905083D01*
Y905930D01*
X508635Y906353D01*
X510328D01*
Y903814D02*
X510751Y903391D01*
Y902544D01*
X510328Y902121D01*
X508635D01*
X508212Y902544D01*
Y903391D01*
X508635Y903814D01*
X510328D01*
X508212Y901275D02*
X509905D01*
Y900005D01*
X509482Y899582D01*
X508212D01*
X510751Y897043D02*
Y898736D01*
X509482D01*
Y897889D01*
Y898736D01*
X508212D01*
X507789Y896196D02*
Y894504D01*
X508212Y893657D02*
Y892811D01*
Y893234D01*
X510751D01*
X510328Y893657D01*
X510751Y889848D02*
X510328Y890695D01*
X509482Y891541D01*
X508635D01*
X508212Y891118D01*
Y890272D01*
X508635Y889848D01*
X509058D01*
X509482Y890272D01*
Y891541D01*
X510751Y889002D02*
X509058D01*
X508212Y888156D01*
X509058Y887309D01*
X510751D01*
X509482Y886463D02*
Y884770D01*
X510751Y883924D02*
X508212Y882231D01*
X510751D02*
X508212Y883924D01*
X1576282Y911009D02*
Y910163D01*
Y910586D01*
X1578821D01*
X1578398Y911009D01*
Y908893D02*
X1578821Y908470D01*
Y907624D01*
X1578398Y907200D01*
X1576705D01*
X1576282Y907624D01*
Y908470D01*
X1576705Y908893D01*
X1578398D01*
Y906354D02*
X1578821Y905931D01*
Y905084D01*
X1578398Y904661D01*
X1576705D01*
X1576282Y905084D01*
Y905931D01*
X1576705Y906354D01*
X1578398D01*
X1576282Y903815D02*
X1577975D01*
Y902545D01*
X1577552Y902122D01*
X1576282D01*
X1578821Y899583D02*
Y901276D01*
X1577552D01*
Y900429D01*
Y901276D01*
X1576282D01*
X1575859Y898736D02*
Y897044D01*
X1576282Y896197D02*
Y895351D01*
Y895774D01*
X1578821D01*
X1578398Y896197D01*
X1578821Y892388D02*
X1578398Y893235D01*
X1577552Y894081D01*
X1576705D01*
X1576282Y893658D01*
Y892812D01*
X1576705Y892388D01*
X1577128D01*
X1577552Y892812D01*
Y894081D01*
X1578821Y891542D02*
X1577128D01*
X1576282Y890696D01*
X1577128Y889849D01*
X1578821D01*
X1575859Y889003D02*
Y887310D01*
X1578821Y884771D02*
Y886464D01*
X1576282D01*
Y884771D01*
X1577552Y886464D02*
Y885617D01*
X1415630Y1013672D02*
X1416476D01*
X1416053D01*
Y1016211D01*
X1415630Y1015788D01*
X1417746D02*
X1418169Y1016211D01*
X1419016D01*
X1419439Y1015788D01*
Y1014095D01*
X1419016Y1013672D01*
X1418169D01*
X1417746Y1014095D01*
Y1015788D01*
X1420285D02*
X1420708Y1016211D01*
X1421555D01*
X1421978Y1015788D01*
Y1014095D01*
X1421555Y1013672D01*
X1420708D01*
X1420285Y1014095D01*
Y1015788D01*
X1422824Y1013672D02*
Y1015365D01*
X1424094D01*
X1424517Y1014942D01*
Y1013672D01*
X1427056Y1016211D02*
X1425364D01*
Y1014942D01*
X1426210D01*
X1425364D01*
Y1013672D01*
X1427903Y1013249D02*
X1429596D01*
X1430442Y1013672D02*
X1431288D01*
X1430865D01*
Y1016211D01*
X1430442Y1015788D01*
X1432558Y1013249D02*
X1434251D01*
X1436790Y1016211D02*
X1435097D01*
Y1013672D01*
X1436790D01*
X1435097Y1014942D02*
X1435944D01*
X1507278Y845182D02*
X1507701Y844759D01*
Y843912D01*
X1507278Y843489D01*
X1505585D01*
X1505162Y843912D01*
Y844759D01*
X1505585Y845182D01*
X1507278D01*
X1505162Y842643D02*
X1505585D01*
Y842219D01*
X1505162D01*
Y842643D01*
Y839257D02*
X1507701D01*
X1506432Y840527D01*
Y838834D01*
X1507701Y837988D02*
Y836295D01*
X1507278D01*
X1505585Y837988D01*
X1505162D01*
X1506855Y835448D02*
X1505585D01*
X1505162Y835025D01*
Y833756D01*
X1506855D01*
X1507701Y831216D02*
Y832909D01*
X1506432D01*
Y832063D01*
Y832909D01*
X1505162D01*
X1504739Y830370D02*
Y828677D01*
X1507701Y826138D02*
Y827831D01*
X1505162D01*
Y826138D01*
X1506432Y827831D02*
Y826984D01*
X1536278Y870162D02*
X1534586D01*
X1536278Y871855D01*
Y872278D01*
X1535855Y872701D01*
X1535009D01*
X1534586Y872278D01*
X1538818Y870162D02*
X1537125D01*
X1538818Y871855D01*
Y872278D01*
X1538394Y872701D01*
X1537548D01*
X1537125Y872278D01*
X1539664Y870162D02*
Y871855D01*
X1540934D01*
X1541357Y871432D01*
Y870162D01*
X1543896Y872701D02*
X1542203D01*
Y871432D01*
X1543050D01*
X1542203D01*
Y870162D01*
X1544742Y869739D02*
X1546435D01*
X1548974Y872701D02*
X1547282D01*
Y870162D01*
X1548974D01*
X1547282Y871432D02*
X1548128D01*
X1624542Y899792D02*
Y898946D01*
Y899369D01*
X1627081D01*
X1626658Y899792D01*
Y897676D02*
X1627081Y897253D01*
Y896407D01*
X1626658Y895984D01*
X1624965D01*
X1624542Y896407D01*
Y897253D01*
X1624965Y897676D01*
X1626658D01*
Y895137D02*
X1627081Y894714D01*
Y893868D01*
X1626658Y893444D01*
X1624965D01*
X1624542Y893868D01*
Y894714D01*
X1624965Y895137D01*
X1626658D01*
X1626235Y892598D02*
X1624965D01*
X1624542Y892175D01*
Y890905D01*
X1626235D01*
X1627081Y888366D02*
Y890059D01*
X1625812D01*
Y889212D01*
Y890059D01*
X1624542D01*
X1624119Y887520D02*
Y885827D01*
X1627081Y883288D02*
Y884980D01*
X1624542D01*
Y883288D01*
X1625812Y884980D02*
Y884134D01*
X1595332Y908681D02*
Y907835D01*
Y908258D01*
X1597871D01*
X1597448Y908681D01*
Y906565D02*
X1597871Y906142D01*
Y905296D01*
X1597448Y904873D01*
X1595755D01*
X1595332Y905296D01*
Y906142D01*
X1595755Y906565D01*
X1597448D01*
Y904026D02*
X1597871Y903603D01*
Y902757D01*
X1597448Y902334D01*
X1595755D01*
X1595332Y902757D01*
Y903603D01*
X1595755Y904026D01*
X1597448D01*
X1595332Y901487D02*
X1597025D01*
Y900218D01*
X1596602Y899794D01*
X1595332D01*
X1597871Y897255D02*
Y898948D01*
X1596602D01*
Y898102D01*
Y898948D01*
X1595332D01*
X1594909Y896409D02*
Y894716D01*
X1595332Y892177D02*
Y893870D01*
X1597025Y892177D01*
X1597448D01*
X1597871Y892600D01*
Y893446D01*
X1597448Y893870D01*
X1594909Y891330D02*
Y889638D01*
X1597871Y887098D02*
Y888791D01*
X1595332D01*
Y887098D01*
X1596602Y888791D02*
Y887945D01*
X1489922Y848993D02*
X1492461D01*
X1491192Y850262D01*
Y848569D01*
X1489922Y847723D02*
X1490345D01*
Y847300D01*
X1489922D01*
Y847723D01*
X1492461Y845607D02*
Y843914D01*
X1492038D01*
X1490345Y845607D01*
X1489922D01*
X1491615Y843068D02*
X1490345D01*
X1489922Y842645D01*
Y841375D01*
X1491615D01*
X1492461Y838836D02*
Y840529D01*
X1491192D01*
Y839682D01*
Y840529D01*
X1489922D01*
X1489499Y837990D02*
Y836297D01*
X1492461Y833758D02*
Y835450D01*
X1489922D01*
Y833758D01*
X1491192Y835450D02*
Y834604D01*
X469718Y868892D02*
X468026D01*
X469718Y870585D01*
Y871008D01*
X469295Y871431D01*
X468449D01*
X468026Y871008D01*
X472258Y868892D02*
X470565D01*
X472258Y870585D01*
Y871008D01*
X471834Y871431D01*
X470988D01*
X470565Y871008D01*
X473104Y868892D02*
Y870585D01*
X474374D01*
X474797Y870162D01*
Y868892D01*
X477336Y871431D02*
X475643D01*
Y870162D01*
X476490D01*
X475643D01*
Y868892D01*
X478182Y868469D02*
X479875D01*
X480722Y871431D02*
X482414Y868892D01*
Y871431D02*
X480722Y868892D01*
X1092840Y810472D02*
X1093686D01*
X1093263D01*
Y813011D01*
X1092840Y812588D01*
X1094956D02*
X1095379Y813011D01*
X1096225D01*
X1096648Y812588D01*
Y810895D01*
X1096225Y810472D01*
X1095379D01*
X1094956Y810895D01*
Y812588D01*
X1097495Y810472D02*
Y813011D01*
Y811318D02*
X1098764Y812165D01*
X1097495Y811318D02*
X1098764Y810472D01*
X1100034Y810049D02*
X1101727D01*
X1102573Y813011D02*
Y810472D01*
X1103843D01*
X1104266Y810895D01*
Y812588D01*
X1103843Y813011D01*
X1102573D01*
X1105112Y812165D02*
Y810472D01*
Y811318D01*
X1105536Y811742D01*
X1105959Y812165D01*
X1106382D01*
X1107652Y810049D02*
X1109344D01*
X1111884Y813011D02*
X1110191D01*
Y810472D01*
X1111884D01*
X1110191Y811742D02*
X1111037D01*
X1112730Y810472D02*
Y812165D01*
X1114000D01*
X1114423Y811742D01*
Y810472D01*
X1115269Y813011D02*
Y810472D01*
X1116539D01*
X1116962Y810895D01*
Y811318D01*
Y811742D01*
X1116539Y812165D01*
X1115269D01*
X1117808Y810049D02*
X1119501D01*
X1120348Y813011D02*
X1122040D01*
Y812588D01*
X1120348Y810895D01*
Y810472D01*
X1122040D01*
X1181948Y868892D02*
X1180256D01*
X1181948Y870585D01*
Y871008D01*
X1181525Y871431D01*
X1180679D01*
X1180256Y871008D01*
X1184488Y868892D02*
X1182795D01*
X1184488Y870585D01*
Y871008D01*
X1184064Y871431D01*
X1183218D01*
X1182795Y871008D01*
X1185334Y868892D02*
Y870585D01*
X1186604D01*
X1187027Y870162D01*
Y868892D01*
X1189566Y871431D02*
X1187873D01*
Y870162D01*
X1188720D01*
X1187873D01*
Y868892D01*
X1190412Y868469D02*
X1192105D01*
X1192952Y871431D02*
X1194644D01*
Y871008D01*
X1192952Y869315D01*
Y868892D01*
X1194644D01*
X1262592Y908681D02*
Y907835D01*
Y908258D01*
X1265131D01*
X1264708Y908681D01*
Y906565D02*
X1265131Y906142D01*
Y905296D01*
X1264708Y904873D01*
X1263015D01*
X1262592Y905296D01*
Y906142D01*
X1263015Y906565D01*
X1264708D01*
Y904026D02*
X1265131Y903603D01*
Y902757D01*
X1264708Y902334D01*
X1263015D01*
X1262592Y902757D01*
Y903603D01*
X1263015Y904026D01*
X1264708D01*
X1262592Y901487D02*
X1264285D01*
Y900218D01*
X1263862Y899794D01*
X1262592D01*
X1265131Y897255D02*
Y898948D01*
X1263862D01*
Y898102D01*
Y898948D01*
X1262592D01*
X1262169Y896409D02*
Y894716D01*
X1264708Y893870D02*
X1265131Y893446D01*
Y892600D01*
X1264708Y892177D01*
X1264285D01*
X1263862Y892600D01*
Y893023D01*
Y892600D01*
X1263438Y892177D01*
X1263015D01*
X1262592Y892600D01*
Y893446D01*
X1263015Y893870D01*
X1262169Y891330D02*
Y889638D01*
X1265131Y888791D02*
Y887098D01*
X1264708D01*
X1263015Y888791D01*
X1262592D01*
Y887098D01*
X1152948Y845182D02*
X1153371Y844759D01*
Y843912D01*
X1152948Y843489D01*
X1151255D01*
X1150832Y843912D01*
Y844759D01*
X1151255Y845182D01*
X1152948D01*
X1150832Y842643D02*
X1151255D01*
Y842219D01*
X1150832D01*
Y842643D01*
Y839257D02*
X1153371D01*
X1152102Y840527D01*
Y838834D01*
X1153371Y837988D02*
Y836295D01*
X1152948D01*
X1151255Y837988D01*
X1150832D01*
Y835448D02*
X1152525D01*
Y834179D01*
X1152102Y833756D01*
X1150832D01*
X1153371Y831216D02*
Y832909D01*
X1152102D01*
Y832063D01*
Y832909D01*
X1150832D01*
X1150409Y830370D02*
Y828677D01*
X1153371Y827831D02*
Y826138D01*
X1152948D01*
X1151255Y827831D01*
X1150832D01*
Y826138D01*
X1061300Y1013672D02*
X1062147D01*
X1061723D01*
Y1016211D01*
X1061300Y1015788D01*
X1063416D02*
X1063839Y1016211D01*
X1064686D01*
X1065109Y1015788D01*
Y1014095D01*
X1064686Y1013672D01*
X1063839D01*
X1063416Y1014095D01*
Y1015788D01*
X1065955D02*
X1066378Y1016211D01*
X1067225D01*
X1067648Y1015788D01*
Y1014095D01*
X1067225Y1013672D01*
X1066378D01*
X1065955Y1014095D01*
Y1015788D01*
X1068494Y1013672D02*
Y1015365D01*
X1069764D01*
X1070187Y1014942D01*
Y1013672D01*
X1072726Y1016211D02*
X1071034D01*
Y1014942D01*
X1071880D01*
X1071034D01*
Y1013672D01*
X1073573Y1013249D02*
X1075266D01*
X1076112Y1013672D02*
X1076958D01*
X1076535D01*
Y1016211D01*
X1076112Y1015788D01*
X1078228Y1013249D02*
X1079921D01*
X1080767Y1016211D02*
X1082460D01*
Y1015788D01*
X1080767Y1014095D01*
Y1013672D01*
X1082460D01*
X1220682Y911009D02*
Y910163D01*
Y910586D01*
X1223221D01*
X1222798Y911009D01*
Y908893D02*
X1223221Y908470D01*
Y907624D01*
X1222798Y907200D01*
X1221105D01*
X1220682Y907624D01*
Y908470D01*
X1221105Y908893D01*
X1222798D01*
Y906354D02*
X1223221Y905931D01*
Y905084D01*
X1222798Y904661D01*
X1221105D01*
X1220682Y905084D01*
Y905931D01*
X1221105Y906354D01*
X1222798D01*
X1220682Y903815D02*
X1222375D01*
Y902545D01*
X1221952Y902122D01*
X1220682D01*
X1223221Y899583D02*
Y901276D01*
X1221952D01*
Y900429D01*
Y901276D01*
X1220682D01*
X1220259Y898736D02*
Y897044D01*
X1220682Y896197D02*
Y895351D01*
Y895774D01*
X1223221D01*
X1222798Y896197D01*
X1223221Y892388D02*
X1222798Y893235D01*
X1221952Y894081D01*
X1221105D01*
X1220682Y893658D01*
Y892812D01*
X1221105Y892388D01*
X1221528D01*
X1221952Y892812D01*
Y894081D01*
X1223221Y891542D02*
X1221528D01*
X1220682Y890696D01*
X1221528Y889849D01*
X1223221D01*
X1220259Y889003D02*
Y887310D01*
X1223221Y886464D02*
Y884771D01*
X1222798D01*
X1221105Y886464D01*
X1220682D01*
Y884771D01*
X1270212Y899792D02*
Y898946D01*
Y899369D01*
X1272751D01*
X1272328Y899792D01*
Y897676D02*
X1272751Y897253D01*
Y896407D01*
X1272328Y895984D01*
X1270635D01*
X1270212Y896407D01*
Y897253D01*
X1270635Y897676D01*
X1272328D01*
Y895137D02*
X1272751Y894714D01*
Y893868D01*
X1272328Y893444D01*
X1270635D01*
X1270212Y893868D01*
Y894714D01*
X1270635Y895137D01*
X1272328D01*
X1271905Y892598D02*
X1270635D01*
X1270212Y892175D01*
Y890905D01*
X1271905D01*
X1272751Y888366D02*
Y890059D01*
X1271482D01*
Y889212D01*
Y890059D01*
X1270212D01*
X1269789Y887520D02*
Y885827D01*
X1272751Y884980D02*
Y883288D01*
X1272328D01*
X1270635Y884980D01*
X1270212D01*
Y883288D01*
X385450Y782532D02*
X386296D01*
X385873D01*
Y785071D01*
X385450Y784648D01*
X387566D02*
X387989Y785071D01*
X388835D01*
X389258Y784648D01*
Y782955D01*
X388835Y782532D01*
X387989D01*
X387566Y782955D01*
Y784648D01*
X390105Y782532D02*
Y785071D01*
Y783378D02*
X391375Y784225D01*
X390105Y783378D02*
X391375Y782532D01*
X392644Y782109D02*
X394337D01*
X395183Y785071D02*
Y782532D01*
X396453D01*
X396876Y782955D01*
Y784648D01*
X396453Y785071D01*
X395183D01*
X397722Y784225D02*
Y782532D01*
Y783378D01*
X398146Y783802D01*
X398569Y784225D01*
X398992D01*
X400262Y782109D02*
X401954D01*
X404494Y785071D02*
X402801D01*
Y782532D01*
X404494D01*
X402801Y783802D02*
X403647D01*
X405340Y782532D02*
Y784225D01*
X406610D01*
X407033Y783802D01*
Y782532D01*
X407879Y785071D02*
Y782532D01*
X409149D01*
X409572Y782955D01*
Y783378D01*
Y783802D01*
X409149Y784225D01*
X407879D01*
X410418Y782109D02*
X412111D01*
X412957Y785071D02*
X414650Y782532D01*
Y785071D02*
X412957Y782532D01*
X423122Y848993D02*
X425661D01*
X424392Y850262D01*
Y848569D01*
X423122Y847723D02*
X423545D01*
Y847300D01*
X423122D01*
Y847723D01*
X425661Y845607D02*
Y843914D01*
X425238D01*
X423545Y845607D01*
X423122D01*
X424815Y843068D02*
X423545D01*
X423122Y842645D01*
Y841375D01*
X424815D01*
X425661Y838836D02*
Y840529D01*
X424392D01*
Y839682D01*
Y840529D01*
X423122D01*
X422699Y837990D02*
Y836297D01*
X425661Y835450D02*
X423122Y833758D01*
X425661D02*
X423122Y835450D01*
X440478Y845182D02*
X440901Y844759D01*
Y843912D01*
X440478Y843489D01*
X438785D01*
X438362Y843912D01*
Y844759D01*
X438785Y845182D01*
X440478D01*
X438362Y842643D02*
X438785D01*
Y842219D01*
X438362D01*
Y842643D01*
Y839257D02*
X440901D01*
X439632Y840527D01*
Y838834D01*
X440901Y837988D02*
Y836295D01*
X440478D01*
X438785Y837988D01*
X438362D01*
Y835448D02*
X440055D01*
Y834179D01*
X439632Y833756D01*
X438362D01*
X440901Y831216D02*
Y832909D01*
X439632D01*
Y832063D01*
Y832909D01*
X438362D01*
X437939Y830370D02*
Y828677D01*
X440901Y827831D02*
X438362Y826138D01*
X440901D02*
X438362Y827831D01*
X1135592Y850263D02*
X1138131D01*
X1136862Y851532D01*
Y849839D01*
X1135592Y848993D02*
X1136015D01*
Y848570D01*
X1135592D01*
Y848993D01*
X1138131Y846877D02*
Y845184D01*
X1137708D01*
X1136015Y846877D01*
X1135592D01*
X1137285Y844338D02*
X1136015D01*
X1135592Y843915D01*
Y842645D01*
X1137285D01*
X1138131Y840106D02*
Y841799D01*
X1136862D01*
Y840952D01*
Y841799D01*
X1135592D01*
X1135169Y839260D02*
Y837567D01*
X1138131Y836720D02*
Y835028D01*
X1137708D01*
X1136015Y836720D01*
X1135592D01*
Y835028D01*
X1242272Y908681D02*
Y907835D01*
Y908258D01*
X1244811D01*
X1244388Y908681D01*
Y906565D02*
X1244811Y906142D01*
Y905296D01*
X1244388Y904873D01*
X1242695D01*
X1242272Y905296D01*
Y906142D01*
X1242695Y906565D01*
X1244388D01*
Y904026D02*
X1244811Y903603D01*
Y902757D01*
X1244388Y902334D01*
X1242695D01*
X1242272Y902757D01*
Y903603D01*
X1242695Y904026D01*
X1244388D01*
X1242272Y901487D02*
X1243965D01*
Y900218D01*
X1243542Y899794D01*
X1242272D01*
X1244811Y897255D02*
Y898948D01*
X1243542D01*
Y898102D01*
Y898948D01*
X1242272D01*
X1241849Y896409D02*
Y894716D01*
X1242272Y892177D02*
Y893870D01*
X1243965Y892177D01*
X1244388D01*
X1244811Y892600D01*
Y893446D01*
X1244388Y893870D01*
X1241849Y891330D02*
Y889638D01*
X1244811Y888791D02*
Y887098D01*
X1244388D01*
X1242695Y888791D01*
X1242272D01*
Y887098D01*
X547582Y908681D02*
Y907835D01*
Y908258D01*
X550121D01*
X549698Y908681D01*
Y906565D02*
X550121Y906142D01*
Y905296D01*
X549698Y904873D01*
X548005D01*
X547582Y905296D01*
Y906142D01*
X548005Y906565D01*
X549698D01*
Y904026D02*
X550121Y903603D01*
Y902757D01*
X549698Y902334D01*
X548005D01*
X547582Y902757D01*
Y903603D01*
X548005Y904026D01*
X549698D01*
X547582Y901487D02*
X549275D01*
Y900218D01*
X548852Y899794D01*
X547582D01*
X550121Y897255D02*
Y898948D01*
X548852D01*
Y898102D01*
Y898948D01*
X547582D01*
X547159Y896409D02*
Y894716D01*
X549698Y893870D02*
X550121Y893446D01*
Y892600D01*
X549698Y892177D01*
X549275D01*
X548852Y892600D01*
Y893023D01*
Y892600D01*
X548428Y892177D01*
X548005D01*
X547582Y892600D01*
Y893446D01*
X548005Y893870D01*
X547159Y891330D02*
Y889638D01*
X550121Y888791D02*
X547582Y887098D01*
X550121D02*
X547582Y888791D01*
D13*
X1430189Y987551D02*
X1428496D01*
Y985012D01*
X1430189D01*
X1428496Y986282D02*
X1429342D01*
X1431035D02*
X1432728D01*
X1433574Y985012D02*
Y986705D01*
X1434421Y987551D01*
X1435267Y986705D01*
Y985012D01*
Y986282D01*
X1433574D01*
X1436114Y986705D02*
X1437806Y985012D01*
X1436960Y985858D01*
X1437806Y986705D01*
X1436114Y985012D01*
X1438653D02*
X1439499D01*
X1439076D01*
Y986705D01*
X1438653D01*
X1440769Y985012D02*
X1442038D01*
X1442462Y985435D01*
X1442038Y985858D01*
X1441192D01*
X1440769Y986282D01*
X1441192Y986705D01*
X1442462D01*
X1447540Y987128D02*
X1447117Y987551D01*
X1446270D01*
X1445847Y987128D01*
Y986705D01*
X1446270Y986282D01*
X1447117D01*
X1447540Y985858D01*
Y985435D01*
X1447117Y985012D01*
X1446270D01*
X1445847Y985435D01*
X1448386Y985012D02*
Y987551D01*
X1449233Y986705D01*
X1450079Y987551D01*
Y985012D01*
X1450925Y987551D02*
X1451772D01*
X1451349D01*
Y985012D01*
X1450925D01*
X1451772D01*
X1454734Y987128D02*
X1454311Y987551D01*
X1453465D01*
X1453041Y987128D01*
Y985435D01*
X1453465Y985012D01*
X1454311D01*
X1454734Y985435D01*
X1165441Y977900D02*
X1167134D01*
Y977476D01*
X1165441Y975784D01*
Y975360D01*
X1167134D01*
X1167980Y976630D02*
X1169673D01*
X1170519Y975360D02*
Y977053D01*
X1171366Y977900D01*
X1172212Y977053D01*
Y975360D01*
Y976630D01*
X1170519D01*
X1173058Y977053D02*
X1174751Y975360D01*
X1173905Y976207D01*
X1174751Y977053D01*
X1173058Y975360D01*
X1175598D02*
X1176444D01*
X1176021D01*
Y977053D01*
X1175598D01*
X1177714Y975360D02*
X1178983D01*
X1179406Y975784D01*
X1178983Y976207D01*
X1178137D01*
X1177714Y976630D01*
X1178137Y977053D01*
X1179406D01*
X1184485Y977476D02*
X1184062Y977900D01*
X1183215D01*
X1182792Y977476D01*
Y977053D01*
X1183215Y976630D01*
X1184062D01*
X1184485Y976207D01*
Y975784D01*
X1184062Y975360D01*
X1183215D01*
X1182792Y975784D01*
X1185331Y975360D02*
Y977900D01*
X1186178Y977053D01*
X1187024Y977900D01*
Y975360D01*
X1187870Y977900D02*
X1188717D01*
X1188294D01*
Y975360D01*
X1187870D01*
X1188717D01*
X1191679Y977476D02*
X1191256Y977900D01*
X1190409D01*
X1189986Y977476D01*
Y975784D01*
X1190409Y975360D01*
X1191256D01*
X1191679Y975784D01*
M02*
