G04*
G04 #@! TF.GenerationSoftware,Altium Limited,Altium Designer,22.10.1 (41)*
G04*
G04 Layer_Physical_Order=1*
G04 Layer_Color=255*
%FSLAX44Y44*%
%MOMM*%
G71*
G04*
G04 #@! TF.SameCoordinates,E6263BE7-1458-4C56-9D4E-A9492F5360D3*
G04*
G04*
G04 #@! TF.FilePolarity,Positive*
G04*
G01*
G75*
%ADD34R,1.1500X1.8000*%
%ADD35R,1.0200X0.9000*%
%ADD36R,0.6200X0.6500*%
%ADD37R,1.0000X1.7500*%
%ADD38R,1.0500X1.8000*%
%ADD39R,1.8000X1.0500*%
%ADD40R,1.1000X2.8000*%
%ADD41R,0.9500X1.0000*%
%ADD42R,2.7200X1.2600*%
%ADD43R,1.0000X0.9500*%
%ADD44R,0.4200X0.4600*%
%ADD45R,5.1000X5.1000*%
%ADD46R,1.4750X0.3000*%
%ADD47R,0.3000X1.4750*%
%ADD48C,0.2921*%
%ADD49C,1.6500*%
%ADD50R,1.6500X1.6500*%
%ADD51C,1.1000*%
%ADD52R,1.1000X1.1000*%
%ADD53C,1.2700*%
%ADD54C,5.0800*%
D34*
X817090Y857250D02*
D03*
X847090D02*
D03*
X1526540D02*
D03*
X1556540D02*
D03*
X1172450D02*
D03*
X1202450D02*
D03*
X491250D02*
D03*
X461250D02*
D03*
D35*
X1482090Y849110D02*
D03*
Y834910D02*
D03*
X1127760Y849860D02*
D03*
Y835660D02*
D03*
X770890Y849630D02*
D03*
Y835430D02*
D03*
X415290Y836180D02*
D03*
Y850380D02*
D03*
D36*
X1498600Y835070D02*
D03*
Y843870D02*
D03*
X1144270Y835070D02*
D03*
Y843870D02*
D03*
X787400Y834390D02*
D03*
Y843190D02*
D03*
X431800Y844550D02*
D03*
Y835750D02*
D03*
D37*
X1452090Y796290D02*
D03*
X1482090D02*
D03*
X1097520Y797560D02*
D03*
X1127520D02*
D03*
X770410D02*
D03*
X740410D02*
D03*
X415050D02*
D03*
X385050D02*
D03*
D38*
X1399540Y899160D02*
D03*
X1374040D02*
D03*
X1399590Y835660D02*
D03*
X1374090D02*
D03*
X1399640Y871220D02*
D03*
X1374140D02*
D03*
X1615390Y1052830D02*
D03*
X1640890D02*
D03*
X1615390Y1024890D02*
D03*
X1640890D02*
D03*
X1615390Y996950D02*
D03*
X1640890D02*
D03*
X1615390Y969010D02*
D03*
X1640890D02*
D03*
X1261060D02*
D03*
X1286560D02*
D03*
X1261060Y996950D02*
D03*
X1286560D02*
D03*
X1261060Y1024890D02*
D03*
X1286560D02*
D03*
X1261060Y1052830D02*
D03*
X1286560D02*
D03*
X1043940Y899160D02*
D03*
X1018440D02*
D03*
X1043990Y871220D02*
D03*
X1018490D02*
D03*
X1043990Y835660D02*
D03*
X1018490D02*
D03*
X687120Y844550D02*
D03*
X661620D02*
D03*
X930960Y969010D02*
D03*
X905460D02*
D03*
X930960Y996950D02*
D03*
X905460D02*
D03*
X930960Y1052830D02*
D03*
X905460D02*
D03*
X930960Y1024890D02*
D03*
X905460D02*
D03*
X547320Y1046480D02*
D03*
X572820D02*
D03*
X547320Y1018540D02*
D03*
X572820D02*
D03*
X547320Y990600D02*
D03*
X572820D02*
D03*
X547320Y962660D02*
D03*
X572820D02*
D03*
X661620Y900430D02*
D03*
X687120D02*
D03*
X661620Y872490D02*
D03*
X687120D02*
D03*
X306020D02*
D03*
X331520D02*
D03*
X306020Y900430D02*
D03*
X331520D02*
D03*
X306020Y844550D02*
D03*
X331520D02*
D03*
D39*
X1422400Y787350D02*
D03*
Y812850D02*
D03*
X1492250Y1028700D02*
D03*
Y1054200D02*
D03*
X1520190Y1028700D02*
D03*
Y1054200D02*
D03*
X1548130Y1028700D02*
D03*
Y1054200D02*
D03*
X1576070Y1028700D02*
D03*
Y1054200D02*
D03*
X1221740Y1028650D02*
D03*
Y1054150D02*
D03*
X1193800Y1028650D02*
D03*
Y1054150D02*
D03*
X1165860Y1028650D02*
D03*
Y1054150D02*
D03*
X1137920Y1028650D02*
D03*
Y1054150D02*
D03*
X1066800Y787350D02*
D03*
Y812850D02*
D03*
X709930Y796190D02*
D03*
Y821690D02*
D03*
X866140Y1054150D02*
D03*
Y1028650D02*
D03*
X810260Y1054150D02*
D03*
Y1028650D02*
D03*
X838200Y1054150D02*
D03*
Y1028650D02*
D03*
X782320Y1054150D02*
D03*
Y1028650D02*
D03*
X424180Y1022300D02*
D03*
Y1047800D02*
D03*
X452120Y1022300D02*
D03*
Y1047800D02*
D03*
X480060Y1022300D02*
D03*
Y1047800D02*
D03*
X508000Y1022300D02*
D03*
Y1047800D02*
D03*
X354330Y821690D02*
D03*
Y796190D02*
D03*
D40*
X1368000Y934720D02*
D03*
X1397000D02*
D03*
X1603800D02*
D03*
X1574800D02*
D03*
X1249470D02*
D03*
X1220470D02*
D03*
X1012930D02*
D03*
X1041930D02*
D03*
X893340Y933450D02*
D03*
X864340D02*
D03*
X686330Y934720D02*
D03*
X657330D02*
D03*
X330730D02*
D03*
X301730D02*
D03*
X507470D02*
D03*
X536470D02*
D03*
D41*
X1434210Y1005840D02*
D03*
X1418210D02*
D03*
X1079880D02*
D03*
X1063880D02*
D03*
X724280D02*
D03*
X708280D02*
D03*
X367410D02*
D03*
X351410D02*
D03*
D42*
X1643380Y878240D02*
D03*
Y904840D02*
D03*
X1289050Y878240D02*
D03*
Y904840D02*
D03*
X932180Y876370D02*
D03*
Y902970D02*
D03*
X575310D02*
D03*
Y876370D02*
D03*
D43*
X1607820Y889890D02*
D03*
Y905890D02*
D03*
X1587500Y889890D02*
D03*
Y905890D02*
D03*
X1253490Y889890D02*
D03*
Y905890D02*
D03*
X1233170Y889890D02*
D03*
Y905890D02*
D03*
X876300Y888620D02*
D03*
Y904620D02*
D03*
X896620Y888620D02*
D03*
Y904620D02*
D03*
X519430Y905510D02*
D03*
Y889510D02*
D03*
X539750Y905510D02*
D03*
Y889510D02*
D03*
D44*
X1569720Y894590D02*
D03*
Y901190D02*
D03*
X1215390Y894590D02*
D03*
Y901190D02*
D03*
X858520Y894080D02*
D03*
Y900680D02*
D03*
X501650Y901190D02*
D03*
Y894590D02*
D03*
D45*
X1126490Y927100D02*
D03*
X770690Y926630D02*
D03*
X414020Y927100D02*
D03*
X1480820D02*
D03*
D46*
X1168870Y954600D02*
D03*
Y949600D02*
D03*
Y944600D02*
D03*
Y939600D02*
D03*
Y934600D02*
D03*
Y929600D02*
D03*
Y924600D02*
D03*
Y919600D02*
D03*
Y914600D02*
D03*
Y909600D02*
D03*
Y904600D02*
D03*
Y899600D02*
D03*
X1084110D02*
D03*
Y904600D02*
D03*
Y909600D02*
D03*
Y914600D02*
D03*
Y919600D02*
D03*
Y924600D02*
D03*
Y929600D02*
D03*
Y934600D02*
D03*
Y939600D02*
D03*
Y944600D02*
D03*
Y949600D02*
D03*
Y954600D02*
D03*
X813070Y954130D02*
D03*
Y949130D02*
D03*
Y944130D02*
D03*
Y939130D02*
D03*
Y934130D02*
D03*
Y929130D02*
D03*
Y924130D02*
D03*
Y919130D02*
D03*
Y914130D02*
D03*
Y909130D02*
D03*
Y904130D02*
D03*
Y899130D02*
D03*
X728310D02*
D03*
Y904130D02*
D03*
Y909130D02*
D03*
Y914130D02*
D03*
Y919130D02*
D03*
Y924130D02*
D03*
Y929130D02*
D03*
Y934130D02*
D03*
Y939130D02*
D03*
Y944130D02*
D03*
Y949130D02*
D03*
Y954130D02*
D03*
X456400Y954600D02*
D03*
Y949600D02*
D03*
Y944600D02*
D03*
Y939600D02*
D03*
Y934600D02*
D03*
Y929600D02*
D03*
Y924600D02*
D03*
Y919600D02*
D03*
Y914600D02*
D03*
Y909600D02*
D03*
Y904600D02*
D03*
Y899600D02*
D03*
X371640D02*
D03*
Y904600D02*
D03*
Y909600D02*
D03*
Y914600D02*
D03*
Y919600D02*
D03*
Y924600D02*
D03*
Y929600D02*
D03*
Y934600D02*
D03*
Y939600D02*
D03*
Y944600D02*
D03*
Y949600D02*
D03*
Y954600D02*
D03*
X1438440D02*
D03*
Y949600D02*
D03*
Y944600D02*
D03*
Y939600D02*
D03*
Y934600D02*
D03*
Y929600D02*
D03*
Y924600D02*
D03*
Y919600D02*
D03*
Y914600D02*
D03*
Y909600D02*
D03*
Y904600D02*
D03*
Y899600D02*
D03*
X1523200D02*
D03*
Y904600D02*
D03*
Y909600D02*
D03*
Y914600D02*
D03*
Y919600D02*
D03*
Y924600D02*
D03*
Y929600D02*
D03*
Y934600D02*
D03*
Y939600D02*
D03*
Y944600D02*
D03*
Y949600D02*
D03*
Y954600D02*
D03*
D47*
X1153990Y884720D02*
D03*
X1148990D02*
D03*
X1143990D02*
D03*
X1138990D02*
D03*
X1133990D02*
D03*
X1128990D02*
D03*
X1123990D02*
D03*
X1118990D02*
D03*
X1113990D02*
D03*
X1108990D02*
D03*
X1103990D02*
D03*
X1098990D02*
D03*
Y969480D02*
D03*
X1103990D02*
D03*
X1108990D02*
D03*
X1113990D02*
D03*
X1118990D02*
D03*
X1123990D02*
D03*
X1128990D02*
D03*
X1133990D02*
D03*
X1138990D02*
D03*
X1143990D02*
D03*
X1148990D02*
D03*
X1153990D02*
D03*
X798190Y884250D02*
D03*
X793190D02*
D03*
X788190D02*
D03*
X783190D02*
D03*
X778190D02*
D03*
X773190D02*
D03*
X768190D02*
D03*
X763190D02*
D03*
X758190D02*
D03*
X753190D02*
D03*
X748190D02*
D03*
X743190D02*
D03*
Y969010D02*
D03*
X748190D02*
D03*
X753190D02*
D03*
X758190D02*
D03*
X763190D02*
D03*
X768190D02*
D03*
X773190D02*
D03*
X778190D02*
D03*
X783190D02*
D03*
X788190D02*
D03*
X793190D02*
D03*
X798190D02*
D03*
X441520Y884720D02*
D03*
X436520D02*
D03*
X431520D02*
D03*
X426520D02*
D03*
X421520D02*
D03*
X416520D02*
D03*
X411520D02*
D03*
X406520D02*
D03*
X401520D02*
D03*
X396520D02*
D03*
X391520D02*
D03*
X386520D02*
D03*
Y969480D02*
D03*
X391520D02*
D03*
X396520D02*
D03*
X401520D02*
D03*
X406520D02*
D03*
X411520D02*
D03*
X416520D02*
D03*
X421520D02*
D03*
X426520D02*
D03*
X431520D02*
D03*
X436520D02*
D03*
X441520D02*
D03*
X1508320D02*
D03*
X1503320D02*
D03*
X1498320D02*
D03*
X1493320D02*
D03*
X1488320D02*
D03*
X1483320D02*
D03*
X1478320D02*
D03*
X1473320D02*
D03*
X1468320D02*
D03*
X1463320D02*
D03*
X1458320D02*
D03*
X1453320D02*
D03*
Y884720D02*
D03*
X1458320D02*
D03*
X1463320D02*
D03*
X1468320D02*
D03*
X1473320D02*
D03*
X1478320D02*
D03*
X1483320D02*
D03*
X1488320D02*
D03*
X1493320D02*
D03*
X1498320D02*
D03*
X1503320D02*
D03*
X1508320D02*
D03*
D48*
X1498320Y969480D02*
X1498360Y969520D01*
Y979352D01*
X281940Y934720D02*
X301730D01*
X1455420Y850900D02*
X1473320Y868800D01*
Y884720D01*
X1455420Y844550D02*
Y850900D01*
X1441450Y830580D02*
X1455420Y844550D01*
X1560830Y720400D02*
X1561140Y720090D01*
X1560830Y720400D02*
Y814070D01*
X1555750Y819150D02*
X1560830Y814070D01*
X1548130Y819150D02*
X1555750D01*
X1540230Y944600D02*
X1551940Y956310D01*
X1523200Y944600D02*
X1540230D01*
X1521300Y720250D02*
Y817720D01*
X1521460Y817880D01*
X1521140Y720090D02*
X1521300Y720250D01*
X1540470Y924600D02*
X1540510Y924560D01*
X1523200Y924600D02*
X1540470D01*
X1523200Y914600D02*
X1563170D01*
X1523200Y934600D02*
X1574680D01*
X1407160Y962660D02*
X1425220Y944600D01*
X1438440D01*
X1416050Y916940D02*
X1423710Y924600D01*
X1438440D01*
X1498320Y844150D02*
Y859790D01*
X1522450Y835660D01*
X1630680D01*
X1498320Y859790D02*
Y884720D01*
X1630680Y835660D02*
X1664970Y869950D01*
Y920750D01*
X1660869Y969010D02*
X1661007Y968872D01*
X1640890Y969010D02*
X1660869D01*
X1640890Y1024890D02*
X1661160D01*
X1548130Y1054200D02*
Y1074420D01*
X1520190Y1088390D02*
X1565910D01*
X1492250Y1054200D02*
Y1074420D01*
X1400810Y1005840D02*
X1418210D01*
X1422400Y768350D02*
Y787350D01*
X1347470Y872490D02*
X1348740Y871220D01*
X1374140D01*
X1565910Y1088390D02*
X1658620D01*
X1565910D02*
X1576070Y1078230D01*
Y1054200D02*
Y1078230D01*
X1211580Y1088390D02*
X1303020D01*
X1165860D02*
X1211580D01*
X1221740Y1078230D01*
Y1054150D02*
Y1078230D01*
X1574800Y996950D02*
X1615390D01*
X1515957D02*
X1574800D01*
X1602740Y969010D01*
X1615390D01*
X1498360Y979352D02*
X1515957Y996950D01*
X1600200Y1024890D02*
X1615390D01*
X1607820Y1052830D02*
X1615390D01*
X1600200Y1045210D02*
X1607820Y1052830D01*
X1640890D02*
X1659890D01*
X1640890Y996950D02*
X1661078D01*
X1600200Y1024890D02*
Y1045210D01*
X1578610Y1003300D02*
X1600200Y1024890D01*
X1516380Y1003300D02*
X1578610D01*
X1493320Y980240D02*
X1516380Y1003300D01*
X1493320Y969480D02*
Y980240D01*
X1541780Y1009650D02*
X1572260D01*
X1511300D02*
X1541780D01*
X1548130Y1016000D01*
Y1028700D01*
X1576070Y1013460D02*
Y1028700D01*
X1572260Y1009650D02*
X1576070Y1013460D01*
X1488320Y986670D02*
X1511300Y1009650D01*
X1488320Y969480D02*
Y986670D01*
X1520190Y1018540D02*
Y1028700D01*
X1517650Y1016000D02*
X1520190Y1018540D01*
X1492250Y1016000D02*
X1517650D01*
X1492250D02*
Y1028700D01*
X1478320Y1002070D02*
X1492250Y1016000D01*
X1478320Y969480D02*
Y1002070D01*
X1675130Y1068070D02*
Y1071880D01*
Y1011003D02*
Y1068070D01*
X1659890Y1052830D02*
X1675130Y1068070D01*
X1661078Y996950D02*
X1675130Y1011003D01*
X1658620Y1088390D02*
X1675130Y1071880D01*
X1522730Y1189920D02*
X1522800Y1189990D01*
X1522730Y1153160D02*
Y1189920D01*
X1520190Y1150620D02*
X1522730Y1153160D01*
X1520190Y1088390D02*
Y1150620D01*
X1531620Y1107440D02*
X1591310D01*
X1357630Y899160D02*
X1374040D01*
X1357630Y835660D02*
X1374090D01*
X1449070Y1005840D02*
Y1018540D01*
X1432560Y1035050D02*
X1449070Y1018540D01*
X1432560Y1035050D02*
Y1047750D01*
Y1083310D02*
X1437640Y1088390D01*
X1432560Y1047750D02*
Y1083310D01*
X1437640Y1088390D02*
X1447800D01*
X1520190Y1054200D02*
Y1088390D01*
X1473200Y1118870D02*
X1473320Y1118750D01*
Y969480D02*
Y1118750D01*
X1497800Y1189990D02*
X1498600Y1189190D01*
Y1162050D02*
Y1189190D01*
X1459230Y1122680D02*
X1498600Y1162050D01*
X1459230Y1103630D02*
Y1122680D01*
Y1103630D02*
X1463040Y1099820D01*
Y1000760D02*
Y1099820D01*
Y1000760D02*
X1468320Y995480D01*
Y969480D02*
Y995480D01*
X1431290Y988060D02*
X1446530D01*
X1453320Y981270D01*
Y969480D02*
Y981270D01*
X1434210Y1005840D02*
X1449070D01*
X1463320Y991590D01*
Y969480D02*
Y991590D01*
X1430020Y835660D02*
X1453320Y858960D01*
X1422400Y828040D02*
X1430020Y835660D01*
X1399590D02*
X1430020D01*
X1422400Y812850D02*
Y828040D01*
X1453320Y858960D02*
Y884720D01*
X1425380Y899600D02*
X1438440D01*
X1399980D02*
X1425380D01*
X1416050Y890270D02*
X1425380Y899600D01*
X1416050Y876300D02*
Y890270D01*
X1410970Y871220D02*
X1416050Y876300D01*
X1399640Y871220D02*
X1410970D01*
X1399540Y899160D02*
X1399980Y899600D01*
X1441450Y798830D02*
X1443990Y796290D01*
X1452090D01*
X1441450Y798830D02*
Y830580D01*
X1482090Y796290D02*
X1492250D01*
X1494790Y798830D01*
Y805180D01*
X1482090Y817880D02*
X1494790Y805180D01*
X1471930Y817880D02*
X1482090D01*
X1468120Y821690D02*
X1471930Y817880D01*
X1468120Y821690D02*
Y853440D01*
X1488320Y873640D01*
Y884720D01*
X1498600Y825500D02*
Y835070D01*
X1490980Y817880D02*
X1498600Y825500D01*
X1482090Y817880D02*
X1490980D01*
X1482090D02*
Y834910D01*
Y849110D02*
Y858520D01*
X1493320Y869750D01*
Y884720D01*
X1498320Y844150D02*
X1498600Y843870D01*
X1646790Y920750D02*
X1664970D01*
X1640640Y914600D02*
X1646790Y920750D01*
X1587500Y869950D02*
Y889890D01*
Y869950D02*
X1596390Y861060D01*
X1607820D01*
X1643380Y867410D02*
Y878240D01*
X1637030Y861060D02*
X1643380Y867410D01*
X1607820Y861060D02*
X1637030D01*
X1607820D02*
Y889890D01*
X1569720Y886460D02*
Y894590D01*
X1564640Y881380D02*
X1569720Y886460D01*
X1559560Y881380D02*
X1564640D01*
X1536340Y904600D02*
X1559560Y881380D01*
X1523200Y904600D02*
X1536340D01*
X1563170Y914600D02*
X1583690D01*
X1563170D02*
X1569720Y908050D01*
Y901190D02*
Y908050D01*
X1583690Y914600D02*
X1604010D01*
X1583690D02*
X1587500Y910790D01*
Y905890D02*
Y910790D01*
X1604010Y914600D02*
X1640640D01*
X1604010D02*
X1607820Y910790D01*
Y905890D02*
Y910790D01*
X1643380Y904840D02*
Y911860D01*
X1640640Y914600D02*
X1643380Y911860D01*
X1547850Y909600D02*
X1555750Y901700D01*
X1523200Y909600D02*
X1547850D01*
X1568450Y859790D02*
Y866140D01*
X1565910Y857250D02*
X1568450Y859790D01*
X1556540Y857250D02*
X1565910D01*
X1534990Y899600D02*
X1568450Y866140D01*
X1523200Y899600D02*
X1534990D01*
X1508320Y865310D02*
X1516380Y857250D01*
X1526540D01*
X1508320Y865310D02*
Y884720D01*
X1347470Y934720D02*
X1368000D01*
X1603800D02*
X1625600D01*
X1574680Y934600D02*
X1574800Y934720D01*
X1397000D02*
X1397120Y934600D01*
X1438440D01*
X456400Y909600D02*
X479608D01*
X487508Y901700D01*
X488950D01*
X842168D02*
X844550D01*
X813070Y909130D02*
X834738D01*
X842168Y901700D01*
X1199978D02*
X1201420D01*
X1168870Y909600D02*
X1192078D01*
X1199978Y901700D01*
X456400Y924600D02*
X456420Y924580D01*
X473690D02*
X473710Y924560D01*
X456420Y924580D02*
X473690D01*
X456400Y914600D02*
X456600Y914400D01*
X495300D01*
X456400Y934600D02*
X507350D01*
X813110Y924169D02*
X830190D01*
X813070Y924130D02*
X813110Y924169D01*
X830190D02*
X830580Y924560D01*
X813070Y934130D02*
X863660D01*
X1168890Y924580D02*
X1186160D01*
X1168870Y924600D02*
X1168890Y924580D01*
X1186160D02*
X1186180Y924560D01*
X1195070Y1055420D02*
Y1074420D01*
X1193800Y1054150D02*
X1195070Y1055420D01*
X480060Y1047800D02*
X481330Y1049070D01*
Y1068070D01*
X838200Y1054150D02*
Y1074420D01*
X1319530Y1066800D02*
Y1071880D01*
X1303020Y1088390D02*
X1319530Y1071880D01*
Y1010920D02*
Y1066800D01*
X1305560Y1052830D02*
X1319530Y1066800D01*
X1286560Y1052830D02*
X1305560D01*
X1286560Y996950D02*
X1305560D01*
X1319530Y1010920D01*
X350520Y916288D02*
X358832Y924600D01*
X371640D01*
X350520Y915670D02*
Y916288D01*
X1249680Y914600D02*
X1286310D01*
X1229360D02*
X1249680D01*
X1253490Y910790D01*
Y905890D02*
Y910790D01*
X1106170Y850900D02*
Y855980D01*
X1118990Y868800D02*
Y884720D01*
X1106170Y855980D02*
X1118990Y868800D01*
X1087120Y831850D02*
X1106170Y850900D01*
X1087120Y800100D02*
Y831850D01*
X1206810Y720090D02*
Y812490D01*
X1201420Y817880D02*
X1206810Y812490D01*
X1193800Y817880D02*
X1201420D01*
X1185900Y944600D02*
X1197610Y956310D01*
X1168870Y944600D02*
X1185900D01*
X1166810Y720090D02*
X1167130Y720410D01*
Y816610D01*
X1168870Y934600D02*
X1220350D01*
X1054100Y961390D02*
X1070890Y944600D01*
X1084110D01*
X1061720Y916940D02*
X1069380Y924600D01*
X1084110D01*
X1168400Y1189920D02*
X1168470Y1189990D01*
X1168400Y1153160D02*
Y1189920D01*
X1165860Y1150620D02*
X1168400Y1153160D01*
X1165860Y1088390D02*
Y1150620D01*
X1066800Y768350D02*
Y787350D01*
X1143990Y859790D02*
Y884720D01*
Y844150D02*
Y859790D01*
X1310640Y871220D02*
Y920750D01*
X1275080Y835660D02*
X1310640Y871220D01*
X1168120Y835660D02*
X1275080D01*
X1143990Y859790D02*
X1168120Y835660D01*
X1084580Y1088390D02*
X1093470D01*
X1076960Y1080770D02*
X1084580Y1088390D01*
X1076960Y1045210D02*
Y1080770D01*
Y1035050D02*
Y1045210D01*
Y1035050D02*
X1094740Y1017270D01*
Y1005840D02*
Y1017270D01*
X721360Y1045210D02*
Y1079500D01*
X728379Y1086519D02*
X735999D01*
X721360Y1079500D02*
X728379Y1086519D01*
X380778Y1086898D02*
X382270Y1088390D01*
X367030Y1045210D02*
Y1079500D01*
X374428Y1086898D02*
X380778D01*
X367030Y1079500D02*
X374428Y1086898D01*
X735999Y1086519D02*
X737870Y1088390D01*
X721360Y1035050D02*
Y1045210D01*
X1165860Y1054150D02*
Y1088390D01*
X1108710Y1002030D02*
X1113990Y996750D01*
X1104900Y1102360D02*
X1108710Y1098550D01*
Y1002030D02*
Y1098550D01*
X1104900Y1102360D02*
Y1123950D01*
X1143470Y1162520D01*
Y1189990D01*
X1118941Y1118799D02*
X1118951Y1118790D01*
Y969520D02*
Y1118790D01*
X1177290Y1107440D02*
X1236980D01*
X1118951Y969520D02*
X1118990Y969480D01*
X828040Y1104900D02*
X829310Y1106170D01*
X877570D01*
X878840Y1107440D01*
X467360Y1104900D02*
X520700D01*
X1087120Y800100D02*
X1089660Y797560D01*
X1097520D01*
X1002030Y834390D02*
X1003300Y835660D01*
X1018490D01*
X1002030Y899160D02*
X1018440D01*
X991870Y871220D02*
X1018490D01*
X1046480Y1005840D02*
X1063880D01*
X1220470Y996950D02*
X1261060D01*
X1160780D02*
X1220470D01*
X1248410Y969010D01*
X1261060D01*
X1143990Y980160D02*
X1160780Y996950D01*
X1143990Y969480D02*
Y980160D01*
X1252220Y1052830D02*
X1261060D01*
X1244600Y1045210D02*
X1252220Y1052830D01*
X1244600Y1024890D02*
Y1045210D01*
Y1024890D02*
X1261060D01*
X1223010Y1003300D02*
X1244600Y1024890D01*
X1159510Y1003300D02*
X1223010D01*
X1138990Y982780D02*
X1159510Y1003300D01*
X1138990Y969480D02*
Y982780D01*
X1221740Y1014730D02*
Y1028650D01*
X1216660Y1009650D02*
X1221740Y1014730D01*
X1187450Y1009650D02*
X1216660D01*
X1193800Y1016000D02*
Y1028650D01*
X1187450Y1009650D02*
X1193800Y1016000D01*
X1156970Y1009650D02*
X1187450D01*
X1133990Y986670D02*
X1156970Y1009650D01*
X1133990Y969480D02*
Y986670D01*
X1165860Y1021080D02*
Y1028650D01*
X1160780Y1016000D02*
X1165860Y1021080D01*
X1137920Y1016000D02*
X1160780D01*
X1137920D02*
Y1028650D01*
X1123990Y969480D02*
Y1002070D01*
X1137920Y1016000D01*
X1286560Y969010D02*
X1306830D01*
X1306385Y1024890D02*
X1306509Y1025013D01*
X1286560Y1024890D02*
X1306385D01*
X1137920Y1054150D02*
Y1074420D01*
X1113990Y969480D02*
Y996750D01*
X1066800Y828040D02*
X1074420Y835660D01*
X1066800Y812850D02*
Y828040D01*
X1043990Y835660D02*
X1074420D01*
X1098990Y860230D01*
X1059180Y876300D02*
Y890270D01*
X1054100Y871220D02*
X1059180Y876300D01*
X1043990Y871220D02*
X1054100D01*
X1098990Y860230D02*
Y884720D01*
X1068070Y899600D02*
X1084110D01*
X1044380D02*
X1068070D01*
Y899160D02*
Y899600D01*
X1059180Y890270D02*
X1068070Y899160D01*
X1043940D02*
X1044380Y899600D01*
X1077096Y986654D02*
X1094876D01*
X1098990Y969480D02*
Y982540D01*
X1094876Y986654D02*
X1098990Y982540D01*
X1076960Y986790D02*
X1077096Y986654D01*
X1094740Y1005840D02*
X1108990Y991590D01*
Y969480D02*
Y991590D01*
X1079880Y1005840D02*
X1094740D01*
X1127520Y797560D02*
X1135380D01*
X1139190Y801370D01*
Y807720D01*
X1127760Y819150D02*
X1139190Y807720D01*
X1144270Y824230D02*
Y835070D01*
X1139190Y819150D02*
X1144270Y824230D01*
X1127760Y819150D02*
X1139190D01*
X1116330D02*
X1127760D01*
X1113790Y821690D02*
X1116330Y819150D01*
X1113790Y821690D02*
Y853440D01*
X1133990Y873640D01*
Y884720D01*
X1127760Y819150D02*
Y835660D01*
Y849860D02*
Y858520D01*
X1138990Y869750D01*
Y884720D01*
X1143990Y844150D02*
X1144270Y843870D01*
X1292460Y920750D02*
X1310640D01*
X1286310Y914600D02*
X1292460Y920750D01*
X1289050Y904840D02*
Y911860D01*
X1286310Y914600D02*
X1289050Y911860D01*
Y868680D02*
Y878240D01*
X1253490Y861060D02*
X1281430D01*
X1289050Y868680D01*
X1233170Y869950D02*
X1242060Y861060D01*
X1253490D01*
X1233170Y869950D02*
Y889890D01*
X1253490Y861060D02*
Y889890D01*
X1215390Y886460D02*
Y894590D01*
X1211580Y882650D02*
X1215390Y886460D01*
X1203960Y882650D02*
X1211580D01*
X1182010Y904600D02*
X1203960Y882650D01*
X1168870Y904600D02*
X1182010D01*
X1209040Y914600D02*
X1229360D01*
X1168870D02*
X1209040D01*
X1215390Y908250D01*
Y901190D02*
Y908250D01*
X1229360Y914600D02*
X1233170Y910790D01*
Y905890D02*
Y910790D01*
X1202450Y857250D02*
X1211580D01*
X1214120Y859790D01*
Y866140D01*
X1180660Y899600D02*
X1214120Y866140D01*
X1168870Y899600D02*
X1180660D01*
X1162050Y857250D02*
X1172450D01*
X1153990Y865310D02*
X1162050Y857250D01*
X1153990Y865310D02*
Y884720D01*
X1041930Y934720D02*
X1042050Y934600D01*
X1084110D01*
X991870Y934720D02*
X1010390D01*
X1249470D02*
X1271270D01*
X1220350Y934600D02*
X1220470Y934720D01*
X893340Y933450D02*
X914400D01*
X965200Y1066800D02*
Y1070610D01*
Y1010920D02*
Y1066800D01*
X951230Y1052830D02*
X965200Y1066800D01*
X930960Y1052830D02*
X951230D01*
X848360Y720400D02*
X848670Y720090D01*
X848360Y720400D02*
Y812800D01*
X844550Y816610D02*
X848360Y812800D01*
X836930Y816610D02*
X844550D01*
X808670Y720090D02*
X808990Y720410D01*
Y815340D01*
X832370Y944130D02*
X842010Y953770D01*
X813070Y944130D02*
X832370D01*
X763190Y871140D02*
Y884250D01*
X730250Y838200D02*
X763190Y871140D01*
X730250Y800100D02*
Y838200D01*
X721170Y985520D02*
X739140D01*
X406520Y864990D02*
Y884720D01*
X373380Y831850D02*
X406520Y864990D01*
X365663Y985520D02*
X383540D01*
X373380Y801370D02*
X377190Y797560D01*
X373380Y801370D02*
Y831850D01*
X364915Y986267D02*
X365663Y985520D01*
X331520Y844550D02*
X364490D01*
X386520Y866580D01*
X354330Y834390D02*
X364490Y844550D01*
X698500Y961390D02*
X715760Y944130D01*
X728310D01*
X706120Y915670D02*
X714580Y924130D01*
X728310D01*
X686920Y934130D02*
X728310D01*
X763150Y969050D02*
X763190Y969010D01*
X762000Y1117600D02*
X763150Y1116450D01*
Y969050D02*
Y1116450D01*
X748030Y1103630D02*
Y1121410D01*
X786600Y1159980D01*
Y1189990D01*
X810260Y1088390D02*
Y1150620D01*
X811600Y1151960D01*
Y1189990D01*
X894080Y969010D02*
X905460D01*
X872490Y990600D02*
X894080Y969010D01*
X878840Y996950D02*
X905460D01*
X872490Y990600D02*
X878840Y996950D01*
X798830Y990600D02*
X872490D01*
X788190Y979960D02*
X798830Y990600D01*
X788190Y969010D02*
Y979960D01*
X783190Y983850D02*
X801370Y1002030D01*
X783190Y969010D02*
Y983850D01*
X897890Y1052830D02*
X905460D01*
X889000Y1043940D02*
X897890Y1052830D01*
X889000Y1024890D02*
Y1043940D01*
Y1024890D02*
X905460D01*
X866140Y1002030D02*
X889000Y1024890D01*
X801370Y1002030D02*
X866140D01*
Y1017270D02*
Y1028650D01*
X859790Y1010920D02*
X866140Y1017270D01*
X833120Y1010920D02*
X859790D01*
X838200Y1016000D02*
Y1028650D01*
X833120Y1010920D02*
X838200Y1016000D01*
X802640Y1010920D02*
X833120D01*
X778190Y986470D02*
X802640Y1010920D01*
X778190Y969010D02*
Y986470D01*
X810260Y1022350D02*
Y1028650D01*
X803910Y1016000D02*
X810260Y1022350D01*
X782320Y1016000D02*
X803910D01*
X782320D02*
Y1028650D01*
X768190Y1001870D02*
X782320Y1016000D01*
X768190Y969010D02*
Y1001870D01*
X687120Y844550D02*
X721360D01*
X739140Y1005840D02*
Y1017270D01*
X721360Y1035050D02*
X739140Y1017270D01*
X855980Y1088390D02*
X947420D01*
X810260D02*
X855980D01*
X866140Y1078230D01*
Y1054150D02*
Y1078230D01*
X810260Y1054150D02*
Y1088390D01*
X947420D02*
X965200Y1070610D01*
X951230Y996950D02*
X965200Y1010920D01*
X930960Y1024890D02*
X951230D01*
X930960Y996950D02*
X951230D01*
X930960Y969010D02*
X951230D01*
X782320Y1054150D02*
Y1074420D01*
X863660Y934130D02*
X864340Y933450D01*
X892810Y914130D02*
X929910D01*
X872490D02*
X892810D01*
X896620Y910320D01*
Y904620D02*
Y910320D01*
X872490Y914130D02*
X876300Y910320D01*
Y904620D02*
Y910320D01*
X645160Y844550D02*
X661620D01*
X645160Y900430D02*
X661620D01*
X636270Y872490D02*
X661620D01*
X636270Y934720D02*
X657330D01*
X690880Y1005840D02*
X708280D01*
X753110Y1002030D02*
Y1098550D01*
X748030Y1103630D02*
X753110Y1098550D01*
Y1002030D02*
X758190Y996950D01*
Y969010D02*
Y996950D01*
X739140Y985520D02*
X743190Y981470D01*
Y969010D02*
Y981470D01*
X724280Y1005840D02*
X739140D01*
X753190Y991790D01*
Y969010D02*
Y991790D01*
X367030Y1033780D02*
Y1045210D01*
Y1033780D02*
X382270Y1018540D01*
Y1005840D02*
Y1018540D01*
X289560Y844550D02*
X306020D01*
X289560Y900430D02*
X306020D01*
X383540Y985520D02*
X386520Y982540D01*
Y969480D02*
Y982540D01*
X730250Y800100D02*
X732790Y797560D01*
X740410D01*
X709930Y777240D02*
Y796190D01*
X778510Y797560D02*
X781050Y800100D01*
X770410Y797560D02*
X778510D01*
X781050Y800100D02*
Y808990D01*
X770890Y819150D02*
X781050Y808990D01*
X923290Y835660D02*
X952500Y864870D01*
Y920750D01*
X788190Y859790D02*
Y884250D01*
Y843980D02*
Y859790D01*
X812320Y835660D02*
X923290D01*
X788190Y859790D02*
X812320Y835660D01*
X858520Y883920D02*
Y894080D01*
X855769Y881169D02*
X858520Y883920D01*
X849418Y881169D02*
X855769D01*
X826457Y904130D02*
X849418Y881169D01*
X813070Y904130D02*
X826457D01*
X936530Y920750D02*
X952500D01*
X929910Y914130D02*
X936530Y920750D01*
X927100Y858520D02*
X932180Y863600D01*
Y876370D01*
X896620Y858520D02*
X927100D01*
X887730D02*
X896620D01*
X876300Y869950D02*
X887730Y858520D01*
X876300Y869950D02*
Y886970D01*
X896620Y858520D02*
Y886970D01*
X852170Y914130D02*
X872490D01*
X813070D02*
X852170D01*
X858520Y907780D01*
Y900680D02*
Y907780D01*
X932180Y902970D02*
Y911860D01*
X929910Y914130D02*
X932180Y911860D01*
X770890Y819150D02*
X782320D01*
X787400Y824230D01*
Y834390D01*
X764540Y819150D02*
X770890D01*
X756920Y826770D02*
X764540Y819150D01*
X756920Y826770D02*
Y852170D01*
X778190Y873440D01*
Y884250D01*
X770890Y819150D02*
Y835430D01*
Y849630D02*
Y857250D01*
X783190Y869550D01*
Y884250D01*
X787400Y843190D02*
X788190Y843980D01*
X431800Y859790D02*
Y884440D01*
Y844550D02*
Y859790D01*
X454660Y836930D01*
X431520Y884720D02*
X431800Y884440D01*
X469460Y899600D02*
X502920Y866140D01*
X456400Y899600D02*
X469460D01*
X813070Y899130D02*
X825530D01*
X858520Y866140D01*
Y858520D02*
Y866140D01*
X857250Y857250D02*
X858520Y858520D01*
X847090Y857250D02*
X857250D01*
X808990D02*
X817090D01*
X798190Y868050D02*
X808990Y857250D01*
X798190Y868050D02*
Y884250D01*
X709930Y821690D02*
Y833120D01*
X721360Y844550D02*
X743190Y866380D01*
X709930Y833120D02*
X721360Y844550D01*
X743190Y866380D02*
Y884250D01*
X708365Y899130D02*
X728310D01*
X688420D02*
X708365D01*
Y898035D02*
Y899130D01*
X702310Y891980D02*
X708365Y898035D01*
X687120Y900430D02*
X688420Y899130D01*
X686330Y934720D02*
X686920Y934130D01*
X702310Y877570D02*
Y891980D01*
X697230Y872490D02*
X702310Y877570D01*
X687120Y872490D02*
X697230D01*
X456400Y944600D02*
X477240D01*
X486410Y953770D01*
X488950Y813629D02*
Y813629D01*
X493390Y720090D02*
Y809189D01*
X488950Y813629D02*
X493390Y809189D01*
X487239Y815340D02*
X488950Y813629D01*
X477520Y815340D02*
X487239D01*
X453390Y720090D02*
Y815340D01*
X341630Y961390D02*
X358420Y944600D01*
X371640D01*
X536470Y934720D02*
X557530D01*
X495300Y914400D02*
X516890D01*
X495300D02*
X501650Y908050D01*
Y901190D02*
Y908050D01*
Y885190D02*
Y894590D01*
X497840Y881380D02*
X501650Y885190D01*
X494030Y881380D02*
X497840D01*
X470810Y904600D02*
X494030Y881380D01*
X502920Y858961D02*
Y866140D01*
X501209Y857250D02*
X502920Y858961D01*
X491250Y857250D02*
X501209D01*
X456400Y904600D02*
X470810D01*
X397510Y1003300D02*
X401520Y999290D01*
X397510Y1003300D02*
Y1099820D01*
X392430Y1104900D02*
X397510Y1099820D01*
X392430Y1104900D02*
Y1121410D01*
X406480Y969520D02*
X406520Y969480D01*
X406480Y969520D02*
Y1117520D01*
X406400Y1117600D02*
X406480Y1117520D01*
X392430Y1121410D02*
X430530Y1159510D01*
X455530Y1189990D02*
X455930Y1189590D01*
Y1151890D02*
Y1189590D01*
X452120Y1148080D02*
X455930Y1151890D01*
X452120Y1088390D02*
Y1148080D01*
X430530Y1159510D02*
Y1189990D01*
X401520Y969480D02*
Y999290D01*
X334010Y1005840D02*
X351410D01*
X280670Y872490D02*
X306020D01*
X354330Y777240D02*
Y796190D01*
X497840Y1088390D02*
X584200D01*
X608330Y1064260D01*
Y1061720D02*
Y1064260D01*
X582930Y920750D02*
X595630D01*
X576580Y914400D02*
X582930Y920750D01*
X572770Y914400D02*
X576580D01*
X595630Y866140D02*
Y920750D01*
X566420Y836930D02*
X595630Y866140D01*
X454660Y836930D02*
X566420D01*
X452120Y1088390D02*
X497840D01*
X508000Y1078230D01*
Y1047800D02*
Y1078230D01*
X441520Y866580D02*
Y884720D01*
X450850Y857250D02*
X461250D01*
X441520Y866580D02*
X450850Y857250D01*
X572820Y962660D02*
X593090D01*
X608330Y1005840D02*
Y1061720D01*
X593090Y1046480D02*
X608330Y1061720D01*
X593090Y990600D02*
X608330Y1005840D01*
X572820Y990600D02*
X593090D01*
X510540D02*
X547320D01*
X538480Y962660D02*
X547320D01*
X572820Y1046480D02*
X593090D01*
X452120Y1047800D02*
Y1088390D01*
X424180Y1047800D02*
Y1068070D01*
X572820Y1018540D02*
X593090D01*
X483870Y990600D02*
X510540D01*
X538480Y962660D01*
X480060Y986790D02*
X483870Y990600D01*
X439420Y986790D02*
X480060D01*
X431520Y978890D02*
X439420Y986790D01*
X476250Y994410D02*
X485140Y1003300D01*
X439420Y994410D02*
X476250D01*
X426520Y981510D02*
X439420Y994410D01*
X431520Y969480D02*
Y978890D01*
X538480Y1046480D02*
X547320D01*
X530860Y1038860D02*
X538480Y1046480D01*
X530860Y1018540D02*
Y1038860D01*
Y1018540D02*
X547320D01*
X515620Y1003300D02*
X530860Y1018540D01*
X485140Y1003300D02*
X515620D01*
X426520Y969480D02*
Y981510D01*
X508000Y1013460D02*
Y1022300D01*
X504190Y1009650D02*
X508000Y1013460D01*
X480060Y1009650D02*
X504190D01*
X438150Y1003300D02*
X473710D01*
X480060Y1009650D01*
Y1022300D01*
X421520Y986670D02*
X438150Y1003300D01*
X421520Y969480D02*
Y986670D01*
X452120Y1013460D02*
Y1022300D01*
X448310Y1009650D02*
X452120Y1013460D01*
X424180Y1009650D02*
X448310D01*
X424180D02*
Y1022300D01*
X411520Y996990D02*
X424180Y1009650D01*
X411520Y969480D02*
Y996990D01*
X351995Y899600D02*
X371640D01*
X332350D02*
X351995D01*
X345440Y893045D02*
X351995Y899600D01*
X345440Y877570D02*
Y893045D01*
X340360Y872490D02*
X345440Y877570D01*
X331520Y872490D02*
X340360D01*
X331520Y900430D02*
X332350Y899600D01*
X354330Y821690D02*
Y834390D01*
X386520Y866580D02*
Y884720D01*
X425450Y800100D02*
Y808990D01*
X415290Y819150D02*
X425450Y808990D01*
X415290Y819150D02*
X424180D01*
X422910Y797560D02*
X425450Y800100D01*
X415050Y797560D02*
X422910D01*
X377190D02*
X385050D01*
X424180Y819150D02*
X431800Y826770D01*
X407776Y819150D02*
X415290D01*
X402590Y824336D02*
X407776Y819150D01*
X415290D02*
Y836180D01*
X402590Y824336D02*
Y853440D01*
X431800Y826770D02*
Y835750D01*
X402590Y853440D02*
X421520Y872370D01*
Y884720D01*
X426520Y868480D02*
Y884720D01*
X415290Y857250D02*
X426520Y868480D01*
X415290Y850380D02*
Y857250D01*
X367410Y1005840D02*
X382270D01*
X396520Y991590D01*
Y969480D02*
Y991590D01*
X539750Y858520D02*
Y889510D01*
X519430Y868680D02*
Y889510D01*
Y868680D02*
X529590Y858520D01*
X539750D01*
X575310Y866140D02*
Y876370D01*
X567690Y858520D02*
X575310Y866140D01*
X539750Y858520D02*
X567690D01*
X575310Y902970D02*
Y911860D01*
X572770Y914400D02*
X575310Y911860D01*
X537210Y914400D02*
X572770D01*
X539750Y905510D02*
Y911860D01*
X537210Y914400D02*
X539750Y911860D01*
X516890Y914400D02*
X537210D01*
X519430Y905510D02*
Y911860D01*
X516890Y914400D02*
X519430Y911860D01*
X456400Y899600D02*
X456840Y899160D01*
X507350Y934600D02*
X507470Y934720D01*
X371520D02*
X371640Y934600D01*
X330730Y934720D02*
X371520D01*
X330730D02*
X330850Y934600D01*
D49*
X1447800Y1189990D02*
D03*
X1472800D02*
D03*
X1497800D02*
D03*
X1522800D02*
D03*
X1547800D02*
D03*
X1093470D02*
D03*
X1118470D02*
D03*
X1143470D02*
D03*
X1168470D02*
D03*
X1193470D02*
D03*
X736600D02*
D03*
X761600D02*
D03*
X786600D02*
D03*
X811600D02*
D03*
X836600D02*
D03*
X380530D02*
D03*
X405530D02*
D03*
X430530D02*
D03*
X455530D02*
D03*
X480530D02*
D03*
D50*
X1572800D02*
D03*
X1218470D02*
D03*
X861600D02*
D03*
X505530D02*
D03*
D51*
X1501140Y720090D02*
D03*
X1521140D02*
D03*
X1541140D02*
D03*
X1146810D02*
D03*
X1166810D02*
D03*
X1186810D02*
D03*
X788670D02*
D03*
X808670D02*
D03*
X828670D02*
D03*
X433390D02*
D03*
X453390D02*
D03*
X473390D02*
D03*
D52*
X1561140D02*
D03*
X1206810D02*
D03*
X848670D02*
D03*
X493390D02*
D03*
D53*
X1046480Y1005840D02*
D03*
X281940Y934720D02*
D03*
X1548130Y819150D02*
D03*
X1551940Y956310D02*
D03*
X1521460Y817880D02*
D03*
X1540510Y924560D02*
D03*
X1407160Y962660D02*
D03*
X1416050Y916940D02*
D03*
X1661007Y968872D02*
D03*
X1661160Y1024890D02*
D03*
X1548130Y1074420D02*
D03*
X1492250D02*
D03*
X1400810Y1005840D02*
D03*
X1422400Y768350D02*
D03*
X1347470Y872490D02*
D03*
X1531620Y1107440D02*
D03*
X1591310D02*
D03*
X1357630Y899160D02*
D03*
Y835660D02*
D03*
X1432560Y1047750D02*
D03*
X1447800Y1088390D02*
D03*
X1520190D02*
D03*
X1473200Y1118870D02*
D03*
X1431290Y988060D02*
D03*
X1441450Y830580D02*
D03*
X1482090Y817880D02*
D03*
X1664970Y920750D02*
D03*
X1607820Y861060D02*
D03*
X1555750Y901700D02*
D03*
X1347470Y934720D02*
D03*
X1625600D02*
D03*
X488950Y901700D02*
D03*
X844550D02*
D03*
X1201420D02*
D03*
X473710Y924560D02*
D03*
X830580D02*
D03*
X1186180D02*
D03*
X1195070Y1074420D02*
D03*
X481330Y1068070D02*
D03*
X838200Y1074420D02*
D03*
X350520Y915670D02*
D03*
X1087120Y831850D02*
D03*
X1193800Y817880D02*
D03*
X1197610Y956310D02*
D03*
X1167130Y816610D02*
D03*
X1054100Y961390D02*
D03*
X1061720Y916940D02*
D03*
X1066800Y768350D02*
D03*
X1076960Y1045210D02*
D03*
X1093470Y1088390D02*
D03*
X737870D02*
D03*
X1165860D02*
D03*
X1118941Y1118799D02*
D03*
X1177290Y1107440D02*
D03*
X1236980D02*
D03*
X878840D02*
D03*
X520700Y1104900D02*
D03*
X1002030Y834390D02*
D03*
Y899160D02*
D03*
X991870Y871220D02*
D03*
X1306830Y969010D02*
D03*
X1306509Y1025013D02*
D03*
X1137920Y1074420D02*
D03*
X1076960Y986790D02*
D03*
X1127760Y819150D02*
D03*
X1310640Y920750D02*
D03*
X1253490Y861060D02*
D03*
X991870Y934720D02*
D03*
X1271270D02*
D03*
X914400Y933450D02*
D03*
X836930Y816610D02*
D03*
X808990Y815340D02*
D03*
X842010Y953770D02*
D03*
X730250Y838200D02*
D03*
X721170Y985520D02*
D03*
X373380Y831850D02*
D03*
X364915Y986267D02*
D03*
X698500Y961390D02*
D03*
X706120Y915670D02*
D03*
X828040Y1104900D02*
D03*
X762000Y1117600D02*
D03*
X721360Y1045210D02*
D03*
X810260Y1088390D02*
D03*
X951230Y1024890D02*
D03*
Y969010D02*
D03*
X782320Y1074420D02*
D03*
X645160Y844550D02*
D03*
Y900430D02*
D03*
X636270Y872490D02*
D03*
Y934720D02*
D03*
X690880Y1005840D02*
D03*
X367030Y1045210D02*
D03*
X289560Y844550D02*
D03*
Y900430D02*
D03*
X709930Y777240D02*
D03*
X952500Y920750D02*
D03*
X896620Y858520D02*
D03*
X770890Y819150D02*
D03*
X486410Y953770D02*
D03*
X477520Y815340D02*
D03*
X453390D02*
D03*
X341630Y961390D02*
D03*
X557530Y934720D02*
D03*
X406400Y1117600D02*
D03*
X334010Y1005840D02*
D03*
X280670Y872490D02*
D03*
X354330Y777240D02*
D03*
X467360Y1104900D02*
D03*
X595630Y920750D02*
D03*
X593090Y962660D02*
D03*
X452120Y1088390D02*
D03*
X382270D02*
D03*
X424180Y1068070D02*
D03*
X593090Y1018540D02*
D03*
X415290Y819150D02*
D03*
X539750Y858520D02*
D03*
D54*
X1684020Y703580D02*
D03*
Y1212850D02*
D03*
X266700D02*
D03*
Y703580D02*
D03*
M02*
