G04*
G04 #@! TF.GenerationSoftware,Altium Limited,Altium Designer,22.10.1 (41)*
G04*
G04 Layer_Color=16711935*
%FSLAX44Y44*%
%MOMM*%
G71*
G04*
G04 #@! TF.SameCoordinates,E6263BE7-1458-4C56-9D4E-A9492F5360D3*
G04*
G04*
G04 #@! TF.FilePolarity,Negative*
G04*
G01*
G75*
%ADD28C,2.0056*%
%ADD29R,2.0056X2.0056*%
%ADD30C,1.4556*%
%ADD31R,1.4556X1.4556*%
%ADD32C,1.6256*%
%ADD33C,5.4356*%
D28*
X1447800Y1189990D02*
D03*
X1472800D02*
D03*
X1497800D02*
D03*
X1522800D02*
D03*
X1547800D02*
D03*
X1093470D02*
D03*
X1118470D02*
D03*
X1143470D02*
D03*
X1168470D02*
D03*
X1193470D02*
D03*
X736600D02*
D03*
X761600D02*
D03*
X786600D02*
D03*
X811600D02*
D03*
X836600D02*
D03*
X380530D02*
D03*
X405530D02*
D03*
X430530D02*
D03*
X455530D02*
D03*
X480530D02*
D03*
D29*
X1572800D02*
D03*
X1218470D02*
D03*
X861600D02*
D03*
X505530D02*
D03*
D30*
X1501140Y720090D02*
D03*
X1521140D02*
D03*
X1541140D02*
D03*
X1146810D02*
D03*
X1166810D02*
D03*
X1186810D02*
D03*
X788670D02*
D03*
X808670D02*
D03*
X828670D02*
D03*
X433390D02*
D03*
X453390D02*
D03*
X473390D02*
D03*
D31*
X1561140D02*
D03*
X1206810D02*
D03*
X848670D02*
D03*
X493390D02*
D03*
D32*
X1046480Y1005840D02*
D03*
X281940Y934720D02*
D03*
X1548130Y819150D02*
D03*
X1551940Y956310D02*
D03*
X1521460Y817880D02*
D03*
X1540510Y924560D02*
D03*
X1407160Y962660D02*
D03*
X1416050Y916940D02*
D03*
X1661007Y968872D02*
D03*
X1661160Y1024890D02*
D03*
X1548130Y1074420D02*
D03*
X1492250D02*
D03*
X1400810Y1005840D02*
D03*
X1422400Y768350D02*
D03*
X1347470Y872490D02*
D03*
X1531620Y1107440D02*
D03*
X1591310D02*
D03*
X1357630Y899160D02*
D03*
Y835660D02*
D03*
X1432560Y1047750D02*
D03*
X1447800Y1088390D02*
D03*
X1520190D02*
D03*
X1473200Y1118870D02*
D03*
X1431290Y988060D02*
D03*
X1441450Y830580D02*
D03*
X1482090Y817880D02*
D03*
X1664970Y920750D02*
D03*
X1607820Y861060D02*
D03*
X1555750Y901700D02*
D03*
X1347470Y934720D02*
D03*
X1625600D02*
D03*
X488950Y901700D02*
D03*
X844550D02*
D03*
X1201420D02*
D03*
X473710Y924560D02*
D03*
X830580D02*
D03*
X1186180D02*
D03*
X1195070Y1074420D02*
D03*
X481330Y1068070D02*
D03*
X838200Y1074420D02*
D03*
X350520Y915670D02*
D03*
X1087120Y831850D02*
D03*
X1193800Y817880D02*
D03*
X1197610Y956310D02*
D03*
X1167130Y816610D02*
D03*
X1054100Y961390D02*
D03*
X1061720Y916940D02*
D03*
X1066800Y768350D02*
D03*
X1076960Y1045210D02*
D03*
X1093470Y1088390D02*
D03*
X737870D02*
D03*
X1165860D02*
D03*
X1118941Y1118799D02*
D03*
X1177290Y1107440D02*
D03*
X1236980D02*
D03*
X878840D02*
D03*
X520700Y1104900D02*
D03*
X1002030Y834390D02*
D03*
Y899160D02*
D03*
X991870Y871220D02*
D03*
X1306830Y969010D02*
D03*
X1306509Y1025013D02*
D03*
X1137920Y1074420D02*
D03*
X1076960Y986790D02*
D03*
X1127760Y819150D02*
D03*
X1310640Y920750D02*
D03*
X1253490Y861060D02*
D03*
X991870Y934720D02*
D03*
X1271270D02*
D03*
X914400Y933450D02*
D03*
X836930Y816610D02*
D03*
X808990Y815340D02*
D03*
X842010Y953770D02*
D03*
X730250Y838200D02*
D03*
X721170Y985520D02*
D03*
X373380Y831850D02*
D03*
X364915Y986267D02*
D03*
X698500Y961390D02*
D03*
X706120Y915670D02*
D03*
X828040Y1104900D02*
D03*
X762000Y1117600D02*
D03*
X721360Y1045210D02*
D03*
X810260Y1088390D02*
D03*
X951230Y1024890D02*
D03*
Y969010D02*
D03*
X782320Y1074420D02*
D03*
X645160Y844550D02*
D03*
Y900430D02*
D03*
X636270Y872490D02*
D03*
Y934720D02*
D03*
X690880Y1005840D02*
D03*
X367030Y1045210D02*
D03*
X289560Y844550D02*
D03*
Y900430D02*
D03*
X709930Y777240D02*
D03*
X952500Y920750D02*
D03*
X896620Y858520D02*
D03*
X770890Y819150D02*
D03*
X486410Y953770D02*
D03*
X477520Y815340D02*
D03*
X453390D02*
D03*
X341630Y961390D02*
D03*
X557530Y934720D02*
D03*
X406400Y1117600D02*
D03*
X334010Y1005840D02*
D03*
X280670Y872490D02*
D03*
X354330Y777240D02*
D03*
X467360Y1104900D02*
D03*
X595630Y920750D02*
D03*
X593090Y962660D02*
D03*
X452120Y1088390D02*
D03*
X382270D02*
D03*
X424180Y1068070D02*
D03*
X593090Y1018540D02*
D03*
X415290Y819150D02*
D03*
X539750Y858520D02*
D03*
D33*
X1684020Y703580D02*
D03*
Y1212850D02*
D03*
X266700D02*
D03*
Y703580D02*
D03*
M02*
