G04*
G04 #@! TF.GenerationSoftware,Altium Limited,Altium Designer,22.10.1 (41)*
G04*
G04 Layer_Physical_Order=2*
G04 Layer_Color=16711680*
%FSLAX44Y44*%
%MOMM*%
G71*
G04*
G04 #@! TF.SameCoordinates,E6263BE7-1458-4C56-9D4E-A9492F5360D3*
G04*
G04*
G04 #@! TF.FilePolarity,Positive*
G04*
G01*
G75*
%ADD48C,0.2921*%
%ADD49C,1.6500*%
%ADD50R,1.6500X1.6500*%
%ADD51C,1.1000*%
%ADD52R,1.1000X1.1000*%
%ADD53C,1.2700*%
%ADD54C,5.0800*%
G36*
X1656080Y1210651D02*
X1656768Y1206307D01*
X1658127Y1202125D01*
X1660124Y1198206D01*
X1662709Y1194648D01*
X1665818Y1191539D01*
X1669376Y1188954D01*
X1673295Y1186957D01*
X1677477Y1185598D01*
X1681821Y1184910D01*
X1684020D01*
Y731520D01*
X1681821D01*
X1677477Y730832D01*
X1673295Y729473D01*
X1669376Y727476D01*
X1665818Y724891D01*
X1662709Y721782D01*
X1660124Y718224D01*
X1658127Y714305D01*
X1656768Y710123D01*
X1656080Y705779D01*
Y703580D01*
X294640D01*
Y705779D01*
X293952Y710123D01*
X292593Y714305D01*
X290596Y718224D01*
X288011Y721782D01*
X284902Y724891D01*
X281344Y727476D01*
X277425Y729473D01*
X273243Y730832D01*
X268899Y731520D01*
X266700D01*
Y1184910D01*
X268899D01*
X273243Y1185598D01*
X277425Y1186957D01*
X281344Y1188954D01*
X284902Y1191539D01*
X288011Y1194648D01*
X290596Y1198206D01*
X292593Y1202125D01*
X293952Y1206307D01*
X294640Y1210651D01*
Y1212850D01*
X1656080D01*
Y1210651D01*
D02*
G37*
%LPC*%
G36*
X1194891Y1200780D02*
X1194740D01*
Y1191260D01*
X1204260D01*
Y1191411D01*
X1203525Y1194155D01*
X1202104Y1196615D01*
X1200095Y1198624D01*
X1197635Y1200045D01*
X1194891Y1200780D01*
D02*
G37*
G36*
X838020D02*
X837870D01*
Y1191260D01*
X847390D01*
Y1191411D01*
X846655Y1194155D01*
X845234Y1196615D01*
X843225Y1198624D01*
X840765Y1200045D01*
X838020Y1200780D01*
D02*
G37*
G36*
X481950D02*
X481800D01*
Y1191260D01*
X491320D01*
Y1191411D01*
X490585Y1194155D01*
X489164Y1196615D01*
X487155Y1198624D01*
X484695Y1200045D01*
X481950Y1200780D01*
D02*
G37*
G36*
X1549220D02*
X1549070D01*
Y1191260D01*
X1558590D01*
Y1191411D01*
X1557855Y1194155D01*
X1556434Y1196615D01*
X1554425Y1198624D01*
X1551965Y1200045D01*
X1549220Y1200780D01*
D02*
G37*
G36*
X1192200D02*
X1192049D01*
X1189305Y1200045D01*
X1186845Y1198624D01*
X1184836Y1196615D01*
X1183415Y1194155D01*
X1182680Y1191411D01*
Y1191260D01*
X1192200D01*
Y1200780D01*
D02*
G37*
G36*
X835330D02*
X835180D01*
X832435Y1200045D01*
X829975Y1198624D01*
X827966Y1196615D01*
X826545Y1194155D01*
X825810Y1191411D01*
Y1191260D01*
X835330D01*
Y1200780D01*
D02*
G37*
G36*
X479260D02*
X479109D01*
X476365Y1200045D01*
X473905Y1198624D01*
X471896Y1196615D01*
X470475Y1194155D01*
X469740Y1191411D01*
Y1191260D01*
X479260D01*
Y1200780D01*
D02*
G37*
G36*
X1546530D02*
X1546380D01*
X1543635Y1200045D01*
X1541175Y1198624D01*
X1539166Y1196615D01*
X1537745Y1194155D01*
X1537010Y1191411D01*
Y1191260D01*
X1546530D01*
Y1200780D01*
D02*
G37*
G36*
X1558590Y1188720D02*
X1549070D01*
Y1179200D01*
X1549220D01*
X1551965Y1179935D01*
X1554425Y1181356D01*
X1556434Y1183365D01*
X1557855Y1185825D01*
X1558590Y1188569D01*
Y1188720D01*
D02*
G37*
G36*
X1546530D02*
X1537010D01*
Y1188569D01*
X1537745Y1185825D01*
X1539166Y1183365D01*
X1541175Y1181356D01*
X1543635Y1179935D01*
X1546380Y1179200D01*
X1546530D01*
Y1188720D01*
D02*
G37*
G36*
X1524220Y1200780D02*
X1521380D01*
X1518635Y1200045D01*
X1516175Y1198624D01*
X1514166Y1196615D01*
X1512745Y1194155D01*
X1512010Y1191411D01*
Y1188569D01*
X1512745Y1185825D01*
X1514166Y1183365D01*
X1516175Y1181356D01*
X1518635Y1179935D01*
X1521380Y1179200D01*
X1524220D01*
X1526965Y1179935D01*
X1529425Y1181356D01*
X1531434Y1183365D01*
X1532855Y1185825D01*
X1533590Y1188569D01*
Y1191411D01*
X1532855Y1194155D01*
X1531434Y1196615D01*
X1529425Y1198624D01*
X1526965Y1200045D01*
X1524220Y1200780D01*
D02*
G37*
G36*
X1499220D02*
X1496380D01*
X1493635Y1200045D01*
X1491175Y1198624D01*
X1489166Y1196615D01*
X1487745Y1194155D01*
X1487010Y1191411D01*
Y1188569D01*
X1487745Y1185825D01*
X1489166Y1183365D01*
X1491175Y1181356D01*
X1493635Y1179935D01*
X1496380Y1179200D01*
X1499220D01*
X1501965Y1179935D01*
X1504425Y1181356D01*
X1506434Y1183365D01*
X1507855Y1185825D01*
X1508590Y1188569D01*
Y1191411D01*
X1507855Y1194155D01*
X1506434Y1196615D01*
X1504425Y1198624D01*
X1501965Y1200045D01*
X1499220Y1200780D01*
D02*
G37*
G36*
X1204260Y1188720D02*
X1194740D01*
Y1179200D01*
X1194891D01*
X1197635Y1179935D01*
X1200095Y1181356D01*
X1202104Y1183365D01*
X1203525Y1185825D01*
X1204260Y1188569D01*
Y1188720D01*
D02*
G37*
G36*
X1192200D02*
X1182680D01*
Y1188569D01*
X1183415Y1185825D01*
X1184836Y1183365D01*
X1186845Y1181356D01*
X1189305Y1179935D01*
X1192049Y1179200D01*
X1192200D01*
Y1188720D01*
D02*
G37*
G36*
X1169891Y1200780D02*
X1167049D01*
X1164305Y1200045D01*
X1161845Y1198624D01*
X1159836Y1196615D01*
X1158415Y1194155D01*
X1157680Y1191411D01*
Y1188569D01*
X1158415Y1185825D01*
X1159836Y1183365D01*
X1161845Y1181356D01*
X1164305Y1179935D01*
X1167049Y1179200D01*
X1169891D01*
X1172635Y1179935D01*
X1175095Y1181356D01*
X1177104Y1183365D01*
X1178525Y1185825D01*
X1179260Y1188569D01*
Y1191411D01*
X1178525Y1194155D01*
X1177104Y1196615D01*
X1175095Y1198624D01*
X1172635Y1200045D01*
X1169891Y1200780D01*
D02*
G37*
G36*
X1144891D02*
X1142049D01*
X1139305Y1200045D01*
X1136845Y1198624D01*
X1134836Y1196615D01*
X1133415Y1194155D01*
X1132680Y1191411D01*
Y1188569D01*
X1133415Y1185825D01*
X1134836Y1183365D01*
X1136845Y1181356D01*
X1139305Y1179935D01*
X1142049Y1179200D01*
X1144891D01*
X1147635Y1179935D01*
X1150095Y1181356D01*
X1152104Y1183365D01*
X1153525Y1185825D01*
X1154260Y1188569D01*
Y1191411D01*
X1153525Y1194155D01*
X1152104Y1196615D01*
X1150095Y1198624D01*
X1147635Y1200045D01*
X1144891Y1200780D01*
D02*
G37*
G36*
X847390Y1188720D02*
X837870D01*
Y1179200D01*
X838020D01*
X840765Y1179935D01*
X843225Y1181356D01*
X845234Y1183365D01*
X846655Y1185825D01*
X847390Y1188569D01*
Y1188720D01*
D02*
G37*
G36*
X835330D02*
X825810D01*
Y1188569D01*
X826545Y1185825D01*
X827966Y1183365D01*
X829975Y1181356D01*
X832435Y1179935D01*
X835180Y1179200D01*
X835330D01*
Y1188720D01*
D02*
G37*
G36*
X813020Y1200780D02*
X810180D01*
X807435Y1200045D01*
X804975Y1198624D01*
X802966Y1196615D01*
X801545Y1194155D01*
X800810Y1191411D01*
Y1188569D01*
X801545Y1185825D01*
X802966Y1183365D01*
X804975Y1181356D01*
X807435Y1179935D01*
X810180Y1179200D01*
X813020D01*
X815765Y1179935D01*
X818225Y1181356D01*
X820234Y1183365D01*
X821655Y1185825D01*
X822390Y1188569D01*
Y1191411D01*
X821655Y1194155D01*
X820234Y1196615D01*
X818225Y1198624D01*
X815765Y1200045D01*
X813020Y1200780D01*
D02*
G37*
G36*
X788020D02*
X785180D01*
X782435Y1200045D01*
X779975Y1198624D01*
X777966Y1196615D01*
X776545Y1194155D01*
X775810Y1191411D01*
Y1188569D01*
X776545Y1185825D01*
X777966Y1183365D01*
X779975Y1181356D01*
X782435Y1179935D01*
X785180Y1179200D01*
X788020D01*
X790765Y1179935D01*
X793225Y1181356D01*
X795234Y1183365D01*
X796655Y1185825D01*
X797390Y1188569D01*
Y1191411D01*
X796655Y1194155D01*
X795234Y1196615D01*
X793225Y1198624D01*
X790765Y1200045D01*
X788020Y1200780D01*
D02*
G37*
G36*
X491320Y1188720D02*
X481800D01*
Y1179200D01*
X481950D01*
X484695Y1179935D01*
X487155Y1181356D01*
X489164Y1183365D01*
X490585Y1185825D01*
X491320Y1188569D01*
Y1188720D01*
D02*
G37*
G36*
X479260D02*
X469740D01*
Y1188569D01*
X470475Y1185825D01*
X471896Y1183365D01*
X473905Y1181356D01*
X476365Y1179935D01*
X479109Y1179200D01*
X479260D01*
Y1188720D01*
D02*
G37*
G36*
X456950Y1200780D02*
X454109D01*
X451365Y1200045D01*
X448905Y1198624D01*
X446896Y1196615D01*
X445475Y1194155D01*
X444740Y1191411D01*
Y1188569D01*
X445475Y1185825D01*
X446896Y1183365D01*
X448905Y1181356D01*
X451365Y1179935D01*
X454109Y1179200D01*
X456950D01*
X459695Y1179935D01*
X462155Y1181356D01*
X464164Y1183365D01*
X465585Y1185825D01*
X466320Y1188569D01*
Y1191411D01*
X465585Y1194155D01*
X464164Y1196615D01*
X462155Y1198624D01*
X459695Y1200045D01*
X456950Y1200780D01*
D02*
G37*
G36*
X431950D02*
X429109D01*
X426365Y1200045D01*
X423905Y1198624D01*
X421896Y1196615D01*
X420475Y1194155D01*
X419740Y1191411D01*
Y1188569D01*
X420475Y1185825D01*
X421896Y1183365D01*
X423905Y1181356D01*
X426365Y1179935D01*
X429109Y1179200D01*
X431950D01*
X434695Y1179935D01*
X437155Y1181356D01*
X439164Y1183365D01*
X440585Y1185825D01*
X441320Y1188569D01*
Y1191411D01*
X440585Y1194155D01*
X439164Y1196615D01*
X437155Y1198624D01*
X434695Y1200045D01*
X431950Y1200780D01*
D02*
G37*
G36*
X1474220D02*
X1471380D01*
X1468635Y1200045D01*
X1466175Y1198624D01*
X1464166Y1196615D01*
X1462745Y1194155D01*
X1462010Y1191411D01*
Y1188569D01*
X1462745Y1185825D01*
X1464166Y1183365D01*
X1466175Y1181356D01*
X1468635Y1179935D01*
X1469121Y1179805D01*
Y1126780D01*
X1467741Y1125984D01*
X1466086Y1124329D01*
X1464916Y1122301D01*
X1464310Y1120040D01*
Y1117700D01*
X1464916Y1115439D01*
X1465712Y1114059D01*
X1464947Y1112143D01*
X1464387Y1111519D01*
X1458380D01*
X1451879Y1118019D01*
Y1179912D01*
X1451965Y1179935D01*
X1454425Y1181356D01*
X1456434Y1183365D01*
X1457855Y1185825D01*
X1458590Y1188569D01*
Y1191411D01*
X1457855Y1194155D01*
X1456434Y1196615D01*
X1454425Y1198624D01*
X1451965Y1200045D01*
X1449220Y1200780D01*
X1446380D01*
X1443635Y1200045D01*
X1441175Y1198624D01*
X1439166Y1196615D01*
X1437745Y1194155D01*
X1437010Y1191411D01*
Y1188569D01*
X1437745Y1185825D01*
X1439166Y1183365D01*
X1441175Y1181356D01*
X1443635Y1179935D01*
X1443721Y1179912D01*
Y1116330D01*
X1444032Y1114769D01*
X1444916Y1113446D01*
X1453806Y1104556D01*
X1455129Y1103672D01*
X1456690Y1103361D01*
X1523710D01*
X1524506Y1101981D01*
X1526161Y1100326D01*
X1528189Y1099156D01*
X1530450Y1098550D01*
X1532790D01*
X1535051Y1099156D01*
X1537079Y1100326D01*
X1538734Y1101981D01*
X1539904Y1104009D01*
X1540510Y1106270D01*
Y1108610D01*
X1539904Y1110871D01*
X1538734Y1112899D01*
X1537079Y1114554D01*
X1535051Y1115724D01*
X1532790Y1116330D01*
X1530450D01*
X1528189Y1115724D01*
X1526161Y1114554D01*
X1524506Y1112899D01*
X1523710Y1111519D01*
X1482013D01*
X1481453Y1112143D01*
X1480688Y1114059D01*
X1481484Y1115439D01*
X1482090Y1117700D01*
Y1120040D01*
X1481484Y1122301D01*
X1480314Y1124329D01*
X1478659Y1125984D01*
X1477279Y1126780D01*
Y1180117D01*
X1479425Y1181356D01*
X1481434Y1183365D01*
X1482855Y1185825D01*
X1483590Y1188569D01*
Y1191411D01*
X1482855Y1194155D01*
X1481434Y1196615D01*
X1479425Y1198624D01*
X1476965Y1200045D01*
X1474220Y1200780D01*
D02*
G37*
G36*
X1119891D02*
X1117049D01*
X1114305Y1200045D01*
X1111845Y1198624D01*
X1109836Y1196615D01*
X1108415Y1194155D01*
X1107680Y1191411D01*
Y1188569D01*
X1108415Y1185825D01*
X1109836Y1183365D01*
X1111845Y1181356D01*
X1114305Y1179935D01*
X1114591Y1179859D01*
Y1126553D01*
X1113482Y1125913D01*
X1111827Y1124258D01*
X1110657Y1122231D01*
X1110051Y1119969D01*
Y1117629D01*
X1110657Y1115368D01*
X1111412Y1114059D01*
X1110566Y1112043D01*
X1110057Y1111519D01*
X1104050D01*
X1097549Y1118019D01*
Y1179912D01*
X1097635Y1179935D01*
X1100095Y1181356D01*
X1102104Y1183365D01*
X1103525Y1185825D01*
X1104260Y1188569D01*
Y1191411D01*
X1103525Y1194155D01*
X1102104Y1196615D01*
X1100095Y1198624D01*
X1097635Y1200045D01*
X1094891Y1200780D01*
X1092049D01*
X1089305Y1200045D01*
X1086845Y1198624D01*
X1084836Y1196615D01*
X1083415Y1194155D01*
X1082680Y1191411D01*
Y1188569D01*
X1083415Y1185825D01*
X1084836Y1183365D01*
X1086845Y1181356D01*
X1089305Y1179935D01*
X1089391Y1179912D01*
Y1116330D01*
X1089702Y1114769D01*
X1090586Y1113446D01*
X1099476Y1104556D01*
X1100799Y1103672D01*
X1102360Y1103361D01*
X1169380D01*
X1170176Y1101981D01*
X1171831Y1100326D01*
X1173859Y1099156D01*
X1176120Y1098550D01*
X1178460D01*
X1180721Y1099156D01*
X1182749Y1100326D01*
X1184404Y1101981D01*
X1185574Y1104009D01*
X1186180Y1106270D01*
Y1108610D01*
X1185574Y1110871D01*
X1184404Y1112899D01*
X1182749Y1114554D01*
X1180721Y1115724D01*
X1178460Y1116330D01*
X1176120D01*
X1173859Y1115724D01*
X1171831Y1114554D01*
X1170176Y1112899D01*
X1169380Y1111519D01*
X1127825D01*
X1127315Y1112043D01*
X1126469Y1114059D01*
X1127225Y1115368D01*
X1127831Y1117629D01*
Y1119969D01*
X1127225Y1122231D01*
X1126055Y1124258D01*
X1124399Y1125913D01*
X1122749Y1126866D01*
Y1180001D01*
X1125095Y1181356D01*
X1127104Y1183365D01*
X1128525Y1185825D01*
X1129260Y1188569D01*
Y1191411D01*
X1128525Y1194155D01*
X1127104Y1196615D01*
X1125095Y1198624D01*
X1122635Y1200045D01*
X1119891Y1200780D01*
D02*
G37*
G36*
X763020D02*
X760180D01*
X757435Y1200045D01*
X754975Y1198624D01*
X752966Y1196615D01*
X751545Y1194155D01*
X750810Y1191411D01*
Y1188569D01*
X751545Y1185825D01*
X752966Y1183365D01*
X754975Y1181356D01*
X757435Y1179935D01*
X757721Y1179859D01*
Y1125395D01*
X756541Y1124714D01*
X754886Y1123059D01*
X753716Y1121031D01*
X753110Y1118770D01*
Y1116430D01*
X753716Y1114169D01*
X754243Y1113255D01*
X753287Y1110646D01*
X753055Y1110429D01*
X752241Y1110267D01*
X740679Y1121830D01*
Y1179912D01*
X740765Y1179935D01*
X743225Y1181356D01*
X745234Y1183365D01*
X746655Y1185825D01*
X747390Y1188569D01*
Y1191411D01*
X746655Y1194155D01*
X745234Y1196615D01*
X743225Y1198624D01*
X740765Y1200045D01*
X738020Y1200780D01*
X735180D01*
X732435Y1200045D01*
X729975Y1198624D01*
X727966Y1196615D01*
X726545Y1194155D01*
X725810Y1191411D01*
Y1188569D01*
X726545Y1185825D01*
X727966Y1183365D01*
X729975Y1181356D01*
X732435Y1179935D01*
X732521Y1179912D01*
Y1120140D01*
X732832Y1118579D01*
X733716Y1117256D01*
X748956Y1102016D01*
X750279Y1101132D01*
X751840Y1100821D01*
X820130D01*
X820926Y1099441D01*
X822581Y1097786D01*
X824609Y1096616D01*
X826870Y1096010D01*
X829210D01*
X831471Y1096616D01*
X833499Y1097786D01*
X835154Y1099441D01*
X836324Y1101469D01*
X836930Y1103730D01*
Y1106070D01*
X836324Y1108331D01*
X835154Y1110359D01*
X833499Y1112014D01*
X831471Y1113184D01*
X829210Y1113790D01*
X826870D01*
X824609Y1113184D01*
X822581Y1112014D01*
X820926Y1110359D01*
X820130Y1108979D01*
X769543D01*
X768491Y1111519D01*
X769114Y1112141D01*
X770284Y1114169D01*
X770890Y1116430D01*
Y1118770D01*
X770284Y1121031D01*
X769114Y1123059D01*
X767459Y1124714D01*
X765879Y1125626D01*
Y1180001D01*
X768225Y1181356D01*
X770234Y1183365D01*
X771655Y1185825D01*
X772390Y1188569D01*
Y1191411D01*
X771655Y1194155D01*
X770234Y1196615D01*
X768225Y1198624D01*
X765765Y1200045D01*
X763020Y1200780D01*
D02*
G37*
G36*
X406950D02*
X404109D01*
X401365Y1200045D01*
X398905Y1198624D01*
X396896Y1196615D01*
X395475Y1194155D01*
X394740Y1191411D01*
Y1188569D01*
X395475Y1185825D01*
X396896Y1183365D01*
X398905Y1181356D01*
X401365Y1179935D01*
X401451Y1179912D01*
Y1125008D01*
X400941Y1124714D01*
X399286Y1123059D01*
X398116Y1121031D01*
X397510Y1118770D01*
Y1116430D01*
X398116Y1114169D01*
X399286Y1112141D01*
X399823Y1111605D01*
X398933Y1109383D01*
X396510Y1109128D01*
X383809Y1121830D01*
Y1179698D01*
X384695Y1179935D01*
X387155Y1181356D01*
X389164Y1183365D01*
X390585Y1185825D01*
X391320Y1188569D01*
Y1191411D01*
X390585Y1194155D01*
X389164Y1196615D01*
X387155Y1198624D01*
X384695Y1200045D01*
X381950Y1200780D01*
X379109D01*
X376365Y1200045D01*
X373905Y1198624D01*
X371896Y1196615D01*
X370475Y1194155D01*
X369740Y1191411D01*
Y1188569D01*
X370475Y1185825D01*
X371896Y1183365D01*
X373905Y1181356D01*
X375651Y1180348D01*
Y1120140D01*
X375962Y1118579D01*
X376846Y1117256D01*
X392086Y1102016D01*
X393409Y1101132D01*
X394970Y1100821D01*
X459450D01*
X460246Y1099441D01*
X461901Y1097786D01*
X463929Y1096616D01*
X466190Y1096010D01*
X468530D01*
X470791Y1096616D01*
X472819Y1097786D01*
X474474Y1099441D01*
X475644Y1101469D01*
X476250Y1103730D01*
Y1106070D01*
X475644Y1108331D01*
X474474Y1110359D01*
X472819Y1112014D01*
X470791Y1113184D01*
X468530Y1113790D01*
X466190D01*
X463929Y1113184D01*
X461901Y1112014D01*
X460246Y1110359D01*
X459450Y1108979D01*
X413943D01*
X412891Y1111519D01*
X413514Y1112141D01*
X414684Y1114169D01*
X415290Y1116430D01*
Y1118770D01*
X414684Y1121031D01*
X413514Y1123059D01*
X411859Y1124714D01*
X409831Y1125884D01*
X409609Y1125944D01*
Y1179912D01*
X409695Y1179935D01*
X412155Y1181356D01*
X414164Y1183365D01*
X415585Y1185825D01*
X416320Y1188569D01*
Y1191411D01*
X415585Y1194155D01*
X414164Y1196615D01*
X412155Y1198624D01*
X409695Y1200045D01*
X406950Y1200780D01*
D02*
G37*
G36*
X1521360Y1097280D02*
X1519020D01*
X1516759Y1096674D01*
X1514731Y1095504D01*
X1513076Y1093849D01*
X1512280Y1092469D01*
X1455710D01*
X1454914Y1093849D01*
X1453259Y1095504D01*
X1451231Y1096674D01*
X1448970Y1097280D01*
X1446630D01*
X1444369Y1096674D01*
X1442341Y1095504D01*
X1440686Y1093849D01*
X1439516Y1091821D01*
X1438910Y1089560D01*
Y1087220D01*
X1439516Y1084959D01*
X1440686Y1082931D01*
X1442341Y1081276D01*
X1444369Y1080106D01*
X1446630Y1079500D01*
X1448970D01*
X1451231Y1080106D01*
X1453259Y1081276D01*
X1454914Y1082931D01*
X1455710Y1084311D01*
X1486522D01*
X1487202Y1081771D01*
X1486791Y1081534D01*
X1485136Y1079879D01*
X1483966Y1077851D01*
X1483387Y1075690D01*
X1501113D01*
X1500534Y1077851D01*
X1499364Y1079879D01*
X1497709Y1081534D01*
X1497298Y1081771D01*
X1497978Y1084311D01*
X1512280D01*
X1513076Y1082931D01*
X1514731Y1081276D01*
X1516759Y1080106D01*
X1519020Y1079500D01*
X1521360D01*
X1523621Y1080106D01*
X1525649Y1081276D01*
X1527304Y1082931D01*
X1528474Y1084959D01*
X1529080Y1087220D01*
Y1089560D01*
X1528474Y1091821D01*
X1527304Y1093849D01*
X1525649Y1095504D01*
X1523621Y1096674D01*
X1521360Y1097280D01*
D02*
G37*
G36*
X1167030D02*
X1164690D01*
X1162429Y1096674D01*
X1160401Y1095504D01*
X1158746Y1093849D01*
X1157950Y1092469D01*
X1101380D01*
X1100584Y1093849D01*
X1098929Y1095504D01*
X1096901Y1096674D01*
X1094640Y1097280D01*
X1092300D01*
X1090039Y1096674D01*
X1088011Y1095504D01*
X1086356Y1093849D01*
X1085186Y1091821D01*
X1084580Y1089560D01*
Y1087220D01*
X1085186Y1084959D01*
X1086356Y1082931D01*
X1088011Y1081276D01*
X1090039Y1080106D01*
X1092300Y1079500D01*
X1094640D01*
X1096901Y1080106D01*
X1098929Y1081276D01*
X1100584Y1082931D01*
X1101380Y1084311D01*
X1132192D01*
X1132872Y1081771D01*
X1132461Y1081534D01*
X1130806Y1079879D01*
X1129636Y1077851D01*
X1129057Y1075690D01*
X1146783D01*
X1146204Y1077851D01*
X1145034Y1079879D01*
X1143379Y1081534D01*
X1142968Y1081771D01*
X1143648Y1084311D01*
X1157950D01*
X1158746Y1082931D01*
X1160401Y1081276D01*
X1162429Y1080106D01*
X1164690Y1079500D01*
X1167030D01*
X1169291Y1080106D01*
X1171319Y1081276D01*
X1172974Y1082931D01*
X1174144Y1084959D01*
X1174750Y1087220D01*
Y1089560D01*
X1174144Y1091821D01*
X1172974Y1093849D01*
X1171319Y1095504D01*
X1169291Y1096674D01*
X1167030Y1097280D01*
D02*
G37*
G36*
X811430D02*
X809090D01*
X806829Y1096674D01*
X804801Y1095504D01*
X803146Y1093849D01*
X802350Y1092469D01*
X745780D01*
X744984Y1093849D01*
X743329Y1095504D01*
X741301Y1096674D01*
X739040Y1097280D01*
X736700D01*
X734439Y1096674D01*
X732411Y1095504D01*
X730756Y1093849D01*
X729586Y1091821D01*
X728980Y1089560D01*
Y1087220D01*
X729586Y1084959D01*
X730756Y1082931D01*
X732411Y1081276D01*
X734439Y1080106D01*
X736700Y1079500D01*
X739040D01*
X741301Y1080106D01*
X743329Y1081276D01*
X744984Y1082931D01*
X745780Y1084311D01*
X776592D01*
X777272Y1081771D01*
X776861Y1081534D01*
X775206Y1079879D01*
X774036Y1077851D01*
X773457Y1075690D01*
X791183D01*
X790604Y1077851D01*
X789434Y1079879D01*
X787779Y1081534D01*
X787367Y1081771D01*
X788048Y1084311D01*
X802350D01*
X803146Y1082931D01*
X804801Y1081276D01*
X806829Y1080106D01*
X809090Y1079500D01*
X811430D01*
X813691Y1080106D01*
X815719Y1081276D01*
X817374Y1082931D01*
X818544Y1084959D01*
X819150Y1087220D01*
Y1089560D01*
X818544Y1091821D01*
X817374Y1093849D01*
X815719Y1095504D01*
X813691Y1096674D01*
X811430Y1097280D01*
D02*
G37*
G36*
X453290D02*
X450950D01*
X448689Y1096674D01*
X446661Y1095504D01*
X445006Y1093849D01*
X444210Y1092469D01*
X390180D01*
X389384Y1093849D01*
X387729Y1095504D01*
X385701Y1096674D01*
X383440Y1097280D01*
X381100D01*
X378839Y1096674D01*
X376811Y1095504D01*
X375156Y1093849D01*
X373986Y1091821D01*
X373380Y1089560D01*
Y1087220D01*
X373986Y1084959D01*
X375156Y1082931D01*
X376811Y1081276D01*
X378839Y1080106D01*
X381100Y1079500D01*
X383440D01*
X385701Y1080106D01*
X387729Y1081276D01*
X389384Y1082931D01*
X390180Y1084311D01*
X444210D01*
X445006Y1082931D01*
X446661Y1081276D01*
X448689Y1080106D01*
X450950Y1079500D01*
X453290D01*
X455551Y1080106D01*
X457579Y1081276D01*
X459234Y1082931D01*
X460404Y1084959D01*
X461010Y1087220D01*
Y1089560D01*
X460404Y1091821D01*
X459234Y1093849D01*
X457579Y1095504D01*
X455551Y1096674D01*
X453290Y1097280D01*
D02*
G37*
G36*
X1549400Y1083283D02*
Y1075690D01*
X1556993D01*
X1556414Y1077851D01*
X1555244Y1079879D01*
X1553589Y1081534D01*
X1551561Y1082704D01*
X1549400Y1083283D01*
D02*
G37*
G36*
X1583590Y1200780D02*
X1562010D01*
Y1179200D01*
X1568721D01*
Y1119829D01*
X1476666Y1027774D01*
X1475782Y1026451D01*
X1475471Y1024890D01*
Y1011339D01*
X1438566Y974434D01*
X1437682Y973111D01*
X1437371Y971550D01*
Y838490D01*
X1435991Y837694D01*
X1434336Y836039D01*
X1433166Y834011D01*
X1432560Y831750D01*
Y829410D01*
X1433166Y827149D01*
X1434336Y825121D01*
X1435991Y823466D01*
X1438019Y822296D01*
X1440280Y821690D01*
X1442620D01*
X1444881Y822296D01*
X1446909Y823466D01*
X1448564Y825121D01*
X1449734Y827149D01*
X1450340Y829410D01*
Y831750D01*
X1449734Y834011D01*
X1448564Y836039D01*
X1446909Y837694D01*
X1445529Y838490D01*
Y969861D01*
X1482434Y1006766D01*
X1483318Y1008089D01*
X1483629Y1009650D01*
Y1023201D01*
X1536827Y1076398D01*
X1538336Y1075893D01*
X1538609Y1075690D01*
X1546860D01*
Y1083941D01*
X1546657Y1084214D01*
X1546151Y1085723D01*
X1575684Y1115256D01*
X1576568Y1116579D01*
X1576879Y1118140D01*
Y1179200D01*
X1583590D01*
Y1200780D01*
D02*
G37*
G36*
X1196340Y1083283D02*
Y1075690D01*
X1203933D01*
X1203354Y1077851D01*
X1202184Y1079879D01*
X1200529Y1081534D01*
X1198501Y1082704D01*
X1196340Y1083283D01*
D02*
G37*
G36*
X1229260Y1200780D02*
X1207680D01*
Y1179200D01*
X1214391D01*
Y1120559D01*
X1121066Y1027234D01*
X1120182Y1025911D01*
X1119871Y1024350D01*
Y1010070D01*
X1084236Y974434D01*
X1083352Y973111D01*
X1083041Y971550D01*
Y839760D01*
X1081661Y838964D01*
X1080006Y837309D01*
X1078836Y835281D01*
X1078230Y833020D01*
Y830680D01*
X1078836Y828419D01*
X1080006Y826391D01*
X1081661Y824736D01*
X1083689Y823566D01*
X1085950Y822960D01*
X1088290D01*
X1090551Y823566D01*
X1092579Y824736D01*
X1094234Y826391D01*
X1095404Y828419D01*
X1096010Y830680D01*
Y833020D01*
X1095404Y835281D01*
X1094234Y837309D01*
X1092579Y838964D01*
X1091199Y839760D01*
Y969861D01*
X1126834Y1005496D01*
X1127718Y1006819D01*
X1128029Y1008380D01*
Y1022661D01*
X1184718Y1079349D01*
X1186786Y1077851D01*
X1186207Y1075690D01*
X1193800D01*
Y1083283D01*
X1191639Y1082704D01*
X1190141Y1084772D01*
X1221354Y1115986D01*
X1222238Y1117309D01*
X1222549Y1118870D01*
Y1179200D01*
X1229260D01*
Y1200780D01*
D02*
G37*
G36*
X482600Y1076933D02*
Y1069340D01*
X490193D01*
X489614Y1071501D01*
X488444Y1073529D01*
X486789Y1075184D01*
X484761Y1076354D01*
X482600Y1076933D01*
D02*
G37*
G36*
X480060D02*
X477899Y1076354D01*
X475871Y1075184D01*
X474216Y1073529D01*
X473046Y1071501D01*
X472467Y1069340D01*
X480060D01*
Y1076933D01*
D02*
G37*
G36*
X425450D02*
Y1069340D01*
X433043D01*
X432464Y1071501D01*
X431294Y1073529D01*
X429639Y1075184D01*
X427611Y1076354D01*
X425450Y1076933D01*
D02*
G37*
G36*
X422910D02*
X420749Y1076354D01*
X418721Y1075184D01*
X417066Y1073529D01*
X415896Y1071501D01*
X415317Y1069340D01*
X422910D01*
Y1076933D01*
D02*
G37*
G36*
X1556993Y1073150D02*
X1549400D01*
Y1065557D01*
X1551561Y1066136D01*
X1553589Y1067306D01*
X1555244Y1068961D01*
X1556414Y1070989D01*
X1556993Y1073150D01*
D02*
G37*
G36*
X1546860D02*
X1539267D01*
X1539846Y1070989D01*
X1541016Y1068961D01*
X1542671Y1067306D01*
X1544699Y1066136D01*
X1546860Y1065557D01*
Y1073150D01*
D02*
G37*
G36*
X1501113D02*
X1493520D01*
Y1065557D01*
X1495681Y1066136D01*
X1497709Y1067306D01*
X1499364Y1068961D01*
X1500534Y1070989D01*
X1501113Y1073150D01*
D02*
G37*
G36*
X1490980D02*
X1483387D01*
X1483966Y1070989D01*
X1485136Y1068961D01*
X1486791Y1067306D01*
X1488819Y1066136D01*
X1490980Y1065557D01*
Y1073150D01*
D02*
G37*
G36*
X1203933D02*
X1196340D01*
Y1065557D01*
X1198501Y1066136D01*
X1200529Y1067306D01*
X1202184Y1068961D01*
X1203354Y1070989D01*
X1203933Y1073150D01*
D02*
G37*
G36*
X1193800D02*
X1186207D01*
X1186786Y1070989D01*
X1187956Y1068961D01*
X1189611Y1067306D01*
X1191639Y1066136D01*
X1193800Y1065557D01*
Y1073150D01*
D02*
G37*
G36*
X1146783D02*
X1139190D01*
Y1065557D01*
X1141351Y1066136D01*
X1143379Y1067306D01*
X1145034Y1068961D01*
X1146204Y1070989D01*
X1146783Y1073150D01*
D02*
G37*
G36*
X1136650D02*
X1129057D01*
X1129636Y1070989D01*
X1130806Y1068961D01*
X1132461Y1067306D01*
X1134489Y1066136D01*
X1136650Y1065557D01*
Y1073150D01*
D02*
G37*
G36*
X847063D02*
X839470D01*
Y1065557D01*
X841631Y1066136D01*
X843659Y1067306D01*
X845314Y1068961D01*
X846484Y1070989D01*
X847063Y1073150D01*
D02*
G37*
G36*
X791183D02*
X783590D01*
Y1065557D01*
X785751Y1066136D01*
X787779Y1067306D01*
X789434Y1068961D01*
X790604Y1070989D01*
X791183Y1073150D01*
D02*
G37*
G36*
X781050D02*
X773457D01*
X774036Y1070989D01*
X775206Y1068961D01*
X776861Y1067306D01*
X778889Y1066136D01*
X781050Y1065557D01*
Y1073150D01*
D02*
G37*
G36*
X490193Y1066800D02*
X482600D01*
Y1059207D01*
X484761Y1059786D01*
X486789Y1060956D01*
X488444Y1062611D01*
X489614Y1064639D01*
X490193Y1066800D01*
D02*
G37*
G36*
X480060D02*
X472467D01*
X473046Y1064639D01*
X474216Y1062611D01*
X475871Y1060956D01*
X477899Y1059786D01*
X480060Y1059207D01*
Y1066800D01*
D02*
G37*
G36*
X433043D02*
X425450D01*
Y1059207D01*
X427611Y1059786D01*
X429639Y1060956D01*
X431294Y1062611D01*
X432464Y1064639D01*
X433043Y1066800D01*
D02*
G37*
G36*
X422910D02*
X415317D01*
X415896Y1064639D01*
X417066Y1062611D01*
X418721Y1060956D01*
X420749Y1059786D01*
X422910Y1059207D01*
Y1066800D01*
D02*
G37*
G36*
X1433730Y1056640D02*
X1431390D01*
X1429129Y1056034D01*
X1427101Y1054864D01*
X1425446Y1053209D01*
X1424276Y1051181D01*
X1423670Y1048920D01*
Y1046580D01*
X1424082Y1045041D01*
X1408011Y1028969D01*
X1395730D01*
X1394169Y1028658D01*
X1392846Y1027774D01*
X1380146Y1015074D01*
X1379262Y1013751D01*
X1378951Y1012190D01*
Y914819D01*
X1367845Y903713D01*
X1365127Y903955D01*
X1364744Y904619D01*
X1363089Y906274D01*
X1361061Y907444D01*
X1358800Y908050D01*
X1356460D01*
X1354199Y907444D01*
X1352171Y906274D01*
X1350516Y904619D01*
X1349346Y902591D01*
X1348740Y900330D01*
Y897990D01*
X1349346Y895729D01*
X1350516Y893701D01*
X1352171Y892046D01*
X1354199Y890876D01*
X1356460Y890270D01*
X1358800D01*
X1361061Y890876D01*
X1361171Y890939D01*
X1363711Y889473D01*
Y847510D01*
X1360339Y844138D01*
X1358800Y844550D01*
X1356460D01*
X1354199Y843944D01*
X1352171Y842774D01*
X1350516Y841119D01*
X1349346Y839091D01*
X1348740Y836830D01*
Y834490D01*
X1349346Y832229D01*
X1350516Y830201D01*
X1352171Y828546D01*
X1354199Y827376D01*
X1356460Y826770D01*
X1358800D01*
X1361061Y827376D01*
X1363089Y828546D01*
X1364744Y830201D01*
X1365914Y832229D01*
X1366520Y834490D01*
Y836830D01*
X1366108Y838369D01*
X1370674Y842936D01*
X1371558Y844259D01*
X1371869Y845820D01*
Y896200D01*
X1371944Y896276D01*
X1371944Y896276D01*
X1385914Y910246D01*
X1386798Y911569D01*
X1387109Y913130D01*
Y1010500D01*
X1397419Y1020811D01*
X1409700D01*
X1411261Y1021122D01*
X1412584Y1022006D01*
X1429851Y1039272D01*
X1431390Y1038860D01*
X1433730D01*
X1435991Y1039466D01*
X1438019Y1040636D01*
X1439674Y1042291D01*
X1440844Y1044319D01*
X1441450Y1046580D01*
Y1048920D01*
X1440844Y1051181D01*
X1439674Y1053209D01*
X1438019Y1054864D01*
X1435991Y1056034D01*
X1433730Y1056640D01*
D02*
G37*
G36*
X1078130Y1054100D02*
X1075790D01*
X1073529Y1053494D01*
X1071501Y1052324D01*
X1069846Y1050669D01*
X1068676Y1048641D01*
X1068070Y1046380D01*
Y1044040D01*
X1068482Y1042501D01*
X1054950Y1028969D01*
X1040130D01*
X1038569Y1028658D01*
X1037246Y1027774D01*
X1024546Y1015074D01*
X1023662Y1013751D01*
X1023351Y1012190D01*
Y916089D01*
X1012005Y904743D01*
X1010109Y904661D01*
X1008745Y905019D01*
X1008716Y905046D01*
X1007489Y906274D01*
X1005461Y907444D01*
X1003200Y908050D01*
X1000860D01*
X998599Y907444D01*
X996571Y906274D01*
X994916Y904619D01*
X993746Y902591D01*
X993140Y900330D01*
Y897990D01*
X993746Y895729D01*
X994916Y893701D01*
X996571Y892046D01*
X998599Y890876D01*
X1000860Y890270D01*
X1003200D01*
X1005461Y890876D01*
X1006841Y891672D01*
X1008757Y890907D01*
X1009381Y890347D01*
Y847510D01*
X1004739Y842868D01*
X1003200Y843280D01*
X1000860D01*
X998599Y842674D01*
X996571Y841504D01*
X994916Y839849D01*
X993746Y837821D01*
X993140Y835560D01*
Y833220D01*
X993746Y830959D01*
X994916Y828931D01*
X996571Y827276D01*
X998599Y826106D01*
X1000860Y825500D01*
X1003200D01*
X1005461Y826106D01*
X1007489Y827276D01*
X1009144Y828931D01*
X1010314Y830959D01*
X1010920Y833220D01*
Y835560D01*
X1010508Y837099D01*
X1016344Y842936D01*
X1017228Y844259D01*
X1017539Y845820D01*
Y898740D01*
X1030314Y911516D01*
X1031198Y912839D01*
X1031509Y914400D01*
Y1010500D01*
X1041820Y1020811D01*
X1056640D01*
X1058201Y1021122D01*
X1059524Y1022006D01*
X1074251Y1036732D01*
X1075790Y1036320D01*
X1078130D01*
X1080391Y1036926D01*
X1082419Y1038096D01*
X1084074Y1039751D01*
X1085244Y1041779D01*
X1085850Y1044040D01*
Y1046380D01*
X1085244Y1048641D01*
X1084074Y1050669D01*
X1082419Y1052324D01*
X1080391Y1053494D01*
X1078130Y1054100D01*
D02*
G37*
G36*
X722530D02*
X720190D01*
X717929Y1053494D01*
X715901Y1052324D01*
X714246Y1050669D01*
X713076Y1048641D01*
X712470Y1046380D01*
Y1044040D01*
X712882Y1042501D01*
X699351Y1028969D01*
X683260D01*
X681699Y1028658D01*
X680376Y1027774D01*
X668946Y1016344D01*
X668062Y1015021D01*
X667751Y1013460D01*
Y917359D01*
X655375Y904983D01*
X652657Y905225D01*
X652274Y905889D01*
X650619Y907544D01*
X648591Y908714D01*
X646330Y909320D01*
X643990D01*
X641729Y908714D01*
X639701Y907544D01*
X638046Y905889D01*
X636876Y903861D01*
X636270Y901600D01*
Y899260D01*
X636876Y896999D01*
X638046Y894971D01*
X639701Y893316D01*
X641729Y892146D01*
X643990Y891540D01*
X646330D01*
X648591Y892146D01*
X649971Y892942D01*
X651887Y892177D01*
X652511Y891617D01*
Y857670D01*
X647869Y853028D01*
X646330Y853440D01*
X643990D01*
X641729Y852834D01*
X639701Y851664D01*
X638046Y850009D01*
X636876Y847981D01*
X636270Y845720D01*
Y843380D01*
X636876Y841119D01*
X638046Y839091D01*
X639701Y837436D01*
X641729Y836266D01*
X643990Y835660D01*
X646330D01*
X648591Y836266D01*
X650619Y837436D01*
X652274Y839091D01*
X653444Y841119D01*
X654050Y843380D01*
Y845720D01*
X653638Y847259D01*
X659474Y853096D01*
X660358Y854419D01*
X660669Y855980D01*
Y898740D01*
X674714Y912786D01*
X675598Y914109D01*
X675909Y915670D01*
Y1011770D01*
X684949Y1020811D01*
X701040D01*
X702601Y1021122D01*
X703924Y1022006D01*
X718651Y1036732D01*
X720190Y1036320D01*
X722530D01*
X724791Y1036926D01*
X726819Y1038096D01*
X728474Y1039751D01*
X729644Y1041779D01*
X730250Y1044040D01*
Y1046380D01*
X729644Y1048641D01*
X728474Y1050669D01*
X726819Y1052324D01*
X724791Y1053494D01*
X722530Y1054100D01*
D02*
G37*
G36*
X368200D02*
X365860D01*
X363599Y1053494D01*
X361571Y1052324D01*
X359916Y1050669D01*
X358746Y1048641D01*
X358140Y1046380D01*
Y1044040D01*
X358552Y1042501D01*
X345020Y1028969D01*
X332740D01*
X331179Y1028658D01*
X329856Y1027774D01*
X313346Y1011264D01*
X312462Y1009941D01*
X312151Y1008380D01*
Y918630D01*
X299535Y906013D01*
X297639Y905931D01*
X296275Y906289D01*
X296246Y906316D01*
X295019Y907544D01*
X292991Y908714D01*
X290730Y909320D01*
X288390D01*
X286129Y908714D01*
X284101Y907544D01*
X282446Y905889D01*
X281276Y903861D01*
X280670Y901600D01*
Y899260D01*
X281276Y896999D01*
X282446Y894971D01*
X284101Y893316D01*
X286129Y892146D01*
X288390Y891540D01*
X290730D01*
X292991Y892146D01*
X294371Y892942D01*
X296287Y892177D01*
X296911Y891617D01*
Y857670D01*
X292269Y853028D01*
X290730Y853440D01*
X288390D01*
X286129Y852834D01*
X284101Y851664D01*
X282446Y850009D01*
X281276Y847981D01*
X280670Y845720D01*
Y843380D01*
X281276Y841119D01*
X282446Y839091D01*
X284101Y837436D01*
X286129Y836266D01*
X288390Y835660D01*
X290730D01*
X292991Y836266D01*
X295019Y837436D01*
X296674Y839091D01*
X297844Y841119D01*
X298450Y843380D01*
Y845720D01*
X298038Y847259D01*
X303874Y853096D01*
X304758Y854419D01*
X305069Y855980D01*
Y900011D01*
X319114Y914056D01*
X319998Y915379D01*
X320309Y916940D01*
Y1006691D01*
X323172Y1009553D01*
X325449Y1008239D01*
X325147Y1007110D01*
X332740D01*
Y1014703D01*
X331611Y1014401D01*
X330297Y1016678D01*
X334430Y1020811D01*
X346710D01*
X348271Y1021122D01*
X349594Y1022006D01*
X364321Y1036732D01*
X365860Y1036320D01*
X368200D01*
X370461Y1036926D01*
X372489Y1038096D01*
X374144Y1039751D01*
X375314Y1041779D01*
X375920Y1044040D01*
Y1046380D01*
X375314Y1048641D01*
X374144Y1050669D01*
X372489Y1052324D01*
X370461Y1053494D01*
X368200Y1054100D01*
D02*
G37*
G36*
X1307779Y1033876D02*
Y1026283D01*
X1315372D01*
X1314793Y1028445D01*
X1313622Y1030472D01*
X1311967Y1032127D01*
X1309940Y1033297D01*
X1307779Y1033876D01*
D02*
G37*
G36*
X1305239D02*
X1303077Y1033297D01*
X1301050Y1032127D01*
X1299395Y1030472D01*
X1298225Y1028445D01*
X1297645Y1026283D01*
X1305239D01*
Y1033876D01*
D02*
G37*
G36*
X1662430Y1033753D02*
Y1026160D01*
X1670023D01*
X1669444Y1028321D01*
X1668274Y1030349D01*
X1666619Y1032004D01*
X1664591Y1033174D01*
X1662430Y1033753D01*
D02*
G37*
G36*
X1659890D02*
X1657729Y1033174D01*
X1655701Y1032004D01*
X1654046Y1030349D01*
X1652876Y1028321D01*
X1652297Y1026160D01*
X1659890D01*
Y1033753D01*
D02*
G37*
G36*
X952500D02*
Y1026160D01*
X960093D01*
X959514Y1028321D01*
X958344Y1030349D01*
X956689Y1032004D01*
X954661Y1033174D01*
X952500Y1033753D01*
D02*
G37*
G36*
X949960D02*
X947799Y1033174D01*
X945771Y1032004D01*
X944116Y1030349D01*
X942946Y1028321D01*
X942367Y1026160D01*
X949960D01*
Y1033753D01*
D02*
G37*
G36*
X594360Y1027403D02*
Y1019810D01*
X601953D01*
X601374Y1021971D01*
X600204Y1023999D01*
X598549Y1025654D01*
X596521Y1026824D01*
X594360Y1027403D01*
D02*
G37*
G36*
X591820D02*
X589659Y1026824D01*
X587631Y1025654D01*
X585976Y1023999D01*
X584806Y1021971D01*
X584227Y1019810D01*
X591820D01*
Y1027403D01*
D02*
G37*
G36*
X1315372Y1023743D02*
X1307779D01*
Y1016150D01*
X1309940Y1016729D01*
X1311967Y1017899D01*
X1313622Y1019555D01*
X1314793Y1021582D01*
X1315372Y1023743D01*
D02*
G37*
G36*
X1305239D02*
X1297645D01*
X1298225Y1021582D01*
X1299395Y1019555D01*
X1301050Y1017899D01*
X1303077Y1016729D01*
X1305239Y1016150D01*
Y1023743D01*
D02*
G37*
G36*
X1670023Y1023620D02*
X1662430D01*
Y1016027D01*
X1664591Y1016606D01*
X1666619Y1017776D01*
X1668274Y1019431D01*
X1669444Y1021459D01*
X1670023Y1023620D01*
D02*
G37*
G36*
X1659890D02*
X1652297D01*
X1652876Y1021459D01*
X1654046Y1019431D01*
X1655701Y1017776D01*
X1657729Y1016606D01*
X1659890Y1016027D01*
Y1023620D01*
D02*
G37*
G36*
X960093D02*
X952500D01*
Y1016027D01*
X954661Y1016606D01*
X956689Y1017776D01*
X958344Y1019431D01*
X959514Y1021459D01*
X960093Y1023620D01*
D02*
G37*
G36*
X949960D02*
X942367D01*
X942946Y1021459D01*
X944116Y1019431D01*
X945771Y1017776D01*
X947799Y1016606D01*
X949960Y1016027D01*
Y1023620D01*
D02*
G37*
G36*
X601953Y1017270D02*
X594360D01*
Y1009677D01*
X596521Y1010256D01*
X598549Y1011426D01*
X600204Y1013081D01*
X601374Y1015109D01*
X601953Y1017270D01*
D02*
G37*
G36*
X591820D02*
X584227D01*
X584806Y1015109D01*
X585976Y1013081D01*
X587631Y1011426D01*
X589659Y1010256D01*
X591820Y1009677D01*
Y1017270D01*
D02*
G37*
G36*
X1402080Y1014703D02*
Y1007110D01*
X1409673D01*
X1409094Y1009271D01*
X1407924Y1011299D01*
X1406269Y1012954D01*
X1404241Y1014124D01*
X1402080Y1014703D01*
D02*
G37*
G36*
X1399540D02*
X1397379Y1014124D01*
X1395351Y1012954D01*
X1393696Y1011299D01*
X1392526Y1009271D01*
X1391947Y1007110D01*
X1399540D01*
Y1014703D01*
D02*
G37*
G36*
X1047750D02*
Y1007110D01*
X1055343D01*
X1054764Y1009271D01*
X1053594Y1011299D01*
X1051939Y1012954D01*
X1049911Y1014124D01*
X1047750Y1014703D01*
D02*
G37*
G36*
X1045210D02*
X1043049Y1014124D01*
X1041021Y1012954D01*
X1039366Y1011299D01*
X1038196Y1009271D01*
X1037617Y1007110D01*
X1045210D01*
Y1014703D01*
D02*
G37*
G36*
X692150D02*
Y1007110D01*
X699743D01*
X699164Y1009271D01*
X697994Y1011299D01*
X696339Y1012954D01*
X694311Y1014124D01*
X692150Y1014703D01*
D02*
G37*
G36*
X689610D02*
X687449Y1014124D01*
X685421Y1012954D01*
X683766Y1011299D01*
X682596Y1009271D01*
X682017Y1007110D01*
X689610D01*
Y1014703D01*
D02*
G37*
G36*
X335280D02*
Y1007110D01*
X342873D01*
X342294Y1009271D01*
X341124Y1011299D01*
X339469Y1012954D01*
X337441Y1014124D01*
X335280Y1014703D01*
D02*
G37*
G36*
X1409673Y1004570D02*
X1402080D01*
Y996977D01*
X1404241Y997556D01*
X1406269Y998726D01*
X1407924Y1000381D01*
X1409094Y1002409D01*
X1409673Y1004570D01*
D02*
G37*
G36*
X1399540D02*
X1391947D01*
X1392526Y1002409D01*
X1393696Y1000381D01*
X1395351Y998726D01*
X1397379Y997556D01*
X1399540Y996977D01*
Y1004570D01*
D02*
G37*
G36*
X1055343D02*
X1047750D01*
Y996977D01*
X1049911Y997556D01*
X1051939Y998726D01*
X1053594Y1000381D01*
X1054764Y1002409D01*
X1055343Y1004570D01*
D02*
G37*
G36*
X1045210D02*
X1037617D01*
X1038196Y1002409D01*
X1039366Y1000381D01*
X1041021Y998726D01*
X1043049Y997556D01*
X1045210Y996977D01*
Y1004570D01*
D02*
G37*
G36*
X699743D02*
X692150D01*
Y996977D01*
X694311Y997556D01*
X696339Y998726D01*
X697994Y1000381D01*
X699164Y1002409D01*
X699743Y1004570D01*
D02*
G37*
G36*
X689610D02*
X682017D01*
X682596Y1002409D01*
X683766Y1000381D01*
X685421Y998726D01*
X687449Y997556D01*
X689610Y996977D01*
Y1004570D01*
D02*
G37*
G36*
X342873D02*
X335280D01*
Y996977D01*
X337441Y997556D01*
X339469Y998726D01*
X341124Y1000381D01*
X342294Y1002409D01*
X342873Y1004570D01*
D02*
G37*
G36*
X332740D02*
X325147D01*
X325726Y1002409D01*
X326896Y1000381D01*
X328551Y998726D01*
X330579Y997556D01*
X332740Y996977D01*
Y1004570D01*
D02*
G37*
G36*
X1432560Y996923D02*
Y989330D01*
X1440153D01*
X1439574Y991491D01*
X1438404Y993519D01*
X1436749Y995174D01*
X1434721Y996344D01*
X1432560Y996923D01*
D02*
G37*
G36*
X1430020D02*
X1427859Y996344D01*
X1425831Y995174D01*
X1424176Y993519D01*
X1423006Y991491D01*
X1422427Y989330D01*
X1430020D01*
Y996923D01*
D02*
G37*
G36*
X1078230Y995653D02*
Y988060D01*
X1085823D01*
X1085244Y990221D01*
X1084074Y992249D01*
X1082419Y993904D01*
X1080391Y995074D01*
X1078230Y995653D01*
D02*
G37*
G36*
X1075690D02*
X1073529Y995074D01*
X1071501Y993904D01*
X1069846Y992249D01*
X1068676Y990221D01*
X1068097Y988060D01*
X1075690D01*
Y995653D01*
D02*
G37*
G36*
X366185Y995130D02*
Y987537D01*
X373779D01*
X373200Y989699D01*
X372029Y991726D01*
X370374Y993381D01*
X368347Y994551D01*
X366185Y995130D01*
D02*
G37*
G36*
X363645D02*
X361484Y994551D01*
X359457Y993381D01*
X357802Y991726D01*
X356631Y989699D01*
X356052Y987537D01*
X363645D01*
Y995130D01*
D02*
G37*
G36*
X722439Y994383D02*
Y986790D01*
X730033D01*
X729454Y988951D01*
X728283Y990979D01*
X726628Y992634D01*
X724601Y993804D01*
X722439Y994383D01*
D02*
G37*
G36*
X719900D02*
X717738Y993804D01*
X715711Y992634D01*
X714056Y990979D01*
X712885Y988951D01*
X712306Y986790D01*
X719900D01*
Y994383D01*
D02*
G37*
G36*
X1440153Y986790D02*
X1432560D01*
Y979197D01*
X1434721Y979776D01*
X1436749Y980946D01*
X1438404Y982601D01*
X1439574Y984629D01*
X1440153Y986790D01*
D02*
G37*
G36*
X1430020D02*
X1422427D01*
X1423006Y984629D01*
X1424176Y982601D01*
X1425831Y980946D01*
X1427859Y979776D01*
X1430020Y979197D01*
Y986790D01*
D02*
G37*
G36*
X1085823Y985520D02*
X1078230D01*
Y977927D01*
X1080391Y978506D01*
X1082419Y979676D01*
X1084074Y981331D01*
X1085244Y983359D01*
X1085823Y985520D01*
D02*
G37*
G36*
X1075690D02*
X1068097D01*
X1068676Y983359D01*
X1069846Y981331D01*
X1071501Y979676D01*
X1073529Y978506D01*
X1075690Y977927D01*
Y985520D01*
D02*
G37*
G36*
X373779Y984997D02*
X366185D01*
Y977404D01*
X368347Y977983D01*
X370374Y979153D01*
X372029Y980809D01*
X373200Y982836D01*
X373779Y984997D01*
D02*
G37*
G36*
X363645D02*
X356052D01*
X356631Y982836D01*
X357802Y980809D01*
X359457Y979153D01*
X361484Y977983D01*
X363645Y977404D01*
Y984997D01*
D02*
G37*
G36*
X730033Y984250D02*
X722439D01*
Y976657D01*
X724601Y977236D01*
X726628Y978406D01*
X728283Y980061D01*
X729454Y982089D01*
X730033Y984250D01*
D02*
G37*
G36*
X719900D02*
X712306D01*
X712885Y982089D01*
X714056Y980061D01*
X715711Y978406D01*
X717738Y977236D01*
X719900Y976657D01*
Y984250D01*
D02*
G37*
G36*
X1308100Y977873D02*
Y970280D01*
X1315693D01*
X1315114Y972441D01*
X1313944Y974469D01*
X1312289Y976124D01*
X1310261Y977294D01*
X1308100Y977873D01*
D02*
G37*
G36*
X1305560D02*
X1303399Y977294D01*
X1301371Y976124D01*
X1299716Y974469D01*
X1298546Y972441D01*
X1297967Y970280D01*
X1305560D01*
Y977873D01*
D02*
G37*
G36*
X952500D02*
Y970280D01*
X960093D01*
X959514Y972441D01*
X958344Y974469D01*
X956689Y976124D01*
X954661Y977294D01*
X952500Y977873D01*
D02*
G37*
G36*
X949960D02*
X947799Y977294D01*
X945771Y976124D01*
X944116Y974469D01*
X942946Y972441D01*
X942367Y970280D01*
X949960D01*
Y977873D01*
D02*
G37*
G36*
X1662277Y977735D02*
Y970142D01*
X1669870D01*
X1669291Y972303D01*
X1668121Y974331D01*
X1666466Y975986D01*
X1664438Y977156D01*
X1662277Y977735D01*
D02*
G37*
G36*
X1659737D02*
X1657576Y977156D01*
X1655549Y975986D01*
X1653893Y974331D01*
X1652723Y972303D01*
X1652144Y970142D01*
X1659737D01*
Y977735D01*
D02*
G37*
G36*
X594360Y971523D02*
Y963930D01*
X601953D01*
X601374Y966091D01*
X600204Y968119D01*
X598549Y969774D01*
X596521Y970944D01*
X594360Y971523D01*
D02*
G37*
G36*
X591820D02*
X589659Y970944D01*
X587631Y969774D01*
X585976Y968119D01*
X584806Y966091D01*
X584227Y963930D01*
X591820D01*
Y971523D01*
D02*
G37*
G36*
X1315693Y967740D02*
X1308100D01*
Y960147D01*
X1310261Y960726D01*
X1312289Y961896D01*
X1313944Y963551D01*
X1315114Y965579D01*
X1315693Y967740D01*
D02*
G37*
G36*
X1305560D02*
X1297967D01*
X1298546Y965579D01*
X1299716Y963551D01*
X1301371Y961896D01*
X1303399Y960726D01*
X1305560Y960147D01*
Y967740D01*
D02*
G37*
G36*
X960093D02*
X952500D01*
Y960147D01*
X954661Y960726D01*
X956689Y961896D01*
X958344Y963551D01*
X959514Y965579D01*
X960093Y967740D01*
D02*
G37*
G36*
X949960D02*
X942367D01*
X942946Y965579D01*
X944116Y963551D01*
X945771Y961896D01*
X947799Y960726D01*
X949960Y960147D01*
Y967740D01*
D02*
G37*
G36*
X1669870Y967602D02*
X1662277D01*
Y960009D01*
X1664438Y960588D01*
X1666466Y961758D01*
X1668121Y963413D01*
X1669291Y965441D01*
X1669870Y967602D01*
D02*
G37*
G36*
X1659737D02*
X1652144D01*
X1652723Y965441D01*
X1653893Y963413D01*
X1655549Y961758D01*
X1657576Y960588D01*
X1659737Y960009D01*
Y967602D01*
D02*
G37*
G36*
X601953Y961390D02*
X594360D01*
Y953797D01*
X596521Y954376D01*
X598549Y955546D01*
X600204Y957201D01*
X601374Y959229D01*
X601953Y961390D01*
D02*
G37*
G36*
X591820D02*
X584227D01*
X584806Y959229D01*
X585976Y957201D01*
X587631Y955546D01*
X589659Y954376D01*
X591820Y953797D01*
Y961390D01*
D02*
G37*
G36*
X1408330Y971550D02*
X1405990D01*
X1403729Y970944D01*
X1401701Y969774D01*
X1400046Y968119D01*
X1398876Y966091D01*
X1398270Y963830D01*
Y961490D01*
X1398682Y959951D01*
X1395386Y956654D01*
X1394502Y955331D01*
X1394191Y953770D01*
Y900430D01*
X1394502Y898869D01*
X1395386Y897546D01*
X1404351Y888580D01*
Y829310D01*
X1404662Y827749D01*
X1405546Y826426D01*
X1439836Y792136D01*
X1441159Y791252D01*
X1442720Y790941D01*
X1486750D01*
X1497061Y780630D01*
Y727019D01*
X1496203Y726524D01*
X1494706Y725027D01*
X1493648Y723193D01*
X1493100Y721149D01*
Y719032D01*
X1493648Y716987D01*
X1494706Y715153D01*
X1496203Y713656D01*
X1498037Y712598D01*
X1500081Y712050D01*
X1502198D01*
X1504243Y712598D01*
X1506077Y713656D01*
X1507574Y715153D01*
X1508632Y716987D01*
X1509180Y719032D01*
Y721149D01*
X1508632Y723193D01*
X1507574Y725027D01*
X1506077Y726524D01*
X1505219Y727019D01*
Y782320D01*
X1504908Y783881D01*
X1504024Y785204D01*
X1494284Y794945D01*
X1495256Y797291D01*
X1531201D01*
X1537061Y791431D01*
Y727019D01*
X1536203Y726524D01*
X1534706Y725027D01*
X1533648Y723193D01*
X1533100Y721149D01*
Y719032D01*
X1533648Y716987D01*
X1534706Y715153D01*
X1536203Y713656D01*
X1538037Y712598D01*
X1540081Y712050D01*
X1542198D01*
X1544243Y712598D01*
X1546077Y713656D01*
X1547574Y715153D01*
X1548632Y716987D01*
X1549180Y719032D01*
Y721149D01*
X1548632Y723193D01*
X1547574Y725027D01*
X1546077Y726524D01*
X1545219Y727019D01*
Y793120D01*
X1544908Y794681D01*
X1544024Y796004D01*
X1535774Y804254D01*
X1534451Y805138D01*
X1532890Y805449D01*
X1449489D01*
X1420129Y834809D01*
Y909030D01*
X1421509Y909826D01*
X1423164Y911481D01*
X1424334Y913509D01*
X1424940Y915770D01*
Y918110D01*
X1424334Y920371D01*
X1423164Y922399D01*
X1421509Y924054D01*
X1419481Y925224D01*
X1417220Y925830D01*
X1414880D01*
X1412619Y925224D01*
X1410591Y924054D01*
X1408936Y922399D01*
X1407766Y920371D01*
X1407160Y918110D01*
Y915770D01*
X1407766Y913509D01*
X1408936Y911481D01*
X1410591Y909826D01*
X1411971Y909030D01*
Y896089D01*
X1409431Y895037D01*
X1402349Y902120D01*
Y952081D01*
X1404451Y954182D01*
X1405990Y953770D01*
X1408330D01*
X1410591Y954376D01*
X1412619Y955546D01*
X1414274Y957201D01*
X1415444Y959229D01*
X1416050Y961490D01*
Y963830D01*
X1415444Y966091D01*
X1414274Y968119D01*
X1412619Y969774D01*
X1410591Y970944D01*
X1408330Y971550D01*
D02*
G37*
G36*
X872390Y1200780D02*
X850810D01*
Y1179200D01*
X857521D01*
Y1117290D01*
X773086Y1032854D01*
X772202Y1031531D01*
X771891Y1029970D01*
Y1018960D01*
X727366Y974434D01*
X726482Y973111D01*
X726171Y971550D01*
Y846110D01*
X724791Y845314D01*
X723136Y843659D01*
X721966Y841631D01*
X721360Y839370D01*
Y837030D01*
X721966Y834769D01*
X722668Y833553D01*
X720635Y831993D01*
X710199Y842430D01*
Y907760D01*
X711579Y908556D01*
X713234Y910211D01*
X714404Y912239D01*
X715010Y914500D01*
Y916840D01*
X714404Y919101D01*
X713234Y921129D01*
X711579Y922784D01*
X709551Y923954D01*
X707290Y924560D01*
X704950D01*
X702689Y923954D01*
X700661Y922784D01*
X699006Y921129D01*
X697836Y919101D01*
X697230Y916840D01*
Y914500D01*
X697836Y912239D01*
X699006Y910211D01*
X700661Y908556D01*
X702041Y907760D01*
Y899769D01*
X701921Y899673D01*
X699501Y898847D01*
X691149Y907199D01*
Y948296D01*
X691224Y948346D01*
X695791Y952912D01*
X697330Y952500D01*
X699670D01*
X701931Y953106D01*
X703959Y954276D01*
X705614Y955931D01*
X706784Y957959D01*
X707390Y960220D01*
Y962560D01*
X706784Y964821D01*
X705614Y966849D01*
X703959Y968504D01*
X701931Y969674D01*
X699670Y970280D01*
X697330D01*
X695069Y969674D01*
X693041Y968504D01*
X691386Y966849D01*
X690216Y964821D01*
X689610Y962560D01*
Y960220D01*
X690022Y958681D01*
X686546Y955205D01*
X685509Y954998D01*
X684186Y954114D01*
X683302Y952791D01*
X682991Y951230D01*
Y905510D01*
X683302Y903949D01*
X684186Y902626D01*
X693151Y893661D01*
Y835660D01*
X693462Y834099D01*
X694346Y832776D01*
X737526Y789596D01*
X738849Y788712D01*
X740410Y788401D01*
X775551D01*
X784100Y779851D01*
Y726735D01*
X783733Y726524D01*
X782236Y725027D01*
X781178Y723193D01*
X780630Y721149D01*
Y719032D01*
X781178Y716987D01*
X782236Y715153D01*
X783733Y713656D01*
X785567Y712598D01*
X787611Y712050D01*
X789728D01*
X791773Y712598D01*
X793607Y713656D01*
X795104Y715153D01*
X796162Y716987D01*
X796710Y719032D01*
Y721149D01*
X796162Y723193D01*
X795104Y725027D01*
X793607Y726524D01*
X792258Y727302D01*
Y781541D01*
X791947Y783102D01*
X791063Y784425D01*
X780737Y794751D01*
X781563Y797171D01*
X781659Y797291D01*
X816190D01*
X824202Y789280D01*
Y726794D01*
X823733Y726524D01*
X822236Y725027D01*
X821178Y723193D01*
X820630Y721149D01*
Y719032D01*
X821178Y716987D01*
X822236Y715153D01*
X823733Y713656D01*
X825567Y712598D01*
X827611Y712050D01*
X829728D01*
X831773Y712598D01*
X833607Y713656D01*
X835104Y715153D01*
X836162Y716987D01*
X836710Y719032D01*
Y721149D01*
X836162Y723193D01*
X835104Y725027D01*
X833607Y726524D01*
X832359Y727244D01*
Y790969D01*
X832049Y792530D01*
X831165Y793854D01*
X820764Y804254D01*
X819441Y805138D01*
X817880Y805449D01*
X814718D01*
X814037Y807989D01*
X814449Y808226D01*
X816104Y809881D01*
X817274Y811909D01*
X817880Y814170D01*
Y816510D01*
X817274Y818771D01*
X816104Y820799D01*
X814449Y822454D01*
X813069Y823250D01*
Y915250D01*
X818299Y920481D01*
X822670D01*
X823466Y919101D01*
X825121Y917446D01*
X827149Y916276D01*
X829410Y915670D01*
X831379D01*
X832053Y914766D01*
X832559Y913257D01*
X821346Y902044D01*
X820462Y900721D01*
X820151Y899160D01*
Y829310D01*
X820462Y827749D01*
X821346Y826426D01*
X828452Y819319D01*
X828040Y817780D01*
Y815440D01*
X828646Y813179D01*
X829816Y811151D01*
X831471Y809496D01*
X833499Y808326D01*
X835760Y807720D01*
X838100D01*
X840361Y808326D01*
X842389Y809496D01*
X844044Y811151D01*
X845214Y813179D01*
X845820Y815440D01*
Y817780D01*
X845214Y820041D01*
X844044Y822069D01*
X842389Y823724D01*
X840361Y824894D01*
X838100Y825500D01*
X835760D01*
X834221Y825088D01*
X828309Y831000D01*
Y897470D01*
X833120Y902282D01*
X835660Y901229D01*
Y900530D01*
X836266Y898269D01*
X837436Y896241D01*
X839091Y894586D01*
X841119Y893416D01*
X843380Y892810D01*
X845720D01*
X847981Y893416D01*
X850009Y894586D01*
X851664Y896241D01*
X852460Y897621D01*
X933450D01*
X935011Y897932D01*
X936334Y898816D01*
X949791Y912272D01*
X951330Y911860D01*
X953670D01*
X955931Y912466D01*
X957959Y913636D01*
X959614Y915291D01*
X960784Y917319D01*
X961390Y919580D01*
Y921920D01*
X960784Y924181D01*
X959614Y926209D01*
X957959Y927864D01*
X956579Y928660D01*
Y933450D01*
X956268Y935011D01*
X955384Y936334D01*
X882919Y1008800D01*
Y1099530D01*
X884299Y1100326D01*
X885954Y1101981D01*
X887124Y1104009D01*
X887730Y1106270D01*
Y1108610D01*
X887124Y1110871D01*
X885954Y1112899D01*
X884299Y1114554D01*
X882271Y1115724D01*
X880010Y1116330D01*
X877670D01*
X875409Y1115724D01*
X873381Y1114554D01*
X871726Y1112899D01*
X870556Y1110871D01*
X869950Y1108610D01*
Y1106270D01*
X870556Y1104009D01*
X871726Y1101981D01*
X873381Y1100326D01*
X874761Y1099530D01*
Y1007110D01*
X875072Y1005549D01*
X875956Y1004226D01*
X948421Y931760D01*
Y928660D01*
X947041Y927864D01*
X945386Y926209D01*
X944216Y924181D01*
X943610Y921920D01*
Y919580D01*
X944022Y918041D01*
X931760Y905779D01*
X852460D01*
X851664Y907159D01*
X850009Y908814D01*
X847981Y909984D01*
X845720Y910590D01*
X845021D01*
X843968Y913130D01*
X853784Y922946D01*
X854668Y924269D01*
X854979Y925830D01*
Y946150D01*
X854668Y947711D01*
X853784Y949034D01*
X850756Y952062D01*
X850900Y952600D01*
Y954940D01*
X850294Y957201D01*
X849124Y959229D01*
X847469Y960884D01*
X845441Y962054D01*
X843180Y962660D01*
X840840D01*
X838579Y962054D01*
X836551Y960884D01*
X834896Y959229D01*
X833726Y957201D01*
X833120Y954940D01*
Y952600D01*
X833726Y950339D01*
X834896Y948311D01*
X836551Y946656D01*
X838579Y945486D01*
X840840Y944880D01*
X843180D01*
X844614Y945264D01*
X846520Y943815D01*
X846821Y943349D01*
Y927520D01*
X841883Y922581D01*
X840374Y923087D01*
X839470Y923761D01*
Y925730D01*
X838864Y927991D01*
X837694Y930019D01*
X836039Y931674D01*
X834011Y932844D01*
X831750Y933450D01*
X829410D01*
X827149Y932844D01*
X825121Y931674D01*
X823466Y930019D01*
X822670Y928639D01*
X816610D01*
X815049Y928328D01*
X813726Y927444D01*
X806106Y919824D01*
X805222Y918501D01*
X804911Y916940D01*
Y823250D01*
X803531Y822454D01*
X801876Y820799D01*
X800706Y818771D01*
X800100Y816510D01*
Y814170D01*
X800706Y811909D01*
X801876Y809881D01*
X803531Y808226D01*
X803942Y807989D01*
X803262Y805449D01*
X747179D01*
X724043Y828585D01*
X725603Y830618D01*
X726819Y829916D01*
X729080Y829310D01*
X731420D01*
X733681Y829916D01*
X735709Y831086D01*
X737364Y832741D01*
X738534Y834769D01*
X739140Y837030D01*
Y839370D01*
X738534Y841631D01*
X737364Y843659D01*
X735709Y845314D01*
X734329Y846110D01*
Y969861D01*
X778854Y1014386D01*
X779738Y1015709D01*
X780049Y1017270D01*
Y1028280D01*
X826770Y1075002D01*
X829310Y1073950D01*
Y1073250D01*
X829916Y1070989D01*
X831086Y1068961D01*
X832741Y1067306D01*
X834769Y1066136D01*
X836930Y1065557D01*
Y1074420D01*
X838200D01*
Y1075690D01*
X847063D01*
X846484Y1077851D01*
X845314Y1079879D01*
X843659Y1081534D01*
X841631Y1082704D01*
X839370Y1083310D01*
X838671D01*
X837618Y1085850D01*
X864484Y1112716D01*
X865368Y1114039D01*
X865679Y1115600D01*
Y1179200D01*
X872390D01*
Y1200780D01*
D02*
G37*
G36*
X516320D02*
X494740D01*
Y1179200D01*
X501451D01*
Y1116820D01*
X414946Y1030314D01*
X414062Y1028991D01*
X413751Y1027430D01*
Y1017690D01*
X370496Y974434D01*
X369612Y973111D01*
X369301Y971550D01*
Y839760D01*
X367921Y838964D01*
X366266Y837309D01*
X365185Y835436D01*
X365023Y835267D01*
X362314Y834714D01*
X354599Y842430D01*
Y907760D01*
X355979Y908556D01*
X357634Y910211D01*
X358804Y912239D01*
X359410Y914500D01*
Y916840D01*
X358804Y919101D01*
X357634Y921129D01*
X355979Y922784D01*
X353951Y923954D01*
X351690Y924560D01*
X349350D01*
X347089Y923954D01*
X345061Y922784D01*
X343406Y921129D01*
X342236Y919101D01*
X341630Y916840D01*
Y916141D01*
X339090Y915088D01*
X335549Y918630D01*
Y949540D01*
X338921Y952912D01*
X340460Y952500D01*
X342800D01*
X345061Y953106D01*
X347089Y954276D01*
X348744Y955931D01*
X349914Y957959D01*
X350520Y960220D01*
Y962560D01*
X349914Y964821D01*
X348744Y966849D01*
X347089Y968504D01*
X345061Y969674D01*
X342800Y970280D01*
X340460D01*
X338199Y969674D01*
X336171Y968504D01*
X334516Y966849D01*
X333346Y964821D01*
X332740Y962560D01*
Y960220D01*
X333152Y958681D01*
X328586Y954114D01*
X327702Y952791D01*
X327391Y951230D01*
Y916940D01*
X327702Y915379D01*
X328586Y914056D01*
X340091Y902551D01*
Y835660D01*
X340402Y834099D01*
X341286Y832776D01*
X381926Y792136D01*
X383249Y791252D01*
X384810Y790941D01*
X428840D01*
X429311Y790471D01*
Y727019D01*
X428453Y726524D01*
X426956Y725027D01*
X425898Y723193D01*
X425350Y721149D01*
Y719032D01*
X425898Y716987D01*
X426956Y715153D01*
X428453Y713656D01*
X430287Y712598D01*
X432332Y712050D01*
X434449D01*
X436493Y712598D01*
X438327Y713656D01*
X439824Y715153D01*
X440882Y716987D01*
X441430Y719032D01*
Y721149D01*
X440882Y723193D01*
X439824Y725027D01*
X438327Y726524D01*
X437469Y727019D01*
Y792160D01*
X437158Y793721D01*
X436274Y795044D01*
X435297Y796021D01*
X436349Y798561D01*
X461861D01*
X469311Y791111D01*
Y727019D01*
X468453Y726524D01*
X466956Y725027D01*
X465898Y723193D01*
X465350Y721149D01*
Y719032D01*
X465898Y716987D01*
X466956Y715153D01*
X468453Y713656D01*
X470287Y712598D01*
X472332Y712050D01*
X474449D01*
X476493Y712598D01*
X478327Y713656D01*
X479824Y715153D01*
X480882Y716987D01*
X481430Y719032D01*
Y721149D01*
X480882Y723193D01*
X479824Y725027D01*
X478327Y726524D01*
X477469Y727019D01*
Y792800D01*
X477158Y794361D01*
X476274Y795684D01*
X466434Y805524D01*
X465111Y806408D01*
X463550Y806719D01*
X460933D01*
X459881Y809259D01*
X460504Y809881D01*
X461674Y811909D01*
X462280Y814170D01*
Y816510D01*
X461674Y818771D01*
X460504Y820799D01*
X458849Y822454D01*
X457469Y823250D01*
Y913980D01*
X463495Y920007D01*
X466213Y919765D01*
X466596Y919101D01*
X468251Y917446D01*
X470279Y916276D01*
X472540Y915670D01*
X474880D01*
X476109Y915999D01*
X477423Y913722D01*
X467016Y903314D01*
X466132Y901991D01*
X465821Y900430D01*
Y828040D01*
X466132Y826479D01*
X467016Y825156D01*
X470890Y821282D01*
X470406Y820799D01*
X469236Y818771D01*
X468630Y816510D01*
Y814170D01*
X469236Y811909D01*
X470406Y809881D01*
X472061Y808226D01*
X474089Y807056D01*
X476350Y806450D01*
X478690D01*
X480951Y807056D01*
X482979Y808226D01*
X484634Y809881D01*
X485804Y811909D01*
X486410Y814170D01*
Y816510D01*
X485804Y818771D01*
X484634Y820799D01*
X482979Y822454D01*
X480951Y823624D01*
X479767Y823942D01*
X473979Y829730D01*
Y898740D01*
X477520Y902282D01*
X480060Y901229D01*
Y900530D01*
X480666Y898269D01*
X481836Y896241D01*
X483491Y894586D01*
X485519Y893416D01*
X487780Y892810D01*
X490120D01*
X492381Y893416D01*
X494409Y894586D01*
X496064Y896241D01*
X496860Y897621D01*
X576580D01*
X578141Y897932D01*
X579464Y898816D01*
X592921Y912272D01*
X594460Y911860D01*
X596800D01*
X599061Y912466D01*
X601089Y913636D01*
X602744Y915291D01*
X603914Y917319D01*
X604520Y919580D01*
Y921920D01*
X603914Y924181D01*
X602744Y926209D01*
X601089Y927864D01*
X599709Y928660D01*
Y933450D01*
X599398Y935011D01*
X598514Y936334D01*
X524779Y1010070D01*
Y1096990D01*
X526159Y1097786D01*
X527814Y1099441D01*
X528984Y1101469D01*
X529590Y1103730D01*
Y1106070D01*
X528984Y1108331D01*
X527814Y1110359D01*
X526159Y1112014D01*
X524131Y1113184D01*
X521870Y1113790D01*
X519530D01*
X517269Y1113184D01*
X515241Y1112014D01*
X513586Y1110359D01*
X512416Y1108331D01*
X511810Y1106070D01*
Y1103730D01*
X512416Y1101469D01*
X513586Y1099441D01*
X515241Y1097786D01*
X516621Y1096990D01*
Y1008380D01*
X516932Y1006819D01*
X517816Y1005496D01*
X591551Y931760D01*
Y928660D01*
X590171Y927864D01*
X588516Y926209D01*
X587346Y924181D01*
X586740Y921920D01*
Y919580D01*
X587152Y918041D01*
X574891Y905779D01*
X496860D01*
X496064Y907159D01*
X494409Y908814D01*
X492381Y909984D01*
X490120Y910590D01*
X489421D01*
X488368Y913130D01*
X494374Y919136D01*
X495258Y920459D01*
X495569Y922020D01*
Y948690D01*
X495258Y950251D01*
X494839Y950879D01*
X495300Y952600D01*
Y954940D01*
X494694Y957201D01*
X493524Y959229D01*
X491869Y960884D01*
X489841Y962054D01*
X487580Y962660D01*
X485240D01*
X482979Y962054D01*
X480951Y960884D01*
X479296Y959229D01*
X478126Y957201D01*
X477520Y954940D01*
Y952600D01*
X478126Y950339D01*
X479296Y948311D01*
X480951Y946656D01*
X482979Y945486D01*
X485240Y944880D01*
X487411D01*
Y923709D01*
X484548Y920847D01*
X482271Y922161D01*
X482600Y923390D01*
Y925730D01*
X481994Y927991D01*
X480824Y930019D01*
X479169Y931674D01*
X477141Y932844D01*
X474880Y933450D01*
X472540D01*
X470279Y932844D01*
X468251Y931674D01*
X466596Y930019D01*
X465800Y928639D01*
X462280D01*
X460719Y928328D01*
X459396Y927444D01*
X450506Y918554D01*
X449622Y917231D01*
X449311Y915670D01*
Y823250D01*
X447931Y822454D01*
X446276Y820799D01*
X445106Y818771D01*
X444500Y816510D01*
Y814170D01*
X445106Y811909D01*
X446276Y809881D01*
X446899Y809259D01*
X445847Y806719D01*
X390309D01*
X376244Y820784D01*
X376797Y823493D01*
X376966Y823655D01*
X378839Y824736D01*
X380494Y826391D01*
X381664Y828419D01*
X382270Y830680D01*
Y833020D01*
X381664Y835281D01*
X380494Y837309D01*
X378839Y838964D01*
X377459Y839760D01*
Y969861D01*
X420714Y1013116D01*
X421598Y1014439D01*
X421909Y1016000D01*
Y1025741D01*
X508414Y1112246D01*
X509298Y1113569D01*
X509609Y1115130D01*
Y1179200D01*
X516320D01*
Y1200780D01*
D02*
G37*
G36*
X1626870Y943583D02*
Y935990D01*
X1634463D01*
X1633884Y938151D01*
X1632714Y940179D01*
X1631059Y941834D01*
X1629031Y943004D01*
X1626870Y943583D01*
D02*
G37*
G36*
X1624330D02*
X1622169Y943004D01*
X1620141Y941834D01*
X1618486Y940179D01*
X1617316Y938151D01*
X1616737Y935990D01*
X1624330D01*
Y943583D01*
D02*
G37*
G36*
X1348740D02*
Y935990D01*
X1356333D01*
X1355754Y938151D01*
X1354584Y940179D01*
X1352929Y941834D01*
X1350901Y943004D01*
X1348740Y943583D01*
D02*
G37*
G36*
X1346200D02*
X1344039Y943004D01*
X1342011Y941834D01*
X1340356Y940179D01*
X1339186Y938151D01*
X1338607Y935990D01*
X1346200D01*
Y943583D01*
D02*
G37*
G36*
X1272540D02*
Y935990D01*
X1280133D01*
X1279554Y938151D01*
X1278384Y940179D01*
X1276729Y941834D01*
X1274701Y943004D01*
X1272540Y943583D01*
D02*
G37*
G36*
X1270000D02*
X1267839Y943004D01*
X1265811Y941834D01*
X1264156Y940179D01*
X1262986Y938151D01*
X1262407Y935990D01*
X1270000D01*
Y943583D01*
D02*
G37*
G36*
X993140D02*
Y935990D01*
X1000733D01*
X1000154Y938151D01*
X998984Y940179D01*
X997329Y941834D01*
X995301Y943004D01*
X993140Y943583D01*
D02*
G37*
G36*
X990600D02*
X988439Y943004D01*
X986411Y941834D01*
X984756Y940179D01*
X983586Y938151D01*
X983007Y935990D01*
X990600D01*
Y943583D01*
D02*
G37*
G36*
X637540D02*
Y935990D01*
X645133D01*
X644554Y938151D01*
X643384Y940179D01*
X641729Y941834D01*
X639701Y943004D01*
X637540Y943583D01*
D02*
G37*
G36*
X635000D02*
X632839Y943004D01*
X630811Y941834D01*
X629156Y940179D01*
X627986Y938151D01*
X627407Y935990D01*
X635000D01*
Y943583D01*
D02*
G37*
G36*
X558800D02*
Y935990D01*
X566393D01*
X565814Y938151D01*
X564644Y940179D01*
X562989Y941834D01*
X560961Y943004D01*
X558800Y943583D01*
D02*
G37*
G36*
X556260D02*
X554099Y943004D01*
X552071Y941834D01*
X550416Y940179D01*
X549246Y938151D01*
X548667Y935990D01*
X556260D01*
Y943583D01*
D02*
G37*
G36*
X283210D02*
Y935990D01*
X290803D01*
X290224Y938151D01*
X289054Y940179D01*
X287399Y941834D01*
X285371Y943004D01*
X283210Y943583D01*
D02*
G37*
G36*
X280670D02*
X278509Y943004D01*
X276481Y941834D01*
X274826Y940179D01*
X273656Y938151D01*
X273077Y935990D01*
X280670D01*
Y943583D01*
D02*
G37*
G36*
X915670Y942313D02*
Y934720D01*
X923263D01*
X922684Y936881D01*
X921514Y938909D01*
X919859Y940564D01*
X917831Y941734D01*
X915670Y942313D01*
D02*
G37*
G36*
X913130D02*
X910969Y941734D01*
X908941Y940564D01*
X907286Y938909D01*
X906116Y936881D01*
X905537Y934720D01*
X913130D01*
Y942313D01*
D02*
G37*
G36*
X1634463Y933450D02*
X1626870D01*
Y925857D01*
X1629031Y926436D01*
X1631059Y927606D01*
X1632714Y929261D01*
X1633884Y931289D01*
X1634463Y933450D01*
D02*
G37*
G36*
X1624330D02*
X1616737D01*
X1617316Y931289D01*
X1618486Y929261D01*
X1620141Y927606D01*
X1622169Y926436D01*
X1624330Y925857D01*
Y933450D01*
D02*
G37*
G36*
X1356333D02*
X1348740D01*
Y925857D01*
X1350901Y926436D01*
X1352929Y927606D01*
X1354584Y929261D01*
X1355754Y931289D01*
X1356333Y933450D01*
D02*
G37*
G36*
X1346200D02*
X1338607D01*
X1339186Y931289D01*
X1340356Y929261D01*
X1342011Y927606D01*
X1344039Y926436D01*
X1346200Y925857D01*
Y933450D01*
D02*
G37*
G36*
X1280133D02*
X1272540D01*
Y925857D01*
X1274701Y926436D01*
X1276729Y927606D01*
X1278384Y929261D01*
X1279554Y931289D01*
X1280133Y933450D01*
D02*
G37*
G36*
X1270000D02*
X1262407D01*
X1262986Y931289D01*
X1264156Y929261D01*
X1265811Y927606D01*
X1267839Y926436D01*
X1270000Y925857D01*
Y933450D01*
D02*
G37*
G36*
X1000733D02*
X993140D01*
Y925857D01*
X995301Y926436D01*
X997329Y927606D01*
X998984Y929261D01*
X1000154Y931289D01*
X1000733Y933450D01*
D02*
G37*
G36*
X990600D02*
X983007D01*
X983586Y931289D01*
X984756Y929261D01*
X986411Y927606D01*
X988439Y926436D01*
X990600Y925857D01*
Y933450D01*
D02*
G37*
G36*
X645133D02*
X637540D01*
Y925857D01*
X639701Y926436D01*
X641729Y927606D01*
X643384Y929261D01*
X644554Y931289D01*
X645133Y933450D01*
D02*
G37*
G36*
X635000D02*
X627407D01*
X627986Y931289D01*
X629156Y929261D01*
X630811Y927606D01*
X632839Y926436D01*
X635000Y925857D01*
Y933450D01*
D02*
G37*
G36*
X566393D02*
X558800D01*
Y925857D01*
X560961Y926436D01*
X562989Y927606D01*
X564644Y929261D01*
X565814Y931289D01*
X566393Y933450D01*
D02*
G37*
G36*
X556260D02*
X548667D01*
X549246Y931289D01*
X550416Y929261D01*
X552071Y927606D01*
X554099Y926436D01*
X556260Y925857D01*
Y933450D01*
D02*
G37*
G36*
X290803D02*
X283210D01*
Y925857D01*
X285371Y926436D01*
X287399Y927606D01*
X289054Y929261D01*
X290224Y931289D01*
X290803Y933450D01*
D02*
G37*
G36*
X280670D02*
X273077D01*
X273656Y931289D01*
X274826Y929261D01*
X276481Y927606D01*
X278509Y926436D01*
X280670Y925857D01*
Y933450D01*
D02*
G37*
G36*
X923263Y932180D02*
X915670D01*
Y924587D01*
X917831Y925166D01*
X919859Y926336D01*
X921514Y927991D01*
X922684Y930019D01*
X923263Y932180D01*
D02*
G37*
G36*
X913130D02*
X905537D01*
X906116Y930019D01*
X907286Y927991D01*
X908941Y926336D01*
X910969Y925166D01*
X913130Y924587D01*
Y932180D01*
D02*
G37*
G36*
X1592480Y1116330D02*
X1590140D01*
X1587879Y1115724D01*
X1585851Y1114554D01*
X1584196Y1112899D01*
X1583026Y1110871D01*
X1582420Y1108610D01*
Y1106270D01*
X1583026Y1104009D01*
X1584196Y1101981D01*
X1585851Y1100326D01*
X1587231Y1099530D01*
Y1008380D01*
X1587542Y1006819D01*
X1588426Y1005496D01*
X1660891Y933030D01*
Y928660D01*
X1659511Y927864D01*
X1657856Y926209D01*
X1656686Y924181D01*
X1656080Y921920D01*
Y919580D01*
X1656492Y918041D01*
X1644230Y905779D01*
X1563660D01*
X1562864Y907159D01*
X1561209Y908814D01*
X1559181Y909984D01*
X1556920Y910590D01*
X1554951D01*
X1554277Y911494D01*
X1553772Y913003D01*
X1563714Y922946D01*
X1564598Y924269D01*
X1564909Y925830D01*
Y947420D01*
X1564598Y948981D01*
X1563714Y950304D01*
X1560418Y953601D01*
X1560830Y955140D01*
Y957480D01*
X1560224Y959741D01*
X1559054Y961769D01*
X1557399Y963424D01*
X1555371Y964594D01*
X1553110Y965200D01*
X1550770D01*
X1548509Y964594D01*
X1546481Y963424D01*
X1544826Y961769D01*
X1543656Y959741D01*
X1543050Y957480D01*
Y955140D01*
X1543656Y952879D01*
X1544826Y950851D01*
X1546481Y949196D01*
X1548509Y948026D01*
X1550770Y947420D01*
X1553110D01*
X1554649Y947832D01*
X1556751Y945731D01*
Y927520D01*
X1551813Y922581D01*
X1550304Y923087D01*
X1549400Y923761D01*
Y925730D01*
X1548794Y927991D01*
X1547624Y930019D01*
X1545969Y931674D01*
X1543941Y932844D01*
X1541680Y933450D01*
X1539340D01*
X1537079Y932844D01*
X1535051Y931674D01*
X1533396Y930019D01*
X1532600Y928639D01*
X1525270D01*
X1523709Y928328D01*
X1522386Y927444D01*
X1518576Y923634D01*
X1517692Y922311D01*
X1517381Y920750D01*
Y825790D01*
X1516001Y824994D01*
X1514346Y823339D01*
X1513176Y821311D01*
X1512570Y819050D01*
Y816710D01*
X1513176Y814449D01*
X1514346Y812421D01*
X1516001Y810766D01*
X1518029Y809596D01*
X1520290Y808990D01*
X1522630D01*
X1524891Y809596D01*
X1526919Y810766D01*
X1528574Y812421D01*
X1529744Y814449D01*
X1530350Y816710D01*
Y819050D01*
X1529744Y821311D01*
X1528574Y823339D01*
X1526919Y824994D01*
X1525539Y825790D01*
Y919061D01*
X1526960Y920481D01*
X1532600D01*
X1533396Y919101D01*
X1535051Y917446D01*
X1537079Y916276D01*
X1539340Y915670D01*
X1541310D01*
X1541983Y914766D01*
X1542489Y913257D01*
X1531276Y902044D01*
X1530392Y900721D01*
X1530081Y899160D01*
Y831850D01*
X1530392Y830289D01*
X1531276Y828966D01*
X1539384Y820858D01*
X1539240Y820320D01*
Y817980D01*
X1539846Y815719D01*
X1541016Y813691D01*
X1542671Y812036D01*
X1544699Y810866D01*
X1546960Y810260D01*
X1549300D01*
X1551561Y810866D01*
X1553589Y812036D01*
X1555244Y813691D01*
X1556414Y815719D01*
X1557020Y817980D01*
Y820320D01*
X1556414Y822581D01*
X1555244Y824609D01*
X1553589Y826264D01*
X1551561Y827434D01*
X1549300Y828040D01*
X1546960D01*
X1544699Y827434D01*
X1544474Y827305D01*
X1538239Y833540D01*
Y897470D01*
X1544447Y903679D01*
X1545956Y903173D01*
X1546860Y902499D01*
Y900530D01*
X1547466Y898269D01*
X1548636Y896241D01*
X1550291Y894586D01*
X1552319Y893416D01*
X1554580Y892810D01*
X1556920D01*
X1559181Y893416D01*
X1561209Y894586D01*
X1562864Y896241D01*
X1563660Y897621D01*
X1645920D01*
X1647481Y897932D01*
X1648804Y898816D01*
X1662261Y912272D01*
X1663800Y911860D01*
X1666140D01*
X1668401Y912466D01*
X1670429Y913636D01*
X1672084Y915291D01*
X1673254Y917319D01*
X1673860Y919580D01*
Y921920D01*
X1673254Y924181D01*
X1672084Y926209D01*
X1670429Y927864D01*
X1669049Y928660D01*
Y934720D01*
X1668738Y936281D01*
X1667854Y937604D01*
X1595389Y1010070D01*
Y1099530D01*
X1596769Y1100326D01*
X1598424Y1101981D01*
X1599594Y1104009D01*
X1600200Y1106270D01*
Y1108610D01*
X1599594Y1110871D01*
X1598424Y1112899D01*
X1596769Y1114554D01*
X1594741Y1115724D01*
X1592480Y1116330D01*
D02*
G37*
G36*
X1238150D02*
X1235810D01*
X1233549Y1115724D01*
X1231521Y1114554D01*
X1229866Y1112899D01*
X1228696Y1110871D01*
X1228090Y1108610D01*
Y1106270D01*
X1228696Y1104009D01*
X1229866Y1101981D01*
X1231351Y1100497D01*
Y1009930D01*
X1231661Y1008369D01*
X1232546Y1007046D01*
X1306561Y933030D01*
Y928660D01*
X1305181Y927864D01*
X1303526Y926209D01*
X1302356Y924181D01*
X1301750Y921920D01*
Y919580D01*
X1302162Y918041D01*
X1289901Y905779D01*
X1209330D01*
X1208534Y907159D01*
X1206879Y908814D01*
X1204851Y909984D01*
X1202590Y910590D01*
X1200620D01*
X1199947Y911494D01*
X1199442Y913003D01*
X1208114Y921676D01*
X1208998Y922999D01*
X1209309Y924560D01*
Y948690D01*
X1208998Y950251D01*
X1208114Y951574D01*
X1206088Y953601D01*
X1206500Y955140D01*
Y957480D01*
X1205894Y959741D01*
X1204724Y961769D01*
X1203069Y963424D01*
X1201041Y964594D01*
X1198780Y965200D01*
X1196440D01*
X1194179Y964594D01*
X1192151Y963424D01*
X1190496Y961769D01*
X1189326Y959741D01*
X1188720Y957480D01*
Y955140D01*
X1189326Y952879D01*
X1190496Y950851D01*
X1192151Y949196D01*
X1194179Y948026D01*
X1196440Y947420D01*
X1198780D01*
X1198785Y947421D01*
X1201151Y945513D01*
Y926249D01*
X1197483Y922581D01*
X1195974Y923087D01*
X1195070Y923761D01*
Y925730D01*
X1194464Y927991D01*
X1193294Y930019D01*
X1191639Y931674D01*
X1189611Y932844D01*
X1187350Y933450D01*
X1185010D01*
X1182749Y932844D01*
X1180721Y931674D01*
X1179066Y930019D01*
X1178270Y928639D01*
X1172210D01*
X1170649Y928328D01*
X1169326Y927444D01*
X1164246Y922364D01*
X1163362Y921041D01*
X1163051Y919480D01*
Y824520D01*
X1161671Y823724D01*
X1160016Y822069D01*
X1158846Y820041D01*
X1158240Y817780D01*
Y815440D01*
X1158846Y813179D01*
X1160016Y811151D01*
X1161671Y809496D01*
X1163699Y808326D01*
X1164956Y807989D01*
X1164622Y805449D01*
X1095160D01*
X1065799Y834809D01*
Y909030D01*
X1067179Y909826D01*
X1068834Y911481D01*
X1070004Y913509D01*
X1070610Y915770D01*
Y918110D01*
X1070004Y920371D01*
X1068834Y922399D01*
X1067179Y924054D01*
X1065151Y925224D01*
X1062890Y925830D01*
X1060550D01*
X1058289Y925224D01*
X1056261Y924054D01*
X1054606Y922399D01*
X1053436Y920371D01*
X1052830Y918110D01*
Y915770D01*
X1053436Y913509D01*
X1054606Y911481D01*
X1056261Y909826D01*
X1057641Y909030D01*
Y894689D01*
X1057521Y894593D01*
X1055101Y893767D01*
X1046749Y902120D01*
Y948270D01*
X1051391Y952912D01*
X1052930Y952500D01*
X1055270D01*
X1057531Y953106D01*
X1059559Y954276D01*
X1061214Y955931D01*
X1062384Y957959D01*
X1062990Y960220D01*
Y962560D01*
X1062384Y964821D01*
X1061214Y966849D01*
X1059559Y968504D01*
X1057531Y969674D01*
X1055270Y970280D01*
X1052930D01*
X1050669Y969674D01*
X1048641Y968504D01*
X1046986Y966849D01*
X1045816Y964821D01*
X1045210Y962560D01*
Y960220D01*
X1045622Y958681D01*
X1039786Y952844D01*
X1038902Y951521D01*
X1038591Y949960D01*
Y900430D01*
X1038902Y898869D01*
X1039786Y897546D01*
X1048751Y888580D01*
Y830580D01*
X1049062Y829019D01*
X1049946Y827696D01*
X1086776Y790866D01*
X1088099Y789982D01*
X1089660Y789671D01*
X1132421D01*
X1142731Y779361D01*
Y727019D01*
X1141873Y726524D01*
X1140376Y725027D01*
X1139318Y723193D01*
X1138770Y721149D01*
Y719032D01*
X1139318Y716987D01*
X1140376Y715153D01*
X1141873Y713656D01*
X1143707Y712598D01*
X1145751Y712050D01*
X1147868D01*
X1149913Y712598D01*
X1151747Y713656D01*
X1153244Y715153D01*
X1154302Y716987D01*
X1154850Y719032D01*
Y721149D01*
X1154302Y723193D01*
X1153244Y725027D01*
X1151747Y726524D01*
X1150889Y727019D01*
Y781050D01*
X1150578Y782611D01*
X1149694Y783934D01*
X1138877Y794751D01*
X1139929Y797291D01*
X1174331D01*
X1182731Y788891D01*
Y727019D01*
X1181873Y726524D01*
X1180376Y725027D01*
X1179318Y723193D01*
X1178770Y721149D01*
Y719032D01*
X1179318Y716987D01*
X1180376Y715153D01*
X1181873Y713656D01*
X1183707Y712598D01*
X1185751Y712050D01*
X1187868D01*
X1189913Y712598D01*
X1191747Y713656D01*
X1193244Y715153D01*
X1194302Y716987D01*
X1194850Y719032D01*
Y721149D01*
X1194302Y723193D01*
X1193244Y725027D01*
X1191747Y726524D01*
X1190889Y727019D01*
Y790580D01*
X1190578Y792141D01*
X1189694Y793464D01*
X1178904Y804254D01*
X1177581Y805138D01*
X1176020Y805449D01*
X1169638D01*
X1169304Y807989D01*
X1170561Y808326D01*
X1172589Y809496D01*
X1174244Y811151D01*
X1175414Y813179D01*
X1176020Y815440D01*
Y817780D01*
X1175414Y820041D01*
X1174244Y822069D01*
X1172589Y823724D01*
X1171209Y824520D01*
Y917791D01*
X1173900Y920481D01*
X1178270D01*
X1179066Y919101D01*
X1180721Y917446D01*
X1182749Y916276D01*
X1185010Y915670D01*
X1186980D01*
X1187653Y914766D01*
X1188158Y913257D01*
X1176946Y902044D01*
X1176062Y900721D01*
X1175751Y899160D01*
Y833120D01*
X1176062Y831559D01*
X1176946Y830236D01*
X1185646Y821536D01*
X1185516Y821311D01*
X1184910Y819050D01*
Y816710D01*
X1185516Y814449D01*
X1186686Y812421D01*
X1188341Y810766D01*
X1190369Y809596D01*
X1192630Y808990D01*
X1194970D01*
X1197231Y809596D01*
X1199259Y810766D01*
X1200914Y812421D01*
X1202084Y814449D01*
X1202690Y816710D01*
Y819050D01*
X1202084Y821311D01*
X1200914Y823339D01*
X1199259Y824994D01*
X1197231Y826164D01*
X1194970Y826770D01*
X1192630D01*
X1192092Y826626D01*
X1183909Y834809D01*
Y897470D01*
X1190117Y903679D01*
X1191626Y903173D01*
X1192530Y902499D01*
Y900530D01*
X1193136Y898269D01*
X1194306Y896241D01*
X1195961Y894586D01*
X1197989Y893416D01*
X1200250Y892810D01*
X1202590D01*
X1204851Y893416D01*
X1206879Y894586D01*
X1208534Y896241D01*
X1209330Y897621D01*
X1291590D01*
X1293151Y897932D01*
X1294474Y898816D01*
X1307931Y912272D01*
X1309470Y911860D01*
X1311810D01*
X1314071Y912466D01*
X1316099Y913636D01*
X1317754Y915291D01*
X1318924Y917319D01*
X1319530Y919580D01*
Y921920D01*
X1318924Y924181D01*
X1317754Y926209D01*
X1316099Y927864D01*
X1314719Y928660D01*
Y934720D01*
X1314408Y936281D01*
X1313524Y937604D01*
X1239509Y1011620D01*
Y1098914D01*
X1240411Y1099156D01*
X1242439Y1100326D01*
X1244094Y1101981D01*
X1245264Y1104009D01*
X1245870Y1106270D01*
Y1108610D01*
X1245264Y1110871D01*
X1244094Y1112899D01*
X1242439Y1114554D01*
X1240411Y1115724D01*
X1238150Y1116330D01*
D02*
G37*
G36*
X1348740Y881353D02*
Y873760D01*
X1356333D01*
X1355754Y875921D01*
X1354584Y877949D01*
X1352929Y879604D01*
X1350901Y880774D01*
X1348740Y881353D01*
D02*
G37*
G36*
X1346200D02*
X1344039Y880774D01*
X1342011Y879604D01*
X1340356Y877949D01*
X1339186Y875921D01*
X1338607Y873760D01*
X1346200D01*
Y881353D01*
D02*
G37*
G36*
X637540D02*
Y873760D01*
X645133D01*
X644554Y875921D01*
X643384Y877949D01*
X641729Y879604D01*
X639701Y880774D01*
X637540Y881353D01*
D02*
G37*
G36*
X635000D02*
X632839Y880774D01*
X630811Y879604D01*
X629156Y877949D01*
X627986Y875921D01*
X627407Y873760D01*
X635000D01*
Y881353D01*
D02*
G37*
G36*
X281940D02*
Y873760D01*
X289533D01*
X288954Y875921D01*
X287784Y877949D01*
X286129Y879604D01*
X284101Y880774D01*
X281940Y881353D01*
D02*
G37*
G36*
X279400D02*
X277239Y880774D01*
X275211Y879604D01*
X273556Y877949D01*
X272386Y875921D01*
X271807Y873760D01*
X279400D01*
Y881353D01*
D02*
G37*
G36*
X993140Y880083D02*
Y872490D01*
X1000733D01*
X1000154Y874651D01*
X998984Y876679D01*
X997329Y878334D01*
X995301Y879504D01*
X993140Y880083D01*
D02*
G37*
G36*
X990600D02*
X988439Y879504D01*
X986411Y878334D01*
X984756Y876679D01*
X983586Y874651D01*
X983007Y872490D01*
X990600D01*
Y880083D01*
D02*
G37*
G36*
X1356333Y871220D02*
X1348740D01*
Y863627D01*
X1350901Y864206D01*
X1352929Y865376D01*
X1354584Y867031D01*
X1355754Y869059D01*
X1356333Y871220D01*
D02*
G37*
G36*
X1346200D02*
X1338607D01*
X1339186Y869059D01*
X1340356Y867031D01*
X1342011Y865376D01*
X1344039Y864206D01*
X1346200Y863627D01*
Y871220D01*
D02*
G37*
G36*
X645133D02*
X637540D01*
Y863627D01*
X639701Y864206D01*
X641729Y865376D01*
X643384Y867031D01*
X644554Y869059D01*
X645133Y871220D01*
D02*
G37*
G36*
X635000D02*
X627407D01*
X627986Y869059D01*
X629156Y867031D01*
X630811Y865376D01*
X632839Y864206D01*
X635000Y863627D01*
Y871220D01*
D02*
G37*
G36*
X289533D02*
X281940D01*
Y863627D01*
X284101Y864206D01*
X286129Y865376D01*
X287784Y867031D01*
X288954Y869059D01*
X289533Y871220D01*
D02*
G37*
G36*
X279400D02*
X271807D01*
X272386Y869059D01*
X273556Y867031D01*
X275211Y865376D01*
X277239Y864206D01*
X279400Y863627D01*
Y871220D01*
D02*
G37*
G36*
X1000733Y869950D02*
X993140D01*
Y862357D01*
X995301Y862936D01*
X997329Y864106D01*
X998984Y865761D01*
X1000154Y867789D01*
X1000733Y869950D01*
D02*
G37*
G36*
X990600D02*
X983007D01*
X983586Y867789D01*
X984756Y865761D01*
X986411Y864106D01*
X988439Y862936D01*
X990600Y862357D01*
Y869950D01*
D02*
G37*
G36*
X1609090Y869923D02*
Y862330D01*
X1616683D01*
X1616104Y864491D01*
X1614934Y866519D01*
X1613279Y868174D01*
X1611251Y869344D01*
X1609090Y869923D01*
D02*
G37*
G36*
X1606550D02*
X1604389Y869344D01*
X1602361Y868174D01*
X1600706Y866519D01*
X1599536Y864491D01*
X1598957Y862330D01*
X1606550D01*
Y869923D01*
D02*
G37*
G36*
X1254760D02*
Y862330D01*
X1262353D01*
X1261774Y864491D01*
X1260604Y866519D01*
X1258949Y868174D01*
X1256921Y869344D01*
X1254760Y869923D01*
D02*
G37*
G36*
X1252220D02*
X1250059Y869344D01*
X1248031Y868174D01*
X1246376Y866519D01*
X1245206Y864491D01*
X1244627Y862330D01*
X1252220D01*
Y869923D01*
D02*
G37*
G36*
X897890Y867383D02*
Y859790D01*
X905483D01*
X904904Y861951D01*
X903734Y863979D01*
X902079Y865634D01*
X900051Y866804D01*
X897890Y867383D01*
D02*
G37*
G36*
X895350D02*
X893189Y866804D01*
X891161Y865634D01*
X889506Y863979D01*
X888336Y861951D01*
X887757Y859790D01*
X895350D01*
Y867383D01*
D02*
G37*
G36*
X541020D02*
Y859790D01*
X548613D01*
X548034Y861951D01*
X546864Y863979D01*
X545209Y865634D01*
X543181Y866804D01*
X541020Y867383D01*
D02*
G37*
G36*
X538480D02*
X536319Y866804D01*
X534291Y865634D01*
X532636Y863979D01*
X531466Y861951D01*
X530887Y859790D01*
X538480D01*
Y867383D01*
D02*
G37*
G36*
X1616683Y859790D02*
X1609090D01*
Y852197D01*
X1611251Y852776D01*
X1613279Y853946D01*
X1614934Y855601D01*
X1616104Y857629D01*
X1616683Y859790D01*
D02*
G37*
G36*
X1606550D02*
X1598957D01*
X1599536Y857629D01*
X1600706Y855601D01*
X1602361Y853946D01*
X1604389Y852776D01*
X1606550Y852197D01*
Y859790D01*
D02*
G37*
G36*
X1262353D02*
X1254760D01*
Y852197D01*
X1256921Y852776D01*
X1258949Y853946D01*
X1260604Y855601D01*
X1261774Y857629D01*
X1262353Y859790D01*
D02*
G37*
G36*
X1252220D02*
X1244627D01*
X1245206Y857629D01*
X1246376Y855601D01*
X1248031Y853946D01*
X1250059Y852776D01*
X1252220Y852197D01*
Y859790D01*
D02*
G37*
G36*
X905483Y857250D02*
X897890D01*
Y849657D01*
X900051Y850236D01*
X902079Y851406D01*
X903734Y853061D01*
X904904Y855089D01*
X905483Y857250D01*
D02*
G37*
G36*
X895350D02*
X887757D01*
X888336Y855089D01*
X889506Y853061D01*
X891161Y851406D01*
X893189Y850236D01*
X895350Y849657D01*
Y857250D01*
D02*
G37*
G36*
X548613D02*
X541020D01*
Y849657D01*
X543181Y850236D01*
X545209Y851406D01*
X546864Y853061D01*
X548034Y855089D01*
X548613Y857250D01*
D02*
G37*
G36*
X538480D02*
X530887D01*
X531466Y855089D01*
X532636Y853061D01*
X534291Y851406D01*
X536319Y850236D01*
X538480Y849657D01*
Y857250D01*
D02*
G37*
G36*
X1129030Y828013D02*
Y820420D01*
X1136623D01*
X1136044Y822581D01*
X1134874Y824609D01*
X1133219Y826264D01*
X1131191Y827434D01*
X1129030Y828013D01*
D02*
G37*
G36*
X1126490D02*
X1124329Y827434D01*
X1122301Y826264D01*
X1120646Y824609D01*
X1119476Y822581D01*
X1118897Y820420D01*
X1126490D01*
Y828013D01*
D02*
G37*
G36*
X772160D02*
Y820420D01*
X779753D01*
X779174Y822581D01*
X778004Y824609D01*
X776349Y826264D01*
X774321Y827434D01*
X772160Y828013D01*
D02*
G37*
G36*
X769620D02*
X767459Y827434D01*
X765431Y826264D01*
X763776Y824609D01*
X762606Y822581D01*
X762027Y820420D01*
X769620D01*
Y828013D01*
D02*
G37*
G36*
X416560D02*
Y820420D01*
X424153D01*
X423574Y822581D01*
X422404Y824609D01*
X420749Y826264D01*
X418721Y827434D01*
X416560Y828013D01*
D02*
G37*
G36*
X414020D02*
X411859Y827434D01*
X409831Y826264D01*
X408176Y824609D01*
X407006Y822581D01*
X406427Y820420D01*
X414020D01*
Y828013D01*
D02*
G37*
G36*
X1483360Y826743D02*
Y819150D01*
X1490953D01*
X1490374Y821311D01*
X1489204Y823339D01*
X1487549Y824994D01*
X1485521Y826164D01*
X1483360Y826743D01*
D02*
G37*
G36*
X1480820D02*
X1478659Y826164D01*
X1476631Y824994D01*
X1474976Y823339D01*
X1473806Y821311D01*
X1473227Y819150D01*
X1480820D01*
Y826743D01*
D02*
G37*
G36*
X424153Y817880D02*
X416560D01*
Y810287D01*
X418721Y810866D01*
X420749Y812036D01*
X422404Y813691D01*
X423574Y815719D01*
X424153Y817880D01*
D02*
G37*
G36*
X414020D02*
X406427D01*
X407006Y815719D01*
X408176Y813691D01*
X409831Y812036D01*
X411859Y810866D01*
X414020Y810287D01*
Y817880D01*
D02*
G37*
G36*
X1136623D02*
X1129030D01*
Y810287D01*
X1131191Y810866D01*
X1133219Y812036D01*
X1134874Y813691D01*
X1136044Y815719D01*
X1136623Y817880D01*
D02*
G37*
G36*
X1126490D02*
X1118897D01*
X1119476Y815719D01*
X1120646Y813691D01*
X1122301Y812036D01*
X1124329Y810866D01*
X1126490Y810287D01*
Y817880D01*
D02*
G37*
G36*
X779753D02*
X772160D01*
Y810287D01*
X774321Y810866D01*
X776349Y812036D01*
X778004Y813691D01*
X779174Y815719D01*
X779753Y817880D01*
D02*
G37*
G36*
X769620D02*
X762027D01*
X762606Y815719D01*
X763776Y813691D01*
X765431Y812036D01*
X767459Y810866D01*
X769620Y810287D01*
Y817880D01*
D02*
G37*
G36*
X1490953Y816610D02*
X1483360D01*
Y809017D01*
X1485521Y809596D01*
X1487549Y810766D01*
X1489204Y812421D01*
X1490374Y814449D01*
X1490953Y816610D01*
D02*
G37*
G36*
X1480820D02*
X1473227D01*
X1473806Y814449D01*
X1474976Y812421D01*
X1476631Y810766D01*
X1478659Y809596D01*
X1480820Y809017D01*
Y816610D01*
D02*
G37*
G36*
X711200Y786103D02*
Y778510D01*
X718793D01*
X718214Y780671D01*
X717044Y782699D01*
X715389Y784354D01*
X713361Y785524D01*
X711200Y786103D01*
D02*
G37*
G36*
X708660D02*
X706499Y785524D01*
X704471Y784354D01*
X702816Y782699D01*
X701646Y780671D01*
X701067Y778510D01*
X708660D01*
Y786103D01*
D02*
G37*
G36*
X355600D02*
Y778510D01*
X363193D01*
X362614Y780671D01*
X361444Y782699D01*
X359789Y784354D01*
X357761Y785524D01*
X355600Y786103D01*
D02*
G37*
G36*
X353060D02*
X350899Y785524D01*
X348871Y784354D01*
X347216Y782699D01*
X346046Y780671D01*
X345467Y778510D01*
X353060D01*
Y786103D01*
D02*
G37*
G36*
X1423670Y777213D02*
Y769620D01*
X1431263D01*
X1430684Y771781D01*
X1429514Y773809D01*
X1427859Y775464D01*
X1425831Y776634D01*
X1423670Y777213D01*
D02*
G37*
G36*
X1421130D02*
X1418969Y776634D01*
X1416941Y775464D01*
X1415286Y773809D01*
X1414116Y771781D01*
X1413537Y769620D01*
X1421130D01*
Y777213D01*
D02*
G37*
G36*
X1068070D02*
Y769620D01*
X1075663D01*
X1075084Y771781D01*
X1073914Y773809D01*
X1072259Y775464D01*
X1070231Y776634D01*
X1068070Y777213D01*
D02*
G37*
G36*
X1065530D02*
X1063369Y776634D01*
X1061341Y775464D01*
X1059686Y773809D01*
X1058516Y771781D01*
X1057937Y769620D01*
X1065530D01*
Y777213D01*
D02*
G37*
G36*
X718793Y775970D02*
X711200D01*
Y768377D01*
X713361Y768956D01*
X715389Y770126D01*
X717044Y771781D01*
X718214Y773809D01*
X718793Y775970D01*
D02*
G37*
G36*
X708660D02*
X701067D01*
X701646Y773809D01*
X702816Y771781D01*
X704471Y770126D01*
X706499Y768956D01*
X708660Y768377D01*
Y775970D01*
D02*
G37*
G36*
X363193D02*
X355600D01*
Y768377D01*
X357761Y768956D01*
X359789Y770126D01*
X361444Y771781D01*
X362614Y773809D01*
X363193Y775970D01*
D02*
G37*
G36*
X353060D02*
X345467D01*
X346046Y773809D01*
X347216Y771781D01*
X348871Y770126D01*
X350899Y768956D01*
X353060Y768377D01*
Y775970D01*
D02*
G37*
G36*
X1431263Y767080D02*
X1423670D01*
Y759487D01*
X1425831Y760066D01*
X1427859Y761236D01*
X1429514Y762891D01*
X1430684Y764919D01*
X1431263Y767080D01*
D02*
G37*
G36*
X1421130D02*
X1413537D01*
X1414116Y764919D01*
X1415286Y762891D01*
X1416941Y761236D01*
X1418969Y760066D01*
X1421130Y759487D01*
Y767080D01*
D02*
G37*
G36*
X1075663D02*
X1068070D01*
Y759487D01*
X1070231Y760066D01*
X1072259Y761236D01*
X1073914Y762891D01*
X1075084Y764919D01*
X1075663Y767080D01*
D02*
G37*
G36*
X1065530D02*
X1057937D01*
X1058516Y764919D01*
X1059686Y762891D01*
X1061341Y761236D01*
X1063369Y760066D01*
X1065530Y759487D01*
Y767080D01*
D02*
G37*
G36*
X1569180Y728130D02*
X1553100D01*
Y712050D01*
X1569180D01*
Y728130D01*
D02*
G37*
G36*
X1522198D02*
X1520081D01*
X1518037Y727582D01*
X1516203Y726524D01*
X1514706Y725027D01*
X1513648Y723193D01*
X1513100Y721149D01*
Y719032D01*
X1513648Y716987D01*
X1514706Y715153D01*
X1516203Y713656D01*
X1518037Y712598D01*
X1520081Y712050D01*
X1522198D01*
X1524243Y712598D01*
X1526077Y713656D01*
X1527574Y715153D01*
X1528632Y716987D01*
X1529180Y719032D01*
Y721149D01*
X1528632Y723193D01*
X1527574Y725027D01*
X1526077Y726524D01*
X1524243Y727582D01*
X1522198Y728130D01*
D02*
G37*
G36*
X1214850D02*
X1198770D01*
Y712050D01*
X1214850D01*
Y728130D01*
D02*
G37*
G36*
X1167868D02*
X1165751D01*
X1163707Y727582D01*
X1161873Y726524D01*
X1160376Y725027D01*
X1159318Y723193D01*
X1158770Y721149D01*
Y719032D01*
X1159318Y716987D01*
X1160376Y715153D01*
X1161873Y713656D01*
X1163707Y712598D01*
X1165751Y712050D01*
X1167868D01*
X1169913Y712598D01*
X1171747Y713656D01*
X1173244Y715153D01*
X1174302Y716987D01*
X1174850Y719032D01*
Y721149D01*
X1174302Y723193D01*
X1173244Y725027D01*
X1171747Y726524D01*
X1169913Y727582D01*
X1167868Y728130D01*
D02*
G37*
G36*
X856710D02*
X840630D01*
Y712050D01*
X856710D01*
Y728130D01*
D02*
G37*
G36*
X809728D02*
X807611D01*
X805567Y727582D01*
X803733Y726524D01*
X802236Y725027D01*
X801178Y723193D01*
X800630Y721149D01*
Y719032D01*
X801178Y716987D01*
X802236Y715153D01*
X803733Y713656D01*
X805567Y712598D01*
X807611Y712050D01*
X809728D01*
X811773Y712598D01*
X813607Y713656D01*
X815104Y715153D01*
X816162Y716987D01*
X816710Y719032D01*
Y721149D01*
X816162Y723193D01*
X815104Y725027D01*
X813607Y726524D01*
X811773Y727582D01*
X809728Y728130D01*
D02*
G37*
G36*
X501430D02*
X485350D01*
Y712050D01*
X501430D01*
Y728130D01*
D02*
G37*
G36*
X454449D02*
X452332D01*
X450287Y727582D01*
X448453Y726524D01*
X446956Y725027D01*
X445898Y723193D01*
X445350Y721149D01*
Y719032D01*
X445898Y716987D01*
X446956Y715153D01*
X448453Y713656D01*
X450287Y712598D01*
X452332Y712050D01*
X454449D01*
X456493Y712598D01*
X458327Y713656D01*
X459824Y715153D01*
X460882Y716987D01*
X461430Y719032D01*
Y721149D01*
X460882Y723193D01*
X459824Y725027D01*
X458327Y726524D01*
X456493Y727582D01*
X454449Y728130D01*
D02*
G37*
%LPD*%
D48*
X1501140Y720090D02*
Y782320D01*
X1488440Y795020D02*
X1501140Y782320D01*
X1546860Y819150D02*
X1548130D01*
X1534160Y831850D02*
X1546860Y819150D01*
X1534160Y831850D02*
Y899160D01*
X1560830Y925830D01*
Y947420D01*
X1551940Y956310D02*
X1560830Y947420D01*
X1521460Y817880D02*
Y920750D01*
X1525270Y924560D01*
X1540510D01*
X1442720Y795020D02*
X1488440D01*
X1408430Y829310D02*
X1442720Y795020D01*
X1408430Y829310D02*
Y890270D01*
X1398270Y900430D02*
X1408430Y890270D01*
X1398270Y900430D02*
Y953770D01*
X1407160Y962660D01*
X1541140Y720090D02*
Y793120D01*
X1532890Y801370D02*
X1541140Y793120D01*
X1447800Y801370D02*
X1532890D01*
X1416050Y833120D02*
X1447800Y801370D01*
X1416050Y833120D02*
Y916940D01*
X1479550Y1024890D02*
X1572800Y1118140D01*
Y1189990D01*
X1479550Y1009650D02*
Y1024890D01*
X1441450Y971550D02*
X1479550Y1009650D01*
X1441450Y830580D02*
Y971550D01*
X1447800Y1116330D02*
Y1189990D01*
Y1116330D02*
X1456690Y1107440D01*
X1531620D01*
X1591310Y1008380D02*
X1664970Y934720D01*
X1591310Y1008380D02*
Y1107440D01*
X1664970Y920750D02*
Y934720D01*
X1367790Y897890D02*
X1369060Y899160D01*
X1367790Y845820D02*
Y897890D01*
X1409700Y1024890D02*
X1432560Y1047750D01*
X1395730Y1024890D02*
X1409700D01*
X1383030Y1012190D02*
X1395730Y1024890D01*
X1383030Y913130D02*
Y1012190D01*
X1369060Y899160D02*
X1383030Y913130D01*
X1357630Y899160D02*
X1369060D01*
X1357630Y835660D02*
X1367790Y845820D01*
X1447800Y1088390D02*
X1520190D01*
X1472800Y1189990D02*
X1473200Y1189590D01*
Y1118870D02*
Y1189590D01*
X1555750Y901700D02*
X1645920D01*
X1664970Y920750D01*
X488950Y901700D02*
X576580D01*
X595630Y920750D01*
X933450Y901700D02*
X952500Y920750D01*
X844550Y901700D02*
X933450D01*
X1201420D02*
X1291590D01*
X1310640Y920750D01*
X453390Y915670D02*
X462280Y924560D01*
X473710D01*
X816610D02*
X830580D01*
X808990Y916940D02*
X816610Y924560D01*
X1172210D02*
X1186180D01*
X505530Y1115130D02*
Y1189990D01*
X417830Y1016000D02*
Y1027430D01*
X505530Y1115130D01*
X861600Y1115600D02*
Y1189990D01*
X775970Y1029970D02*
X861600Y1115600D01*
X775970Y1017270D02*
Y1029970D01*
X1218470Y1118870D02*
Y1189990D01*
X1123950Y1024350D02*
X1218470Y1118870D01*
X1123950Y1008380D02*
Y1024350D01*
X1087120Y971550D02*
X1123950Y1008380D01*
X1087120Y831850D02*
Y971550D01*
X373380D02*
X417830Y1016000D01*
X373380Y831850D02*
Y971550D01*
X730250D02*
X775970Y1017270D01*
X730250Y838200D02*
Y971550D01*
X299720Y900430D02*
X300990Y901700D01*
X289560Y900430D02*
X299720D01*
X350520Y840740D02*
X388620Y802640D01*
X350520Y840740D02*
Y915670D01*
X1179830Y899160D02*
X1205230Y924560D01*
X1179830Y833120D02*
Y899160D01*
X1205230Y924560D02*
Y948690D01*
X1193800Y817880D02*
Y819150D01*
X1179830Y833120D02*
X1193800Y819150D01*
X1197610Y956310D02*
X1205230Y948690D01*
X1167130Y816610D02*
Y919480D01*
X1172210Y924560D01*
X1093470Y801370D02*
X1176020D01*
X1186810Y790580D01*
Y720090D02*
Y790580D01*
X1146810Y720090D02*
Y781050D01*
X1134110Y793750D02*
X1146810Y781050D01*
X1089660Y793750D02*
X1134110D01*
X1052830Y830580D02*
X1089660Y793750D01*
X1052830Y830580D02*
Y890270D01*
X1042670Y900430D02*
X1052830Y890270D01*
X1042670Y900430D02*
Y949960D01*
X1054100Y961390D01*
X1061720Y833120D02*
X1093470Y801370D01*
X1061720Y833120D02*
Y916940D01*
X1012190Y899160D02*
X1013460Y900430D01*
X1002030Y899160D02*
X1012190D01*
X645160Y900430D02*
X656590D01*
X1056640Y1024890D02*
X1076960Y1045210D01*
X1040130Y1024890D02*
X1056640D01*
X1027430Y1012190D02*
X1040130Y1024890D01*
X1027430Y914400D02*
Y1012190D01*
X1013460Y900430D02*
X1027430Y914400D01*
X1013460Y845820D02*
Y900430D01*
X1002030Y834390D02*
X1013460Y845820D01*
X1093470Y1088390D02*
X1165860D01*
X737870D02*
X810260D01*
X1118670Y1119070D02*
Y1189790D01*
Y1119070D02*
X1118941Y1118799D01*
X1102360Y1107440D02*
X1177290D01*
X1093470Y1116330D02*
X1102360Y1107440D01*
X1118470Y1189990D02*
X1118670Y1189790D01*
X1235430Y1009930D02*
Y1105890D01*
X1236980Y1107440D01*
X1093470Y1116330D02*
Y1189990D01*
X1235430Y1009930D02*
X1310640Y934720D01*
Y920750D02*
Y934720D01*
X878840Y1007110D02*
X952500Y933450D01*
X878840Y1007110D02*
Y1107440D01*
X520700Y1008380D02*
Y1104900D01*
Y1008380D02*
X595630Y933450D01*
X824230Y829310D02*
X836930Y816610D01*
X824230Y829310D02*
Y899160D01*
X850900Y925830D01*
Y946150D01*
X808990Y815340D02*
Y916940D01*
X828281Y720479D02*
X828670Y720090D01*
X828281Y720479D02*
Y790969D01*
X817880Y801370D02*
X828281Y790969D01*
X745490Y801370D02*
X817880D01*
X788179Y720581D02*
X788670Y720090D01*
X788179Y720581D02*
Y781541D01*
X740410Y792480D02*
X777240D01*
X788179Y781541D01*
X843280Y953770D02*
X850900Y946150D01*
X842010Y953770D02*
X843280D01*
X697230Y835660D02*
X740410Y792480D01*
X697230Y835660D02*
Y895350D01*
X687070Y905510D02*
X697230Y895350D01*
X687070Y905510D02*
Y951230D01*
X688340D01*
X698500Y961390D01*
X706120Y840740D02*
X745490Y801370D01*
X706120Y840740D02*
Y915670D01*
X736600Y1120140D02*
Y1189990D01*
Y1120140D02*
X751840Y1104900D01*
X828040D01*
X761600Y1189990D02*
X761800Y1189790D01*
Y1117800D02*
X762000Y1117600D01*
X761800Y1117800D02*
Y1189790D01*
X952500Y920750D02*
Y933450D01*
X701040Y1024890D02*
X721360Y1045210D01*
X683260Y1024890D02*
X701040D01*
X671830Y1013460D02*
X683260Y1024890D01*
X671830Y915670D02*
Y1013460D01*
X656590Y900430D02*
X671830Y915670D01*
X656590Y855980D02*
Y900430D01*
X645160Y844550D02*
X656590Y855980D01*
X346710Y1024890D02*
X367030Y1045210D01*
X332740Y1024890D02*
X346710D01*
X316230Y1008380D02*
X332740Y1024890D01*
X316230Y916940D02*
Y1008380D01*
X300990Y901700D02*
X316230Y916940D01*
X300990Y855980D02*
Y901700D01*
X289560Y844550D02*
X300990Y855980D01*
X486410Y953770D02*
X491490Y948690D01*
Y922020D02*
Y948690D01*
X469900Y900430D02*
X491490Y922020D01*
X469900Y828040D02*
Y900430D01*
Y828040D02*
X477520Y820420D01*
Y815340D02*
Y820420D01*
X453390Y815340D02*
Y915670D01*
X433390Y720090D02*
Y792160D01*
X430530Y795020D02*
X433390Y792160D01*
X384810Y795020D02*
X430530D01*
X344170Y835660D02*
X384810Y795020D01*
X344170Y835660D02*
Y904240D01*
X331470Y916940D02*
X344170Y904240D01*
X331470Y916940D02*
Y951230D01*
X341630Y961390D01*
X473390Y720090D02*
Y792800D01*
X463550Y802640D02*
X473390Y792800D01*
X388620Y802640D02*
X463550D01*
X405530Y1118470D02*
X406400Y1117600D01*
X405530Y1118470D02*
Y1189990D01*
X379730Y1189190D02*
X380530Y1189990D01*
X379730Y1120140D02*
Y1189190D01*
Y1120140D02*
X394970Y1104900D01*
X467360D01*
X595630Y920750D02*
Y933450D01*
X382270Y1088390D02*
X452120D01*
D49*
X1447800Y1189990D02*
D03*
X1472800D02*
D03*
X1497800D02*
D03*
X1522800D02*
D03*
X1547800D02*
D03*
X1093470D02*
D03*
X1118470D02*
D03*
X1143470D02*
D03*
X1168470D02*
D03*
X1193470D02*
D03*
X736600D02*
D03*
X761600D02*
D03*
X786600D02*
D03*
X811600D02*
D03*
X836600D02*
D03*
X380530D02*
D03*
X405530D02*
D03*
X430530D02*
D03*
X455530D02*
D03*
X480530D02*
D03*
D50*
X1572800D02*
D03*
X1218470D02*
D03*
X861600D02*
D03*
X505530D02*
D03*
D51*
X1501140Y720090D02*
D03*
X1521140D02*
D03*
X1541140D02*
D03*
X1146810D02*
D03*
X1166810D02*
D03*
X1186810D02*
D03*
X788670D02*
D03*
X808670D02*
D03*
X828670D02*
D03*
X433390D02*
D03*
X453390D02*
D03*
X473390D02*
D03*
D52*
X1561140D02*
D03*
X1206810D02*
D03*
X848670D02*
D03*
X493390D02*
D03*
D53*
X1046480Y1005840D02*
D03*
X281940Y934720D02*
D03*
X1548130Y819150D02*
D03*
X1551940Y956310D02*
D03*
X1521460Y817880D02*
D03*
X1540510Y924560D02*
D03*
X1407160Y962660D02*
D03*
X1416050Y916940D02*
D03*
X1661007Y968872D02*
D03*
X1661160Y1024890D02*
D03*
X1548130Y1074420D02*
D03*
X1492250D02*
D03*
X1400810Y1005840D02*
D03*
X1422400Y768350D02*
D03*
X1347470Y872490D02*
D03*
X1531620Y1107440D02*
D03*
X1591310D02*
D03*
X1357630Y899160D02*
D03*
Y835660D02*
D03*
X1432560Y1047750D02*
D03*
X1447800Y1088390D02*
D03*
X1520190D02*
D03*
X1473200Y1118870D02*
D03*
X1431290Y988060D02*
D03*
X1441450Y830580D02*
D03*
X1482090Y817880D02*
D03*
X1664970Y920750D02*
D03*
X1607820Y861060D02*
D03*
X1555750Y901700D02*
D03*
X1347470Y934720D02*
D03*
X1625600D02*
D03*
X488950Y901700D02*
D03*
X844550D02*
D03*
X1201420D02*
D03*
X473710Y924560D02*
D03*
X830580D02*
D03*
X1186180D02*
D03*
X1195070Y1074420D02*
D03*
X481330Y1068070D02*
D03*
X838200Y1074420D02*
D03*
X350520Y915670D02*
D03*
X1087120Y831850D02*
D03*
X1193800Y817880D02*
D03*
X1197610Y956310D02*
D03*
X1167130Y816610D02*
D03*
X1054100Y961390D02*
D03*
X1061720Y916940D02*
D03*
X1066800Y768350D02*
D03*
X1076960Y1045210D02*
D03*
X1093470Y1088390D02*
D03*
X737870D02*
D03*
X1165860D02*
D03*
X1118941Y1118799D02*
D03*
X1177290Y1107440D02*
D03*
X1236980D02*
D03*
X878840D02*
D03*
X520700Y1104900D02*
D03*
X1002030Y834390D02*
D03*
Y899160D02*
D03*
X991870Y871220D02*
D03*
X1306830Y969010D02*
D03*
X1306509Y1025013D02*
D03*
X1137920Y1074420D02*
D03*
X1076960Y986790D02*
D03*
X1127760Y819150D02*
D03*
X1310640Y920750D02*
D03*
X1253490Y861060D02*
D03*
X991870Y934720D02*
D03*
X1271270D02*
D03*
X914400Y933450D02*
D03*
X836930Y816610D02*
D03*
X808990Y815340D02*
D03*
X842010Y953770D02*
D03*
X730250Y838200D02*
D03*
X721170Y985520D02*
D03*
X373380Y831850D02*
D03*
X364915Y986267D02*
D03*
X698500Y961390D02*
D03*
X706120Y915670D02*
D03*
X828040Y1104900D02*
D03*
X762000Y1117600D02*
D03*
X721360Y1045210D02*
D03*
X810260Y1088390D02*
D03*
X951230Y1024890D02*
D03*
Y969010D02*
D03*
X782320Y1074420D02*
D03*
X645160Y844550D02*
D03*
Y900430D02*
D03*
X636270Y872490D02*
D03*
Y934720D02*
D03*
X690880Y1005840D02*
D03*
X367030Y1045210D02*
D03*
X289560Y844550D02*
D03*
Y900430D02*
D03*
X709930Y777240D02*
D03*
X952500Y920750D02*
D03*
X896620Y858520D02*
D03*
X770890Y819150D02*
D03*
X486410Y953770D02*
D03*
X477520Y815340D02*
D03*
X453390D02*
D03*
X341630Y961390D02*
D03*
X557530Y934720D02*
D03*
X406400Y1117600D02*
D03*
X334010Y1005840D02*
D03*
X280670Y872490D02*
D03*
X354330Y777240D02*
D03*
X467360Y1104900D02*
D03*
X595630Y920750D02*
D03*
X593090Y962660D02*
D03*
X452120Y1088390D02*
D03*
X382270D02*
D03*
X424180Y1068070D02*
D03*
X593090Y1018540D02*
D03*
X415290Y819150D02*
D03*
X539750Y858520D02*
D03*
D54*
X1684020Y703580D02*
D03*
Y1212850D02*
D03*
X266700D02*
D03*
Y703580D02*
D03*
M02*
