M48
;Layer_Color=9474304
;FILE_FORMAT=4:4
METRIC,LZ
T5F00S00C5.0800
%
G90
G05
T05
G00X01720818Y00646937
M15
G01X01725665Y00648437
G01X01730117Y0065087
G01X01733997Y0065414
G01X01737149Y00658115
G01X01739448Y00662638
G01X01740803Y00667527
G01X0174117Y0067183
G01X0174117Y012446
G01X01740663Y01249648
G01X01739163Y01254495
G01X0173673Y01258947
G01X0173346Y01262827
G01X01729485Y01265979
G01X01724962Y01268278
G01X01720073Y01269633
G01X0171577Y0127
G01X0023495Y0127
G01X00229902Y01269493
G01X00225055Y01267993
G01X00220603Y0126556
G01X00216723Y0126229
G01X00213571Y01258315
G01X00211272Y01253792
G01X00209917Y01248903
G01X0020955Y012446
G01X0020955Y0067183
G01X00210057Y00666782
G01X00211557Y00661935
G01X0021399Y00657483
G01X0021726Y00653603
G01X00221235Y00650451
G01X00225758Y00648152
G01X00230647Y00646797
G01X0023495Y0064643
G01X0171577Y0064643
G01X01720818Y00646937
M16
M17
M30
